<svg width="231" height="178" viewBox="0 0 231 178" fill="none" xmlns="http://www.w3.org/2000/svg">
<g opacity="0.4">
<path d="M230.5 62.4325C230.5 119.042 193.5 194.933 112 164.932C30.5 134.932 0 154.542 0 97.9325C0 41.3233 18.5918 27.4325 81 27.4325C143.408 27.4325 230.5 5.82332 230.5 62.4325Z" fill="#C5A255" fill-opacity="0.38"/>
<path d="M230.5 62.4325C230.5 119.042 193.5 194.933 112 164.932C30.5 134.932 0 154.542 0 97.9325C0 41.3233 18.5918 27.4325 81 27.4325C143.408 27.4325 230.5 5.82332 230.5 62.4325Z" fill="url(#paint0_linear)" fill-opacity="0.3"/>
</g>
<g filter="url(#filter0_ddddiiiii)">
<path d="M103.402 108.417L117.465 135.439C118.845 138.09 122.709 137.868 123.776 135.077C124.398 133.449 126.131 132.537 127.825 132.946L130.289 133.54C132.042 133.962 133.86 133.161 134.73 131.583L136.109 129.082C136.806 127.817 138.373 127.319 139.673 127.949L140.052 128.132C141.635 128.9 143.486 127.791 143.556 126.033C143.613 124.627 144.844 123.559 146.244 123.702L149.321 124.015C151.021 124.188 152.607 123.141 153.116 121.51L154.016 118.625C154.449 117.237 156.229 116.849 157.2 117.931C158.181 119.024 159.981 118.615 160.394 117.206L160.725 116.075C161.052 114.96 162.096 114.211 163.256 114.257L165.131 114.333C166.645 114.394 168.063 113.594 168.794 112.267L170.081 109.932C170.843 108.552 172.402 107.813 173.952 108.1L175.703 108.423C176.906 108.645 178.036 107.775 178.13 106.555C178.215 105.451 179.159 104.611 180.267 104.656L182.425 104.742C183.782 104.797 185.075 104.159 185.857 103.048L185.936 102.936C186.782 101.733 186.901 100.162 186.243 98.8462L166.905 60.1246L147.854 21.977C147.108 20.4842 145.288 19.8866 143.803 20.647L105.994 40.0028L78.6881 53.4038C76.6674 54.3955 75.8625 56.8586 76.9078 58.8522L79.5494 63.8902L103.402 108.417Z" fill="#FFE7BD"/>
<path d="M103.402 108.417L117.465 135.439C118.845 138.09 122.709 137.868 123.776 135.077C124.398 133.449 126.131 132.537 127.825 132.946L130.289 133.54C132.042 133.962 133.86 133.161 134.73 131.583L136.109 129.082C136.806 127.817 138.373 127.319 139.673 127.949L140.052 128.132C141.635 128.9 143.486 127.791 143.556 126.033C143.613 124.627 144.844 123.559 146.244 123.702L149.321 124.015C151.021 124.188 152.607 123.141 153.116 121.51L154.016 118.625C154.449 117.237 156.229 116.849 157.2 117.931C158.181 119.024 159.981 118.615 160.394 117.206L160.725 116.075C161.052 114.96 162.096 114.211 163.256 114.257L165.131 114.333C166.645 114.394 168.063 113.594 168.794 112.267L170.081 109.932C170.843 108.552 172.402 107.813 173.952 108.1L175.703 108.423C176.906 108.645 178.036 107.775 178.13 106.555C178.215 105.451 179.159 104.611 180.267 104.656L182.425 104.742C183.782 104.797 185.075 104.159 185.857 103.048L185.936 102.936C186.782 101.733 186.901 100.162 186.243 98.8462L166.905 60.1246L147.854 21.977C147.108 20.4842 145.288 19.8866 143.803 20.647L105.994 40.0028L78.6881 53.4038C76.6674 54.3955 75.8625 56.8586 76.9078 58.8522L79.5494 63.8902L103.402 108.417Z" fill="url(#paint1_linear)"/>
<path d="M103.402 108.417L117.465 135.439C118.845 138.09 122.709 137.868 123.776 135.077C124.398 133.449 126.131 132.537 127.825 132.946L130.289 133.54C132.042 133.962 133.86 133.161 134.73 131.583L136.109 129.082C136.806 127.817 138.373 127.319 139.673 127.949L140.052 128.132C141.635 128.9 143.486 127.791 143.556 126.033C143.613 124.627 144.844 123.559 146.244 123.702L149.321 124.015C151.021 124.188 152.607 123.141 153.116 121.51L154.016 118.625C154.449 117.237 156.229 116.849 157.2 117.931C158.181 119.024 159.981 118.615 160.394 117.206L160.725 116.075C161.052 114.96 162.096 114.211 163.256 114.257L165.131 114.333C166.645 114.394 168.063 113.594 168.794 112.267L170.081 109.932C170.843 108.552 172.402 107.813 173.952 108.1L175.703 108.423C176.906 108.645 178.036 107.775 178.13 106.555C178.215 105.451 179.159 104.611 180.267 104.656L182.425 104.742C183.782 104.797 185.075 104.159 185.857 103.048L185.936 102.936C186.782 101.733 186.901 100.162 186.243 98.8462L166.905 60.1246L147.854 21.977C147.108 20.4842 145.288 19.8866 143.803 20.647L105.994 40.0028L78.6881 53.4038C76.6674 54.3955 75.8625 56.8586 76.9078 58.8522L79.5494 63.8902L103.402 108.417Z" fill="url(#paint2_radial)"/>
<path d="M103.402 108.417L117.465 135.439C118.845 138.09 122.709 137.868 123.776 135.077C124.398 133.449 126.131 132.537 127.825 132.946L130.289 133.54C132.042 133.962 133.86 133.161 134.73 131.583L136.109 129.082C136.806 127.817 138.373 127.319 139.673 127.949L140.052 128.132C141.635 128.9 143.486 127.791 143.556 126.033C143.613 124.627 144.844 123.559 146.244 123.702L149.321 124.015C151.021 124.188 152.607 123.141 153.116 121.51L154.016 118.625C154.449 117.237 156.229 116.849 157.2 117.931C158.181 119.024 159.981 118.615 160.394 117.206L160.725 116.075C161.052 114.96 162.096 114.211 163.256 114.257L165.131 114.333C166.645 114.394 168.063 113.594 168.794 112.267L170.081 109.932C170.843 108.552 172.402 107.813 173.952 108.1L175.703 108.423C176.906 108.645 178.036 107.775 178.13 106.555C178.215 105.451 179.159 104.611 180.267 104.656L182.425 104.742C183.782 104.797 185.075 104.159 185.857 103.048L185.936 102.936C186.782 101.733 186.901 100.162 186.243 98.8462L166.905 60.1246L147.854 21.977C147.108 20.4842 145.288 19.8866 143.803 20.647L105.994 40.0028L78.6881 53.4038C76.6674 54.3955 75.8625 56.8586 76.9078 58.8522L79.5494 63.8902L103.402 108.417Z" fill="url(#paint3_radial)"/>
</g>
<g filter="url(#filter1_iif)">
<path d="M122.919 138.011L122.412 127.977L136.449 119.319L153.301 112.914L168.19 103.635L184.06 95.7935C185.92 98.3072 186.551 101.525 185.776 104.555L185.569 105.364C185.523 105.544 185.459 105.72 185.377 105.887L184.481 107.726C183.553 109.63 181.751 110.958 179.658 111.28L178.944 111.39C177.404 111.627 176.062 112.569 175.316 113.937L174.953 114.602C174.094 116.177 172.291 116.987 170.543 116.584L169.578 116.361C168.116 116.024 166.638 116.853 166.163 118.276C165.767 119.465 164.655 120.266 163.403 120.266L162.143 120.266C160.523 120.266 159.042 121.181 158.318 122.63C157.524 124.217 155.815 125.148 154.05 124.971C152.76 124.842 151.469 125.298 150.552 126.214L150.399 126.367C149.503 127.263 148.288 127.766 147.021 127.766L145.275 127.766C143.847 127.766 142.508 128.456 141.678 129.617C140.93 130.664 139.763 131.333 138.482 131.45L136.998 131.585C135.746 131.698 134.628 132.417 134.005 133.508C133.376 134.609 132.245 135.329 130.982 135.434L128.839 135.613C127.629 135.714 126.458 136.091 125.417 136.715L123.097 138.106C123.021 138.152 122.924 138.1 122.919 138.011Z" fill="#CFB895"/>
<path d="M122.919 138.011L122.412 127.977L136.449 119.319L153.301 112.914L168.19 103.635L184.06 95.7935C185.92 98.3072 186.551 101.525 185.776 104.555L185.569 105.364C185.523 105.544 185.459 105.72 185.377 105.887L184.481 107.726C183.553 109.63 181.751 110.958 179.658 111.28L178.944 111.39C177.404 111.627 176.062 112.569 175.316 113.937L174.953 114.602C174.094 116.177 172.291 116.987 170.543 116.584L169.578 116.361C168.116 116.024 166.638 116.853 166.163 118.276C165.767 119.465 164.655 120.266 163.403 120.266L162.143 120.266C160.523 120.266 159.042 121.181 158.318 122.63C157.524 124.217 155.815 125.148 154.05 124.971C152.76 124.842 151.469 125.298 150.552 126.214L150.399 126.367C149.503 127.263 148.288 127.766 147.021 127.766L145.275 127.766C143.847 127.766 142.508 128.456 141.678 129.617C140.93 130.664 139.763 131.333 138.482 131.45L136.998 131.585C135.746 131.698 134.628 132.417 134.005 133.508C133.376 134.609 132.245 135.329 130.982 135.434L128.839 135.613C127.629 135.714 126.458 136.091 125.417 136.715L123.097 138.106C123.021 138.152 122.924 138.1 122.919 138.011Z" fill="url(#paint4_linear)" fill-opacity="0.6"/>
</g>
<defs>
<filter id="filter0_ddddiiiii" x="30.8229" y="0.410522" width="177.209" height="176.822" filterUnits="userSpaceOnUse" color-interpolation-filters="sRGB">
<feFlood flood-opacity="0" result="BackgroundImageFix"/>
<feColorMatrix in="SourceAlpha" type="matrix" values="0 0 0 0 0 0 0 0 0 0 0 0 0 0 0 0 0 0 127 0"/>
<feOffset dx="-23" dy="18"/>
<feGaussianBlur stdDeviation="8.5"/>
<feColorMatrix type="matrix" values="0 0 0 0 0.114236 0 0 0 0 0.291792 0 0 0 0 0.391667 0 0 0 0.3 0"/>
<feBlend mode="normal" in2="BackgroundImageFix" result="effect1_dropShadow"/>
<feColorMatrix in="SourceAlpha" type="matrix" values="0 0 0 0 0 0 0 0 0 0 0 0 0 0 0 0 0 0 127 0"/>
<feOffset dx="-20" dy="20"/>
<feGaussianBlur stdDeviation="4"/>
<feColorMatrix type="matrix" values="0 0 0 0 0.654167 0 0 0 0 0.323922 0 0 0 0 0.0190799 0 0 0 0.21 0"/>
<feBlend mode="normal" in2="effect1_dropShadow" result="effect2_dropShadow"/>
<feColorMatrix in="SourceAlpha" type="matrix" values="0 0 0 0 0 0 0 0 0 0 0 0 0 0 0 0 0 0 127 0"/>
<feOffset/>
<feGaussianBlur stdDeviation="7"/>
<feColorMatrix type="matrix" values="0 0 0 0 0.666667 0 0 0 0 0.352941 0 0 0 0 0.101961 0 0 0 0.2 0"/>
<feBlend mode="normal" in2="effect2_dropShadow" result="effect3_dropShadow"/>
<feColorMatrix in="SourceAlpha" type="matrix" values="0 0 0 0 0 0 0 0 0 0 0 0 0 0 0 0 0 0 127 0"/>
<feOffset dx="6" dy="23"/>
<feGaussianBlur stdDeviation="3.5"/>
<feColorMatrix type="matrix" values="0 0 0 0 0.575 0 0 0 0 0.27419 0 0 0 0 0.0335417 0 0 0 0.1 0"/>
<feBlend mode="normal" in2="effect3_dropShadow" result="effect4_dropShadow"/>
<feBlend mode="normal" in="SourceGraphic" in2="effect4_dropShadow" result="shape"/>
<feColorMatrix in="SourceAlpha" type="matrix" values="0 0 0 0 0 0 0 0 0 0 0 0 0 0 0 0 0 0 127 0" result="hardAlpha"/>
<feOffset dx="-4" dy="4"/>
<feGaussianBlur stdDeviation="5"/>
<feComposite in2="hardAlpha" operator="arithmetic" k2="-1" k3="1"/>
<feColorMatrix type="matrix" values="0 0 0 0 1 0 0 0 0 0.931481 0 0 0 0 0.845833 0 0 0 1 0"/>
<feBlend mode="normal" in2="shape" result="effect5_innerShadow"/>
<feColorMatrix in="SourceAlpha" type="matrix" values="0 0 0 0 0 0 0 0 0 0 0 0 0 0 0 0 0 0 127 0" result="hardAlpha"/>
<feOffset dx="-3" dy="5"/>
<feGaussianBlur stdDeviation="5.5"/>
<feComposite in2="hardAlpha" operator="arithmetic" k2="-1" k3="1"/>
<feColorMatrix type="matrix" values="0 0 0 0 1 0 0 0 0 1 0 0 0 0 1 0 0 0 0.3 0"/>
<feBlend mode="normal" in2="effect5_innerShadow" result="effect6_innerShadow"/>
<feColorMatrix in="SourceAlpha" type="matrix" values="0 0 0 0 0 0 0 0 0 0 0 0 0 0 0 0 0 0 127 0" result="hardAlpha"/>
<feOffset dx="7" dy="-12"/>
<feGaussianBlur stdDeviation="1.5"/>
<feComposite in2="hardAlpha" operator="arithmetic" k2="-1" k3="1"/>
<feColorMatrix type="matrix" values="0 0 0 0 1 0 0 0 0 1 0 0 0 0 1 0 0 0 0.5 0"/>
<feBlend mode="normal" in2="effect6_innerShadow" result="effect7_innerShadow"/>
<feColorMatrix in="SourceAlpha" type="matrix" values="0 0 0 0 0 0 0 0 0 0 0 0 0 0 0 0 0 0 127 0" result="hardAlpha"/>
<feOffset dx="8" dy="-4"/>
<feGaussianBlur stdDeviation="1.5"/>
<feComposite in2="hardAlpha" operator="arithmetic" k2="-1" k3="1"/>
<feColorMatrix type="matrix" values="0 0 0 0 0.925 0 0 0 0 0.749421 0 0 0 0 0.608958 0 0 0 1 0"/>
<feBlend mode="normal" in2="effect7_innerShadow" result="effect8_innerShadow"/>
<feColorMatrix in="SourceAlpha" type="matrix" values="0 0 0 0 0 0 0 0 0 0 0 0 0 0 0 0 0 0 127 0" result="hardAlpha"/>
<feOffset dx="4" dy="-1"/>
<feGaussianBlur stdDeviation="2.5"/>
<feComposite in2="hardAlpha" operator="arithmetic" k2="-1" k3="1"/>
<feColorMatrix type="matrix" values="0 0 0 0 0 0 0 0 0 0 0 0 0 0 0 0 0 0 0.2 0"/>
<feBlend mode="normal" in2="effect8_innerShadow" result="effect9_innerShadow"/>
</filter>
<filter id="filter1_iif" x="114.338" y="93.6241" width="78.8771" height="46.5291" filterUnits="userSpaceOnUse" color-interpolation-filters="sRGB">
<feFlood flood-opacity="0" result="BackgroundImageFix"/>
<feBlend mode="normal" in="SourceGraphic" in2="BackgroundImageFix" result="shape"/>
<feColorMatrix in="SourceAlpha" type="matrix" values="0 0 0 0 0 0 0 0 0 0 0 0 0 0 0 0 0 0 127 0" result="hardAlpha"/>
<feOffset dy="2"/>
<feGaussianBlur stdDeviation="1"/>
<feComposite in2="hardAlpha" operator="arithmetic" k2="-1" k3="1"/>
<feColorMatrix type="matrix" values="0 0 0 0 1 0 0 0 0 0.921569 0 0 0 0 0.721569 0 0 0 1 0"/>
<feBlend mode="normal" in2="shape" result="effect1_innerShadow"/>
<feColorMatrix in="SourceAlpha" type="matrix" values="0 0 0 0 0 0 0 0 0 0 0 0 0 0 0 0 0 0 127 0" result="hardAlpha"/>
<feOffset dy="-2"/>
<feGaussianBlur stdDeviation="2.5"/>
<feComposite in2="hardAlpha" operator="arithmetic" k2="-1" k3="1"/>
<feColorMatrix type="matrix" values="0 0 0 0 0.756863 0 0 0 0 0.611765 0 0 0 0 0.494118 0 0 0 1 0"/>
<feBlend mode="normal" in2="effect1_innerShadow" result="effect2_innerShadow"/>
<feGaussianBlur stdDeviation="1" result="effect3_foregroundBlur"/>
</filter>
<linearGradient id="paint0_linear" x1="227.5" y1="32.3823" x2="115.25" y2="171.717" gradientUnits="userSpaceOnUse">
<stop stop-color="white"/>
<stop offset="1" stop-color="white" stop-opacity="0"/>
</linearGradient>
<linearGradient id="paint1_linear" x1="188.272" y1="90.0243" x2="84.4199" y2="53.2715" gradientUnits="userSpaceOnUse">
<stop stop-color="white"/>
<stop offset="1" stop-color="white" stop-opacity="0"/>
</linearGradient>
<radialGradient id="paint2_radial" cx="0" cy="0" r="1" gradientUnits="userSpaceOnUse" gradientTransform="translate(152.313 86.3219) rotate(-124.772) scale(144.329 280.672)">
<stop stop-color="#FFEDC0"/>
<stop offset="1" stop-color="white" stop-opacity="0"/>
</radialGradient>
<radialGradient id="paint3_radial" cx="0" cy="0" r="1" gradientUnits="userSpaceOnUse" gradientTransform="translate(125.831 51.0381) rotate(-123.008) scale(52.7376 102.557)">
<stop stop-color="#FFAE11" stop-opacity="0.03"/>
<stop offset="1" stop-color="white" stop-opacity="0"/>
</radialGradient>
<linearGradient id="paint4_linear" x1="123.5" y1="115.5" x2="185.088" y2="109.986" gradientUnits="userSpaceOnUse">
<stop stop-color="#D9AF8E"/>
<stop offset="0.046875" stop-color="#FFEDC2"/>
<stop offset="0.0989583" stop-color="#D9AF8E"/>
<stop offset="0.182292" stop-color="#FFEDC0"/>
<stop offset="0.244792" stop-color="#D9AF8E"/>
<stop offset="0.317708" stop-color="#FFEDC0"/>
<stop offset="0.390625" stop-color="#D9AF8E"/>
<stop offset="0.46875" stop-color="#FFEDC0"/>
<stop offset="0.541667" stop-color="#D9AF8E"/>
<stop offset="0.609375" stop-color="#FFEDC0"/>
<stop offset="0.666667" stop-color="#D9AF8E"/>
<stop offset="0.739583" stop-color="#FFEDC0"/>
<stop offset="0.828125" stop-color="#D9AF8E"/>
<stop offset="0.911458" stop-color="#FFEDC0"/>
<stop offset="1" stop-color="#D9AF8E"/>
</linearGradient>
</defs>
</svg>
