<svg width="242" height="267" viewBox="0 0 242 267" fill="none" xmlns="http://www.w3.org/2000/svg">
<g opacity="0.3">
<path d="M157.401 23.6522C202.445 57.9396 254.538 146.49 186 187C117.462 227.51 104.364 245.402 59.3198 211.115C14.2757 176.827 13.4122 155.028 47.616 110.094C81.8197 65.1595 112.357 -10.6353 157.401 23.6522Z" fill="#C5A255" fill-opacity="0.38"/>
<path d="M157.401 23.6522C202.445 57.9396 254.538 146.49 186 187C117.462 227.51 104.364 245.402 59.3198 211.115C14.2757 176.827 13.4122 155.028 47.616 110.094C81.8197 65.1595 112.357 -10.6353 157.401 23.6522Z" fill="url(#paint0_linear)" fill-opacity="0.3"/>
</g>
<g filter="url(#filter0_ddddiiiii)">
<path d="M156.061 173.233L165.099 172.429C166.945 172.265 168.437 170.854 168.703 169.019L181.796 78.8044C182.095 76.747 180.768 74.8038 178.742 74.3335L157.825 69.4765C157.511 69.4035 157.189 69.3688 156.866 69.3732L132.146 69.7086C131.733 69.7142 131.322 69.6559 130.927 69.5358L110.429 63.2988C110.16 63.2168 109.882 63.1634 109.602 63.1397L89.2107 61.4166C87.055 61.2344 85.1452 62.7991 84.8997 64.9485L82.5224 85.7622L77.6601 106.951C77.6041 107.195 77.5711 107.444 77.5616 107.694L76.82 127.228L72.3033 152.307C71.804 155.079 74.2498 157.485 77.0133 156.941L85.8999 155.189C87.2058 154.932 88.5541 155.341 89.4969 156.281L91.421 158.198C92.7515 159.524 94.8254 159.746 96.4059 158.731L97.1854 158.23C99.1209 156.988 101.703 157.629 102.832 159.633L103.028 159.982C104.034 161.768 106.227 162.504 108.107 161.688L112.151 159.931C113.597 159.303 115.276 159.582 116.441 160.645L121.199 164.986C122.213 165.911 123.63 166.251 124.954 165.888L128.926 164.797C130.234 164.438 131.636 164.767 132.648 165.67L136.955 169.513C137.967 170.416 139.369 170.745 140.677 170.386L146.549 168.774C147.888 168.406 149.322 168.759 150.338 169.707L152.977 172.172C153.808 172.948 154.929 173.334 156.061 173.233Z" fill="#FFE7BD"/>
<path d="M156.061 173.233L165.099 172.429C166.945 172.265 168.437 170.854 168.703 169.019L181.796 78.8044C182.095 76.747 180.768 74.8038 178.742 74.3335L157.825 69.4765C157.511 69.4035 157.189 69.3688 156.866 69.3732L132.146 69.7086C131.733 69.7142 131.322 69.6559 130.927 69.5358L110.429 63.2988C110.16 63.2168 109.882 63.1634 109.602 63.1397L89.2107 61.4166C87.055 61.2344 85.1452 62.7991 84.8997 64.9485L82.5224 85.7622L77.6601 106.951C77.6041 107.195 77.5711 107.444 77.5616 107.694L76.82 127.228L72.3033 152.307C71.804 155.079 74.2498 157.485 77.0133 156.941L85.8999 155.189C87.2058 154.932 88.5541 155.341 89.4969 156.281L91.421 158.198C92.7515 159.524 94.8254 159.746 96.4059 158.731L97.1854 158.23C99.1209 156.988 101.703 157.629 102.832 159.633L103.028 159.982C104.034 161.768 106.227 162.504 108.107 161.688L112.151 159.931C113.597 159.303 115.276 159.582 116.441 160.645L121.199 164.986C122.213 165.911 123.63 166.251 124.954 165.888L128.926 164.797C130.234 164.438 131.636 164.767 132.648 165.67L136.955 169.513C137.967 170.416 139.369 170.745 140.677 170.386L146.549 168.774C147.888 168.406 149.322 168.759 150.338 169.707L152.977 172.172C153.808 172.948 154.929 173.334 156.061 173.233Z" fill="url(#paint1_linear)"/>
<path d="M156.061 173.233L165.099 172.429C166.945 172.265 168.437 170.854 168.703 169.019L181.796 78.8044C182.095 76.747 180.768 74.8038 178.742 74.3335L157.825 69.4765C157.511 69.4035 157.189 69.3688 156.866 69.3732L132.146 69.7086C131.733 69.7142 131.322 69.6559 130.927 69.5358L110.429 63.2988C110.16 63.2168 109.882 63.1634 109.602 63.1397L89.2107 61.4166C87.055 61.2344 85.1452 62.7991 84.8997 64.9485L82.5224 85.7622L77.6601 106.951C77.6041 107.195 77.5711 107.444 77.5616 107.694L76.82 127.228L72.3033 152.307C71.804 155.079 74.2498 157.485 77.0133 156.941L85.8999 155.189C87.2058 154.932 88.5541 155.341 89.4969 156.281L91.421 158.198C92.7515 159.524 94.8254 159.746 96.4059 158.731L97.1854 158.23C99.1209 156.988 101.703 157.629 102.832 159.633L103.028 159.982C104.034 161.768 106.227 162.504 108.107 161.688L112.151 159.931C113.597 159.303 115.276 159.582 116.441 160.645L121.199 164.986C122.213 165.911 123.63 166.251 124.954 165.888L128.926 164.797C130.234 164.438 131.636 164.767 132.648 165.67L136.955 169.513C137.967 170.416 139.369 170.745 140.677 170.386L146.549 168.774C147.888 168.406 149.322 168.759 150.338 169.707L152.977 172.172C153.808 172.948 154.929 173.334 156.061 173.233Z" fill="url(#paint2_radial)"/>
<path d="M156.061 173.233L165.099 172.429C166.945 172.265 168.437 170.854 168.703 169.019L181.796 78.8044C182.095 76.747 180.768 74.8038 178.742 74.3335L157.825 69.4765C157.511 69.4035 157.189 69.3688 156.866 69.3732L132.146 69.7086C131.733 69.7142 131.322 69.6559 130.927 69.5358L110.429 63.2988C110.16 63.2168 109.882 63.1634 109.602 63.1397L89.2107 61.4166C87.055 61.2344 85.1452 62.7991 84.8997 64.9485L82.5224 85.7622L77.6601 106.951C77.6041 107.195 77.5711 107.444 77.5616 107.694L76.82 127.228L72.3033 152.307C71.804 155.079 74.2498 157.485 77.0133 156.941L85.8999 155.189C87.2058 154.932 88.5541 155.341 89.4969 156.281L91.421 158.198C92.7515 159.524 94.8254 159.746 96.4059 158.731L97.1854 158.23C99.1209 156.988 101.703 157.629 102.832 159.633L103.028 159.982C104.034 161.768 106.227 162.504 108.107 161.688L112.151 159.931C113.597 159.303 115.276 159.582 116.441 160.645L121.199 164.986C122.213 165.911 123.63 166.251 124.954 165.888L128.926 164.797C130.234 164.438 131.636 164.767 132.648 165.67L136.955 169.513C137.967 170.416 139.369 170.745 140.677 170.386L146.549 168.774C147.888 168.406 149.322 168.759 150.338 169.707L152.977 172.172C153.808 172.948 154.929 173.334 156.061 173.233Z" fill="url(#paint3_radial)"/>
</g>
<defs>
<filter id="filter0_ddddiiiii" x="29.8275" y="44.839" width="166.802" height="165.211" filterUnits="userSpaceOnUse" color-interpolation-filters="sRGB">
<feFlood flood-opacity="0" result="BackgroundImageFix"/>
<feColorMatrix in="SourceAlpha" type="matrix" values="0 0 0 0 0 0 0 0 0 0 0 0 0 0 0 0 0 0 127 0"/>
<feOffset dx="-23" dy="18"/>
<feGaussianBlur stdDeviation="8.5"/>
<feColorMatrix type="matrix" values="0 0 0 0 0.114236 0 0 0 0 0.291792 0 0 0 0 0.391667 0 0 0 0.3 0"/>
<feBlend mode="normal" in2="BackgroundImageFix" result="effect1_dropShadow"/>
<feColorMatrix in="SourceAlpha" type="matrix" values="0 0 0 0 0 0 0 0 0 0 0 0 0 0 0 0 0 0 127 0"/>
<feOffset dx="-20" dy="20"/>
<feGaussianBlur stdDeviation="4"/>
<feColorMatrix type="matrix" values="0 0 0 0 0.654167 0 0 0 0 0.323922 0 0 0 0 0.0190799 0 0 0 0.21 0"/>
<feBlend mode="normal" in2="effect1_dropShadow" result="effect2_dropShadow"/>
<feColorMatrix in="SourceAlpha" type="matrix" values="0 0 0 0 0 0 0 0 0 0 0 0 0 0 0 0 0 0 127 0"/>
<feOffset/>
<feGaussianBlur stdDeviation="7"/>
<feColorMatrix type="matrix" values="0 0 0 0 0.666667 0 0 0 0 0.352941 0 0 0 0 0.101961 0 0 0 0.2 0"/>
<feBlend mode="normal" in2="effect2_dropShadow" result="effect3_dropShadow"/>
<feColorMatrix in="SourceAlpha" type="matrix" values="0 0 0 0 0 0 0 0 0 0 0 0 0 0 0 0 0 0 127 0"/>
<feOffset dx="6" dy="23"/>
<feGaussianBlur stdDeviation="3.5"/>
<feColorMatrix type="matrix" values="0 0 0 0 0.575 0 0 0 0 0.27419 0 0 0 0 0.0335417 0 0 0 0.1 0"/>
<feBlend mode="normal" in2="effect3_dropShadow" result="effect4_dropShadow"/>
<feBlend mode="normal" in="SourceGraphic" in2="effect4_dropShadow" result="shape"/>
<feColorMatrix in="SourceAlpha" type="matrix" values="0 0 0 0 0 0 0 0 0 0 0 0 0 0 0 0 0 0 127 0" result="hardAlpha"/>
<feOffset dx="-4" dy="4"/>
<feGaussianBlur stdDeviation="5"/>
<feComposite in2="hardAlpha" operator="arithmetic" k2="-1" k3="1"/>
<feColorMatrix type="matrix" values="0 0 0 0 1 0 0 0 0 0.931481 0 0 0 0 0.845833 0 0 0 1 0"/>
<feBlend mode="normal" in2="shape" result="effect5_innerShadow"/>
<feColorMatrix in="SourceAlpha" type="matrix" values="0 0 0 0 0 0 0 0 0 0 0 0 0 0 0 0 0 0 127 0" result="hardAlpha"/>
<feOffset dx="-3" dy="5"/>
<feGaussianBlur stdDeviation="5.5"/>
<feComposite in2="hardAlpha" operator="arithmetic" k2="-1" k3="1"/>
<feColorMatrix type="matrix" values="0 0 0 0 1 0 0 0 0 1 0 0 0 0 1 0 0 0 0.2 0"/>
<feBlend mode="normal" in2="effect5_innerShadow" result="effect6_innerShadow"/>
<feColorMatrix in="SourceAlpha" type="matrix" values="0 0 0 0 0 0 0 0 0 0 0 0 0 0 0 0 0 0 127 0" result="hardAlpha"/>
<feOffset dx="2" dy="-6"/>
<feGaussianBlur stdDeviation="1.5"/>
<feComposite in2="hardAlpha" operator="arithmetic" k2="-1" k3="1"/>
<feColorMatrix type="matrix" values="0 0 0 0 1 0 0 0 0 1 0 0 0 0 1 0 0 0 0.4 0"/>
<feBlend mode="normal" in2="effect6_innerShadow" result="effect7_innerShadow"/>
<feColorMatrix in="SourceAlpha" type="matrix" values="0 0 0 0 0 0 0 0 0 0 0 0 0 0 0 0 0 0 127 0" result="hardAlpha"/>
<feOffset dx="8" dy="-4"/>
<feGaussianBlur stdDeviation="1.5"/>
<feComposite in2="hardAlpha" operator="arithmetic" k2="-1" k3="1"/>
<feColorMatrix type="matrix" values="0 0 0 0 0.925 0 0 0 0 0.749421 0 0 0 0 0.608958 0 0 0 1 0"/>
<feBlend mode="normal" in2="effect7_innerShadow" result="effect8_innerShadow"/>
<feColorMatrix in="SourceAlpha" type="matrix" values="0 0 0 0 0 0 0 0 0 0 0 0 0 0 0 0 0 0 127 0" result="hardAlpha"/>
<feOffset dx="4" dy="-1"/>
<feGaussianBlur stdDeviation="2.5"/>
<feComposite in2="hardAlpha" operator="arithmetic" k2="-1" k3="1"/>
<feColorMatrix type="matrix" values="0 0 0 0 0 0 0 0 0 0 0 0 0 0 0 0 0 0 0.2 0"/>
<feBlend mode="normal" in2="effect8_innerShadow" result="effect9_innerShadow"/>
</filter>
<linearGradient id="paint0_linear" x1="131.846" y1="7.61118" x2="164.715" y2="176.041" gradientUnits="userSpaceOnUse">
<stop stop-color="white"/>
<stop offset="1" stop-color="white" stop-opacity="0"/>
</linearGradient>
<linearGradient id="paint1_linear" x1="156.397" y1="160.318" x2="99.4043" y2="66.0429" gradientUnits="userSpaceOnUse">
<stop stop-color="white"/>
<stop offset="1" stop-color="white" stop-opacity="0"/>
</linearGradient>
<radialGradient id="paint2_radial" cx="0" cy="0" r="1" gradientUnits="userSpaceOnUse" gradientTransform="translate(130.941 134.652) rotate(-85.4192) scale(96.7988 188.241)">
<stop stop-color="#FFEFC6"/>
<stop offset="1" stop-color="white" stop-opacity="0"/>
</radialGradient>
<radialGradient id="paint3_radial" cx="0" cy="0" r="1" gradientUnits="userSpaceOnUse" gradientTransform="translate(132.84 90.5769) rotate(-83.6512) scale(52.7376 102.557)">
<stop stop-color="#FFAE11" stop-opacity="0.03"/>
<stop offset="1" stop-color="white" stop-opacity="0"/>
</radialGradient>
</defs>
</svg>
