<svg width="126" height="293" viewBox="0 0 126 293" fill="none" xmlns="http://www.w3.org/2000/svg">
<path d="M36 -51V270H89V-51H36Z" stroke="#A2724E" stroke-width="3"/>
<path d="M0.26168 148.43C0.117158 145.673 2.23551 143.32 4.99315 143.176L117.838 137.262C120.596 137.117 122.949 139.236 123.093 141.993L124.925 176.945C125.069 179.703 122.951 182.055 120.193 182.2L7.34827 188.114C4.59063 188.258 2.23796 186.14 2.09344 183.382L0.26168 148.43Z" fill="#482307"/>
<path d="M31.5584 172.902C31.6202 173.011 31.6545 173.131 31.6614 173.261C31.6682 173.392 31.6098 173.526 31.4861 173.663C31.3802 173.781 31.2433 173.844 31.0755 173.853L25.3434 174.153C24.7655 174.183 24.3515 173.953 24.1015 173.461L21.4169 168.246L20.2704 168.307L20.5503 173.647C20.5611 173.852 20.4958 174.033 20.3545 174.19C20.2132 174.347 20.04 174.431 19.8349 174.442L14.3545 174.729C14.1494 174.74 13.9684 174.674 13.8115 174.533C13.6545 174.392 13.5707 174.219 13.5599 174.014L12.6133 155.95C12.6025 155.745 12.6678 155.564 12.8091 155.407C12.9504 155.25 13.1236 155.167 13.3287 155.156L21.6053 154.722C24.2896 154.581 26.4185 155.077 27.9919 156.21C29.5644 157.324 30.4097 159.008 30.5279 161.264C30.6452 163.501 29.7309 165.315 27.785 166.707L31.5584 172.902ZM19.8367 160.03L19.992 162.994L22.0332 162.887C22.4433 162.865 22.7534 162.718 22.9634 162.446C23.1724 162.154 23.2662 161.803 23.2447 161.393C23.2232 160.983 23.0928 160.635 22.8535 160.348C22.6318 160.042 22.3066 159.9 21.8779 159.923L19.8367 160.03ZM40.7773 167.877L49.3895 167.425C49.5945 167.415 49.7755 167.48 49.9325 167.621C50.0894 167.763 50.1733 167.936 50.184 168.141L50.3906 172.083C50.4014 172.288 50.3361 172.469 50.1948 172.626C50.0535 172.783 49.8803 172.867 49.6752 172.878L35.1072 173.641C34.9022 173.652 34.7212 173.587 34.5642 173.445C34.4073 173.304 34.3234 173.131 34.3127 172.926L33.366 154.863C33.3553 154.658 33.4206 154.477 33.5619 154.32C33.7032 154.163 33.8764 154.079 34.0814 154.068L48.4258 153.316C48.6308 153.306 48.8118 153.371 48.9688 153.512C49.1257 153.654 49.2095 153.827 49.2203 154.032L49.4269 157.974C49.4377 158.179 49.3724 158.36 49.2311 158.517C49.0897 158.674 48.9166 158.758 48.7115 158.769L40.323 159.209L40.4153 160.97L48.1887 160.563C48.3937 160.552 48.5747 160.617 48.7317 160.759C48.8886 160.9 48.9725 161.073 48.9832 161.278L49.1737 164.913C49.1845 165.118 49.1192 165.299 48.9779 165.456C48.8365 165.613 48.6634 165.697 48.4583 165.708L40.685 166.115L40.7773 167.877ZM58.8921 152.768L64.9598 152.45C65.6309 152.415 66.0664 152.7 66.2664 153.307L73.4368 170.819C73.4584 170.874 73.4726 170.967 73.4794 171.098C73.4853 171.209 73.4264 171.334 73.3028 171.471C73.1968 171.589 73.0599 171.652 72.8921 171.661L67.7192 171.932C67.16 171.962 66.7843 171.748 66.5921 171.29L65.8243 169.48L59.8125 169.795L59.2382 171.676C59.0948 172.151 58.7435 172.403 58.1843 172.432L53.0114 172.703C52.8436 172.712 52.6916 172.664 52.5552 172.559C52.4365 172.434 52.3743 172.316 52.3684 172.204C52.3616 172.073 52.366 171.98 52.3817 171.923L57.6822 153.757C57.8178 153.133 58.2211 152.803 58.8921 152.768ZM60.9528 164.268L64.1125 164.102L62.2461 158.985L60.9528 164.268ZM81.8234 159.024L82.0696 163.722C82.1487 165.232 82.878 165.951 84.2574 165.878C85.32 165.823 85.9926 165.283 86.2754 164.259C86.352 163.937 86.4526 163.717 86.5773 163.598C86.7205 163.478 86.9506 163.41 87.2675 163.393L92.9717 163.094C93.1394 163.086 93.2827 163.144 93.4014 163.268C93.5377 163.373 93.6103 163.51 93.6191 163.677C93.7041 165.299 93.3094 166.684 92.4349 167.833C90.8274 169.973 88.2062 171.139 84.5711 171.329C81.7191 171.479 79.4121 170.974 77.6503 169.814C75.8876 168.635 74.9378 166.741 74.801 164.131L74.5519 159.377C74.4181 156.824 75.1842 154.858 76.8505 153.481C78.5167 152.104 80.7385 151.343 83.5161 151.197C87.1511 151.007 89.8798 151.892 91.7022 153.852C92.6919 154.903 93.2293 156.24 93.3143 157.861C93.3231 158.029 93.2656 158.182 93.142 158.319C93.036 158.437 92.8991 158.5 92.7313 158.509L87.0272 158.808C86.7289 158.823 86.5023 158.779 86.3473 158.675C86.211 158.57 86.0786 158.362 85.9501 158.051C85.5432 157.063 84.8177 156.596 83.7738 156.651C82.3944 156.723 81.7442 157.514 81.8234 159.024ZM95.3884 150.855L111.774 149.997C111.979 149.986 112.16 150.051 112.317 150.192C112.474 150.334 112.558 150.507 112.568 150.712L112.804 155.214C112.815 155.419 112.75 155.6 112.609 155.757C112.467 155.914 112.294 155.998 112.089 156.008L107.447 156.252L108.119 169.058C108.129 169.263 108.064 169.444 107.923 169.601C107.781 169.758 107.608 169.842 107.403 169.852L101.811 170.146C101.606 170.156 101.425 170.091 101.268 169.95C101.111 169.808 101.027 169.635 101.016 169.43L100.345 156.624L95.7035 156.867C95.4984 156.878 95.3174 156.812 95.1605 156.671C95.0035 156.53 94.9197 156.357 94.9089 156.152L94.673 151.65C94.6623 151.445 94.7275 151.264 94.8689 151.107C95.0102 150.95 95.1833 150.866 95.3884 150.855Z" fill="white"/>
<path d="M21.7527 198.872C21.858 196.113 24.1804 193.961 26.9398 194.066L99.8867 196.85C102.646 196.956 104.798 199.278 104.692 202.037L103.434 235.013C103.329 237.773 101.006 239.924 98.2468 239.819L25.2999 237.035C22.5405 236.93 20.3889 234.607 20.4942 231.848L21.7527 198.872Z" fill="#E15549"/>
<path d="M45.6031 206.187L51.0871 206.396C51.2923 206.404 51.4667 206.485 51.6102 206.64C51.7537 206.795 51.8216 206.975 51.8137 207.181L51.1239 225.255C51.1161 225.461 51.0347 225.635 50.8798 225.778C50.7249 225.922 50.5448 225.99 50.3396 225.982L44.8556 225.773C44.6505 225.765 44.4761 225.683 44.3326 225.529C44.189 225.374 44.1212 225.194 44.129 224.988L44.3597 218.945L39.827 218.772L39.5963 224.815C39.5885 225.021 39.5071 225.195 39.3522 225.338C39.1973 225.482 39.0172 225.55 38.812 225.542L33.328 225.333C33.1228 225.325 32.9481 225.253 32.8039 225.117C32.6604 224.962 32.5929 224.772 32.6014 224.548L33.2912 206.474C33.2991 206.268 33.3804 206.094 33.5354 205.951C33.6903 205.807 33.8703 205.739 34.0755 205.747L39.5595 205.956C39.7647 205.964 39.9391 206.045 40.0826 206.2C40.2261 206.355 40.294 206.535 40.2861 206.741L40.0619 212.616L44.5946 212.789L44.8188 206.914C44.8267 206.708 44.908 206.534 45.063 206.39C45.2179 206.247 45.3979 206.179 45.6031 206.187ZM57.3979 208.43C59.1667 207.116 61.4594 206.512 64.276 206.619C67.0926 206.727 69.3229 207.512 70.967 208.976C72.6304 210.422 73.414 212.404 73.3179 214.922L73.1513 219.287C73.0538 221.843 72.1307 223.759 70.382 225.038C68.6527 226.298 66.3611 226.874 63.5072 226.765C60.6532 226.656 58.4028 225.907 56.7559 224.518C55.1284 223.111 54.3634 221.129 54.461 218.574L54.6275 214.209C54.7244 211.672 55.6478 209.746 57.3979 208.43ZM62.2258 220.691C62.5847 221.079 63.0812 221.284 63.7154 221.309C64.3496 221.333 64.8603 221.166 65.2476 220.807C65.6349 220.448 65.8432 219.886 65.8724 219.121L66.0518 214.421C66.0802 213.675 65.9151 213.108 65.5562 212.721C65.1981 212.315 64.702 212.1 64.0678 212.075C63.4336 212.051 62.9225 212.228 62.5344 212.605C62.1471 212.964 61.9393 213.517 61.9108 214.263L61.7314 218.963C61.7022 219.728 61.867 220.304 62.2258 220.691ZM76.4592 207.365L92.8553 207.99C93.0604 207.998 93.2348 208.08 93.3783 208.234C93.5219 208.389 93.5897 208.569 93.5819 208.775L93.41 213.279C93.4021 213.484 93.3207 213.659 93.1658 213.802C93.0109 213.946 92.8309 214.014 92.6257 214.006L87.9811 213.829L87.492 226.643C87.4842 226.849 87.4028 227.023 87.2479 227.166C87.0929 227.31 86.9129 227.378 86.7077 227.37L81.1118 227.156C80.9066 227.149 80.7322 227.067 80.5887 226.912C80.4452 226.757 80.3773 226.577 80.3852 226.372L80.8742 213.557L76.2296 213.38C76.0244 213.372 75.8501 213.291 75.7065 213.136C75.563 212.981 75.4952 212.801 75.503 212.596L75.6749 208.091C75.6827 207.886 75.7641 207.712 75.919 207.568C76.074 207.425 76.254 207.357 76.4592 207.365Z" fill="white"/>
<path d="M0.797223 252.656C0.749029 249.895 2.9482 247.617 5.7092 247.569L118.692 245.597C121.453 245.549 123.73 247.748 123.778 250.509L124.389 285.504C124.438 288.265 122.238 290.542 119.477 290.59L6.49456 292.562C3.73356 292.61 1.45625 290.411 1.40806 287.65L0.797223 252.656Z" fill="#482307"/>
<path d="M12.7237 259.849L29.1292 259.562C29.3345 259.559 29.5131 259.63 29.6651 259.777C29.817 259.924 29.8947 260.1 29.8983 260.305L29.977 264.812C29.9806 265.017 29.909 265.196 29.7623 265.348C29.6156 265.5 29.4396 265.578 29.2343 265.581L24.587 265.662L24.8108 278.484C24.8144 278.69 24.7428 278.868 24.5961 279.02C24.4494 279.172 24.2734 279.25 24.0681 279.254L18.469 279.351C18.2637 279.355 18.0851 279.283 17.9331 279.137C17.7812 278.99 17.7035 278.814 17.6999 278.609L17.4761 265.787L12.8288 265.868C12.6235 265.871 12.4449 265.8 12.293 265.653C12.141 265.506 12.0633 265.33 12.0597 265.125L11.981 260.618C11.9774 260.412 12.049 260.234 12.1957 260.082C12.3424 259.93 12.5184 259.852 12.7237 259.849ZM34.5691 261.26C36.2621 259.848 38.5177 259.118 41.3359 259.069C44.1542 259.02 46.4247 259.68 48.1476 261.051C49.8887 262.402 50.7813 264.337 50.8253 266.857L50.9015 271.224C50.9462 273.781 50.131 275.746 48.4561 277.12C46.7994 278.474 44.5433 279.176 41.6878 279.226C38.8322 279.276 36.5437 278.653 34.8221 277.358C33.1189 276.043 32.245 274.107 32.2004 271.55L32.1241 267.183C32.0798 264.645 32.8948 262.67 34.5691 261.26ZM40.071 273.233C40.4507 273.6 40.9579 273.778 41.5925 273.767C42.2271 273.756 42.7277 273.56 43.0945 273.181C43.4613 272.801 43.638 272.228 43.6246 271.463L43.5425 266.76C43.5295 266.013 43.3331 265.457 42.9533 265.09C42.5731 264.704 42.0658 264.517 41.4312 264.528C40.7967 264.539 40.2962 264.744 39.9297 265.143C39.563 265.522 39.3861 266.086 39.3991 266.832L39.4812 271.535C39.4946 272.301 39.6912 272.867 40.071 273.233ZM59.8968 259.025L65.9718 258.919C66.6437 258.907 67.069 259.208 67.2478 259.821L73.8026 277.573C73.8222 277.629 73.8332 277.722 73.8355 277.853C73.8374 277.965 73.7742 278.087 73.6458 278.22C73.5358 278.334 73.3968 278.392 73.2288 278.395L68.0496 278.486C67.4897 278.496 67.1217 278.269 66.9456 277.805L66.2414 275.969L60.2223 276.074L59.5827 277.934C59.4229 278.403 59.063 278.643 58.5031 278.652L53.3239 278.743C53.1559 278.746 53.0056 278.692 52.873 278.583C52.7587 278.454 52.7006 278.334 52.6987 278.222C52.6964 278.091 52.7041 277.998 52.7218 277.941L58.6531 259.971C58.8103 259.352 59.2249 259.037 59.8968 259.025ZM61.5548 270.59L64.7184 270.535L63.0317 265.355L61.5548 270.59ZM75.3503 264.916C75.3171 263.013 76.0739 261.45 77.6208 260.228C79.1864 259.006 81.2477 258.372 83.8046 258.328C86.3802 258.283 88.4908 258.871 90.1364 260.094C91.8006 261.315 92.6446 262.607 92.6684 263.97C92.6713 264.138 92.6086 264.288 92.4803 264.421C92.3702 264.535 92.2406 264.594 92.0913 264.596L86.4921 264.694C86.0628 264.701 85.6681 264.55 85.308 264.238C84.9478 263.927 84.4691 263.777 83.8719 263.787C82.976 263.803 82.5327 264.072 82.5418 264.595C82.5467 264.875 82.7654 265.104 83.1979 265.283C83.6491 265.462 84.4732 265.616 85.6703 265.744C88.4574 266.05 90.4472 266.669 91.6396 267.6C92.8504 268.513 93.4726 269.93 93.5061 271.853C93.5393 273.756 92.6893 275.33 90.9561 276.574C89.2412 277.799 86.9747 278.436 84.1564 278.485C81.3382 278.534 79.1164 277.994 77.4912 276.865C75.8659 275.736 75.0387 274.341 75.0097 272.679C75.0068 272.511 75.0603 272.371 75.1704 272.257C75.2987 272.124 75.4469 272.056 75.6149 272.053L80.9341 271.96C81.326 271.953 81.7585 272.132 82.2317 272.497C82.7234 272.862 83.3893 273.037 84.2291 273.023C85.6289 272.998 86.3242 272.725 86.3151 272.202C86.3093 271.866 86.0529 271.619 85.546 271.459C85.0389 271.282 84.0837 271.112 82.6807 270.949C77.8544 270.399 75.4109 268.388 75.3503 264.916ZM95.6994 258.4L112.105 258.114C112.31 258.11 112.489 258.182 112.641 258.329C112.793 258.475 112.87 258.651 112.874 258.857L112.953 263.364C112.956 263.569 112.885 263.748 112.738 263.9C112.591 264.052 112.415 264.129 112.21 264.133L107.563 264.214L107.786 277.036C107.79 277.241 107.718 277.42 107.572 277.572C107.425 277.724 107.249 277.802 107.044 277.805L101.445 277.903C101.239 277.906 101.061 277.835 100.909 277.688C100.757 277.542 100.679 277.366 100.676 277.16L100.452 264.338L95.8044 264.419C95.5991 264.423 95.4205 264.351 95.2686 264.205C95.1167 264.058 95.0389 263.882 95.0353 263.677L94.9567 259.169C94.9531 258.964 95.0246 258.785 95.1713 258.633C95.3181 258.482 95.4941 258.404 95.6994 258.4Z" fill="white"/>
</svg>
