<svg width="75" height="32" viewBox="0 0 75 32" fill="none" xmlns="http://www.w3.org/2000/svg">
<path d="M0.647043 5.55561C0.522821 3.77915 1.86222 2.23835 3.63868 2.11413L24.0377 0.687689C25.8141 0.563467 27.3549 1.90287 27.4792 3.67932L29.034 25.9148C29.1582 27.6912 27.8188 29.232 26.0424 29.3563L5.64338 30.7827C3.86692 30.9069 2.32612 29.5675 2.2019 27.7911L0.647043 5.55561Z" fill="#482307"/>
<path d="M21.3142 20.8451C21.3553 20.9146 21.3787 20.9914 21.3846 21.0755C21.3905 21.1595 21.3543 21.2465 21.2762 21.3365C21.2091 21.4136 21.1216 21.4559 21.0135 21.4634L17.3209 21.7217C16.9487 21.7477 16.6791 21.6036 16.5124 21.2895L14.7227 17.9574L13.9842 18.009L14.2247 21.4494C14.234 21.5815 14.1939 21.699 14.1046 21.8018C14.0152 21.9045 13.9045 21.9605 13.7724 21.9698L10.2419 22.2167C10.1098 22.2259 9.99239 22.1858 9.8896 22.0965C9.78682 22.0071 9.7308 21.8964 9.72157 21.7643L8.90788 10.1281C8.89865 9.99602 8.9387 9.87858 9.02805 9.77579C9.1174 9.67301 9.22813 9.617 9.36022 9.60776L14.692 9.23493C16.4212 9.11401 17.7994 9.40981 18.8267 10.1223C19.8531 10.8229 20.4172 11.8997 20.5188 13.3527C20.6195 14.7937 20.0504 15.9738 18.8115 16.8931L21.3142 20.8451ZM13.6113 12.6772L13.7449 14.5866L15.0598 14.4946C15.324 14.4762 15.5222 14.3778 15.6546 14.1996C15.7861 14.0094 15.8426 13.7822 15.8241 13.5181C15.8057 13.2539 15.7176 13.0307 15.5601 12.8487C15.4137 12.6538 15.2025 12.566 14.9263 12.5853L13.6113 12.6772Z" fill="white"/>
<path d="M24.8114 3.75458C24.9356 1.97813 26.4764 0.638727 28.2529 0.762948L49.6494 2.25914C51.4259 2.38336 52.7653 3.92417 52.6411 5.70062L51.0862 27.9361C50.962 29.7125 49.4212 31.0519 47.6447 30.9277L26.2482 29.4315C24.4717 29.3073 23.1323 27.7665 23.2565 25.99L24.8114 3.75458Z" fill="#E15549"/>
<path d="M40.3473 9.50236L43.8778 9.74924C44.0099 9.75847 44.1206 9.81449 44.21 9.91727C44.2993 10.0201 44.3394 10.1375 44.3301 10.2696L43.5165 21.9058C43.5072 22.0379 43.4512 22.1486 43.3484 22.238C43.2456 22.3273 43.1282 22.3674 42.9961 22.3581L39.4656 22.1113C39.3335 22.102 39.2228 22.046 39.1334 21.9432C39.0441 21.8404 39.004 21.723 39.0133 21.5909L39.2853 17.7002L36.3673 17.4961L36.0952 21.3869C36.086 21.519 36.03 21.6297 35.9272 21.719C35.8244 21.8084 35.707 21.8484 35.5749 21.8392L32.0444 21.5923C31.9123 21.5831 31.8011 21.5331 31.7109 21.4423C31.6216 21.3395 31.582 21.2161 31.592 21.072L32.4057 9.43575C32.415 9.30366 32.471 9.19294 32.5738 9.10359C32.6765 9.01424 32.794 8.97418 32.9261 8.98342L36.4566 9.23029C36.5887 9.23953 36.6994 9.29554 36.7887 9.39833C36.8781 9.50111 36.9181 9.61855 36.9089 9.75065L36.6444 13.5333L39.5625 13.7374L39.827 9.9547C39.8362 9.8226 39.8922 9.71188 39.995 9.62253C40.0978 9.53318 40.2152 9.49312 40.3473 9.50236Z" fill="white"/>
<path d="M47.2541 5.53229C47.1299 3.75584 48.4693 2.21503 50.2457 2.09081L69.6472 0.73413C71.4236 0.609908 72.9644 1.94931 73.0887 3.72576L74.6435 25.9612C74.7677 27.7377 73.4283 29.2785 71.6519 29.4027L52.2504 30.7594C50.474 30.8836 48.9332 29.5442 48.809 27.7678L47.2541 5.53229Z" fill="#482307"/>
<path d="M55.2162 9.63696L65.7717 8.89885C65.9038 8.88961 66.0212 8.92967 66.124 9.01902C66.2268 9.10837 66.2828 9.21909 66.292 9.35119L66.4948 12.2512C66.5041 12.3833 66.464 12.5008 66.3747 12.6036C66.2853 12.7063 66.1746 12.7623 66.0425 12.7716L63.0524 12.9807L63.6293 21.2305C63.6385 21.3626 63.5985 21.48 63.5091 21.5828C63.4198 21.6856 63.309 21.7416 63.1769 21.7509L59.5744 22.0028C59.4423 22.012 59.3249 21.9719 59.2221 21.8826C59.1193 21.7932 59.0633 21.6825 59.054 21.5504L58.4772 13.3006L55.4871 13.5097C55.355 13.5189 55.2375 13.4789 55.1347 13.3895C55.0319 13.3002 54.9759 13.1895 54.9667 13.0574L54.7639 10.1573C54.7547 10.0252 54.7947 9.90778 54.8841 9.80499C54.9734 9.70221 55.0842 9.6462 55.2162 9.63696Z" fill="white"/>
</svg>
