<svg width="838" height="370" viewBox="0 0 838 370" fill="none" xmlns="http://www.w3.org/2000/svg">
<g id="header">
<g clip-path="url(#clip0)">
<path d="M0 18C0 8.05888 8.05887 0 18 0H820C829.941 0 838 8.05887 838 18V352C838 361.941 829.941 370 820 370H18C8.05889 370 0 361.941 0 352V18Z" fill="url(#paint0_linear)"/>
<g id="content" clip-path="url(#clip1)">
<rect width="1012" height="306" transform="translate(-87 -16)" fill="white"/>
<rect width="1012" height="306" transform="translate(-87 -16)" fill="url(#paint1_linear)"/>
<g id="butter-1">
<g id="blob" opacity="0.4">
<path d="M126.5 59.4325C126.5 116.042 89.5 191.933 8 161.932C-73.5 131.932 -104 151.542 -104 94.9325C-104 38.3233 -85.4082 24.4325 -23 24.4325C39.4081 24.4325 126.5 2.82332 126.5 59.4325Z" fill="#C5A255" fill-opacity="0.38"/>
<path d="M126.5 59.4325C126.5 116.042 89.5 191.933 8 161.932C-73.5 131.932 -104 151.542 -104 94.9325C-104 38.3233 -85.4082 24.4325 -23 24.4325C39.4081 24.4325 126.5 2.82332 126.5 59.4325Z" fill="url(#paint2_linear)" fill-opacity="0.3"/>
</g>
<g id="butter-1_2">
<g id="base" filter="url(#filter0_ddddiiiii)">
<path d="M-0.598484 105.417L13.4654 132.439C14.8451 135.09 18.7086 134.868 19.7758 132.076C20.3979 130.449 22.1314 129.537 23.8249 129.945L26.2894 130.54C28.0416 130.962 29.86 130.161 30.7302 128.582L32.1085 126.082C32.8062 124.817 34.3726 124.319 35.6732 124.949L36.0516 125.132C37.635 125.899 39.4857 124.791 39.5564 123.033C39.613 121.626 40.8435 120.559 42.2437 120.702L45.3214 121.015C47.0206 121.188 48.6069 120.141 49.1156 118.51L50.0158 115.625C50.4488 114.237 52.2286 113.849 53.2 114.931C54.1812 116.024 55.9806 115.615 56.3937 114.206L56.7254 113.075C57.0522 111.96 58.0957 111.211 59.2565 111.257L61.1307 111.333C62.6446 111.393 64.0629 110.594 64.7944 109.267L66.0814 106.932C66.8425 105.552 68.4019 104.813 69.9522 105.1L71.7025 105.423C72.9058 105.645 74.0362 104.775 74.1303 103.555C74.2154 102.45 75.1595 101.611 76.2668 101.655L78.4251 101.742C79.7824 101.797 81.0746 101.159 81.8566 100.048L81.9356 99.9359C82.7825 98.7329 82.9007 97.1622 82.2434 95.8461L62.9052 57.1245L43.8538 18.9769C43.1083 17.4841 41.288 16.8865 39.8028 17.6469L1.9941 37.0027L-25.3119 50.4037C-27.3326 51.3954 -28.1375 53.8585 -27.0922 55.852L-24.4506 60.8901L-0.598484 105.417Z" fill="#FFE7BD"/>
<path d="M-0.598484 105.417L13.4654 132.439C14.8451 135.09 18.7086 134.868 19.7758 132.076C20.3979 130.449 22.1314 129.537 23.8249 129.945L26.2894 130.54C28.0416 130.962 29.86 130.161 30.7302 128.582L32.1085 126.082C32.8062 124.817 34.3726 124.319 35.6732 124.949L36.0516 125.132C37.635 125.899 39.4857 124.791 39.5564 123.033C39.613 121.626 40.8435 120.559 42.2437 120.702L45.3214 121.015C47.0206 121.188 48.6069 120.141 49.1156 118.51L50.0158 115.625C50.4488 114.237 52.2286 113.849 53.2 114.931C54.1812 116.024 55.9806 115.615 56.3937 114.206L56.7254 113.075C57.0522 111.96 58.0957 111.211 59.2565 111.257L61.1307 111.333C62.6446 111.393 64.0629 110.594 64.7944 109.267L66.0814 106.932C66.8425 105.552 68.4019 104.813 69.9522 105.1L71.7025 105.423C72.9058 105.645 74.0362 104.775 74.1303 103.555C74.2154 102.45 75.1595 101.611 76.2668 101.655L78.4251 101.742C79.7824 101.797 81.0746 101.159 81.8566 100.048L81.9356 99.9359C82.7825 98.7329 82.9007 97.1622 82.2434 95.8461L62.9052 57.1245L43.8538 18.9769C43.1083 17.4841 41.288 16.8865 39.8028 17.6469L1.9941 37.0027L-25.3119 50.4037C-27.3326 51.3954 -28.1375 53.8585 -27.0922 55.852L-24.4506 60.8901L-0.598484 105.417Z" fill="url(#paint3_linear)"/>
<path d="M-0.598484 105.417L13.4654 132.439C14.8451 135.09 18.7086 134.868 19.7758 132.076C20.3979 130.449 22.1314 129.537 23.8249 129.945L26.2894 130.54C28.0416 130.962 29.86 130.161 30.7302 128.582L32.1085 126.082C32.8062 124.817 34.3726 124.319 35.6732 124.949L36.0516 125.132C37.635 125.899 39.4857 124.791 39.5564 123.033C39.613 121.626 40.8435 120.559 42.2437 120.702L45.3214 121.015C47.0206 121.188 48.6069 120.141 49.1156 118.51L50.0158 115.625C50.4488 114.237 52.2286 113.849 53.2 114.931C54.1812 116.024 55.9806 115.615 56.3937 114.206L56.7254 113.075C57.0522 111.96 58.0957 111.211 59.2565 111.257L61.1307 111.333C62.6446 111.393 64.0629 110.594 64.7944 109.267L66.0814 106.932C66.8425 105.552 68.4019 104.813 69.9522 105.1L71.7025 105.423C72.9058 105.645 74.0362 104.775 74.1303 103.555C74.2154 102.45 75.1595 101.611 76.2668 101.655L78.4251 101.742C79.7824 101.797 81.0746 101.159 81.8566 100.048L81.9356 99.9359C82.7825 98.7329 82.9007 97.1622 82.2434 95.8461L62.9052 57.1245L43.8538 18.9769C43.1083 17.4841 41.288 16.8865 39.8028 17.6469L1.9941 37.0027L-25.3119 50.4037C-27.3326 51.3954 -28.1375 53.8585 -27.0922 55.852L-24.4506 60.8901L-0.598484 105.417Z" fill="url(#paint4_radial)"/>
<path d="M-0.598484 105.417L13.4654 132.439C14.8451 135.09 18.7086 134.868 19.7758 132.076C20.3979 130.449 22.1314 129.537 23.8249 129.945L26.2894 130.54C28.0416 130.962 29.86 130.161 30.7302 128.582L32.1085 126.082C32.8062 124.817 34.3726 124.319 35.6732 124.949L36.0516 125.132C37.635 125.899 39.4857 124.791 39.5564 123.033C39.613 121.626 40.8435 120.559 42.2437 120.702L45.3214 121.015C47.0206 121.188 48.6069 120.141 49.1156 118.51L50.0158 115.625C50.4488 114.237 52.2286 113.849 53.2 114.931C54.1812 116.024 55.9806 115.615 56.3937 114.206L56.7254 113.075C57.0522 111.96 58.0957 111.211 59.2565 111.257L61.1307 111.333C62.6446 111.393 64.0629 110.594 64.7944 109.267L66.0814 106.932C66.8425 105.552 68.4019 104.813 69.9522 105.1L71.7025 105.423C72.9058 105.645 74.0362 104.775 74.1303 103.555C74.2154 102.45 75.1595 101.611 76.2668 101.655L78.4251 101.742C79.7824 101.797 81.0746 101.159 81.8566 100.048L81.9356 99.9359C82.7825 98.7329 82.9007 97.1622 82.2434 95.8461L62.9052 57.1245L43.8538 18.9769C43.1083 17.4841 41.288 16.8865 39.8028 17.6469L1.9941 37.0027L-25.3119 50.4037C-27.3326 51.3954 -28.1375 53.8585 -27.0922 55.852L-24.4506 60.8901L-0.598484 105.417Z" fill="url(#paint5_radial)"/>
</g>
<g id="rip" filter="url(#filter1_ii)">
<path d="M18.919 135.011L18.4119 124.977L32.4489 116.319L49.3005 109.914L64.1895 100.635L80.0598 92.7935C81.9202 95.3072 82.5505 98.5247 81.7762 101.555L81.5693 102.364C81.5232 102.544 81.4589 102.72 81.3773 102.887L80.4812 104.726C79.5535 106.63 77.751 107.958 75.6576 108.28L74.9437 108.39C73.4036 108.627 72.0622 109.569 71.316 110.937L70.9531 111.602C70.094 113.177 68.2912 113.987 66.5431 113.584L65.5782 113.361C64.1164 113.024 62.6377 113.853 62.1632 115.276C61.7671 116.465 60.6551 117.266 59.4026 117.266L58.143 117.266C56.5232 117.266 55.0424 118.181 54.318 119.63C53.5244 121.217 51.8153 122.148 50.0496 121.971C48.7602 121.842 47.4686 122.298 46.5522 123.214L46.3992 123.367C45.5033 124.263 44.2882 124.766 43.0212 124.766L41.2746 124.766C39.8472 124.766 38.5077 125.456 37.678 126.617C36.9301 127.664 35.763 128.333 34.4816 128.45L32.9981 128.585C31.746 128.698 30.6283 129.417 30.0045 130.508C29.3757 131.609 28.2453 132.329 26.9822 132.434L24.8393 132.613C23.6292 132.714 22.4584 133.091 21.417 133.715L19.0974 135.106C19.0211 135.152 18.9235 135.1 18.919 135.011Z" fill="#CFB895"/>
<path d="M18.919 135.011L18.4119 124.977L32.4489 116.319L49.3005 109.914L64.1895 100.635L80.0598 92.7935C81.9202 95.3072 82.5505 98.5247 81.7762 101.555L81.5693 102.364C81.5232 102.544 81.4589 102.72 81.3773 102.887L80.4812 104.726C79.5535 106.63 77.751 107.958 75.6576 108.28L74.9437 108.39C73.4036 108.627 72.0622 109.569 71.316 110.937L70.9531 111.602C70.094 113.177 68.2912 113.987 66.5431 113.584L65.5782 113.361C64.1164 113.024 62.6377 113.853 62.1632 115.276C61.7671 116.465 60.6551 117.266 59.4026 117.266L58.143 117.266C56.5232 117.266 55.0424 118.181 54.318 119.63C53.5244 121.217 51.8153 122.148 50.0496 121.971C48.7602 121.842 47.4686 122.298 46.5522 123.214L46.3992 123.367C45.5033 124.263 44.2882 124.766 43.0212 124.766L41.2746 124.766C39.8472 124.766 38.5077 125.456 37.678 126.617C36.9301 127.664 35.763 128.333 34.4816 128.45L32.9981 128.585C31.746 128.698 30.6283 129.417 30.0045 130.508C29.3757 131.609 28.2453 132.329 26.9822 132.434L24.8393 132.613C23.6292 132.714 22.4584 133.091 21.417 133.715L19.0974 135.106C19.0211 135.152 18.9235 135.1 18.919 135.011Z" fill="url(#paint6_linear)" fill-opacity="0.6"/>
</g>
</g>
</g>
<g id="butter-2">
<g id="Ellipse 6" opacity="0.3">
<path d="M755.901 109.375C806.589 84.1687 909.052 76.669 915.027 156.059C921.002 235.45 931.245 255.116 880.558 280.322C829.87 305.528 809.941 296.65 784.797 246.086C759.652 195.522 705.214 134.581 755.901 109.375Z" fill="#C5A255" fill-opacity="0.38"/>
<path d="M755.901 109.375C806.589 84.1687 909.052 76.669 915.027 156.059C921.002 235.45 931.245 255.116 880.558 280.322C829.87 305.528 809.941 296.65 784.797 246.086C759.652 195.522 705.214 134.581 755.901 109.375Z" fill="url(#paint7_linear)" fill-opacity="0.3"/>
</g>
<g id="butter" filter="url(#filter2_ddddiiiii)">
<path d="M762.281 180.421L758.972 188.869C758.296 190.595 758.894 192.559 760.418 193.615L835.339 245.548C837.048 246.732 839.379 246.41 840.703 244.807L854.374 228.247C854.579 227.998 854.754 227.725 854.894 227.435L865.612 205.156C865.791 204.784 866.026 204.442 866.31 204.142L881.03 188.574C881.223 188.369 881.394 188.144 881.541 187.904L892.172 170.418C893.296 168.57 892.747 166.163 890.932 164.985L873.36 153.58L856.56 139.782C856.366 139.624 856.158 139.483 855.939 139.363L838.782 129.992L818.346 114.771C816.087 113.088 812.843 114.205 812.099 116.922L809.706 125.657C809.354 126.941 808.387 127.966 807.125 128.391L804.551 129.258C802.771 129.858 801.648 131.616 801.852 133.483L801.953 134.404C802.203 136.691 800.478 138.716 798.18 138.833L797.781 138.854C795.734 138.958 794.097 140.593 793.99 142.64L793.76 147.043C793.678 148.617 792.679 149.996 791.209 150.565L785.202 152.889C783.922 153.385 782.986 154.502 782.721 155.848L781.927 159.89C781.665 161.222 780.747 162.33 779.487 162.833L774.127 164.976C772.867 165.479 771.948 166.587 771.687 167.919L770.512 173.893C770.245 175.256 769.289 176.382 767.988 176.869L764.605 178.133C763.54 178.53 762.695 179.362 762.281 180.421Z" fill="#FFE7BD"/>
<path d="M762.281 180.421L758.972 188.869C758.296 190.595 758.894 192.559 760.418 193.615L835.339 245.548C837.048 246.732 839.379 246.41 840.703 244.807L854.374 228.247C854.579 227.998 854.754 227.725 854.894 227.435L865.612 205.156C865.791 204.784 866.026 204.442 866.31 204.142L881.03 188.574C881.223 188.369 881.394 188.144 881.541 187.904L892.172 170.418C893.296 168.57 892.747 166.163 890.932 164.985L873.36 153.58L856.56 139.782C856.366 139.624 856.158 139.483 855.939 139.363L838.782 129.992L818.346 114.771C816.087 113.088 812.843 114.205 812.099 116.922L809.706 125.657C809.354 126.941 808.387 127.966 807.125 128.391L804.551 129.258C802.771 129.858 801.648 131.616 801.852 133.483L801.953 134.404C802.203 136.691 800.478 138.716 798.18 138.833L797.781 138.854C795.734 138.958 794.097 140.593 793.99 142.64L793.76 147.043C793.678 148.617 792.679 149.996 791.209 150.565L785.202 152.889C783.922 153.385 782.986 154.502 782.721 155.848L781.927 159.89C781.665 161.222 780.747 162.33 779.487 162.833L774.127 164.976C772.867 165.479 771.948 166.587 771.687 167.919L770.512 173.893C770.245 175.256 769.289 176.382 767.988 176.869L764.605 178.133C763.54 178.53 762.695 179.362 762.281 180.421Z" fill="url(#paint8_linear)"/>
<path d="M762.281 180.421L758.972 188.869C758.296 190.595 758.894 192.559 760.418 193.615L835.339 245.548C837.048 246.732 839.379 246.41 840.703 244.807L854.374 228.247C854.579 227.998 854.754 227.725 854.894 227.435L865.612 205.156C865.791 204.784 866.026 204.442 866.31 204.142L881.03 188.574C881.223 188.369 881.394 188.144 881.541 187.904L892.172 170.418C893.296 168.57 892.747 166.163 890.932 164.985L873.36 153.58L856.56 139.782C856.366 139.624 856.158 139.483 855.939 139.363L838.782 129.992L818.346 114.771C816.087 113.088 812.843 114.205 812.099 116.922L809.706 125.657C809.354 126.941 808.387 127.966 807.125 128.391L804.551 129.258C802.771 129.858 801.648 131.616 801.852 133.483L801.953 134.404C802.203 136.691 800.478 138.716 798.18 138.833L797.781 138.854C795.734 138.958 794.097 140.593 793.99 142.64L793.76 147.043C793.678 148.617 792.679 149.996 791.209 150.565L785.202 152.889C783.922 153.385 782.986 154.502 782.721 155.848L781.927 159.89C781.665 161.222 780.747 162.33 779.487 162.833L774.127 164.976C772.867 165.479 771.948 166.587 771.687 167.919L770.512 173.893C770.245 175.256 769.289 176.382 767.988 176.869L764.605 178.133C763.54 178.53 762.695 179.362 762.281 180.421Z" fill="url(#paint9_radial)"/>
<path d="M762.281 180.421L758.972 188.869C758.296 190.595 758.894 192.559 760.418 193.615L835.339 245.548C837.048 246.732 839.379 246.41 840.703 244.807L854.374 228.247C854.579 227.998 854.754 227.725 854.894 227.435L865.612 205.156C865.791 204.784 866.026 204.442 866.31 204.142L881.03 188.574C881.223 188.369 881.394 188.144 881.541 187.904L892.172 170.418C893.296 168.57 892.747 166.163 890.932 164.985L873.36 153.58L856.56 139.782C856.366 139.624 856.158 139.483 855.939 139.363L838.782 129.992L818.346 114.771C816.087 113.088 812.843 114.205 812.099 116.922L809.706 125.657C809.354 126.941 808.387 127.966 807.125 128.391L804.551 129.258C802.771 129.858 801.648 131.616 801.852 133.483L801.953 134.404C802.203 136.691 800.478 138.716 798.18 138.833L797.781 138.854C795.734 138.958 794.097 140.593 793.99 142.64L793.76 147.043C793.678 148.617 792.679 149.996 791.209 150.565L785.202 152.889C783.922 153.385 782.986 154.502 782.721 155.848L781.927 159.89C781.665 161.222 780.747 162.33 779.487 162.833L774.127 164.976C772.867 165.479 771.948 166.587 771.687 167.919L770.512 173.893C770.245 175.256 769.289 176.382 767.988 176.869L764.605 178.133C763.54 178.53 762.695 179.362 762.281 180.421Z" fill="url(#paint10_radial)"/>
</g>
</g>
<g id="logo">
<path id="Vector 17" d="M391.768 -131V196.85H445.899V-131H391.768Z" stroke="#A2724E" stroke-width="3.492"/>
<g id="Frame 10">
<g id="Frame 7">
<rect x="354.848" y="67.4944" width="125.944" height="45.6871" rx="5.10669" transform="rotate(-3 354.848 67.4944)" fill="#482307"/>
<g id="Frame 46" clip-path="url(#clip2)">
<g id="REACT">
<path d="M387.27 98.1633C387.333 98.2746 387.368 98.3968 387.375 98.5301C387.382 98.6634 387.322 98.8001 387.196 98.9404C387.087 99.0606 386.948 99.1252 386.776 99.1342L380.922 99.441C380.332 99.4719 379.909 99.2364 379.653 98.7343L376.912 93.4084L375.741 93.4697L376.027 98.9244C376.038 99.1338 375.971 99.3186 375.827 99.4789C375.682 99.6392 375.505 99.7249 375.296 99.7358L369.698 100.029C369.489 100.04 369.304 99.9735 369.144 99.8292C368.984 99.6848 368.898 99.508 368.887 99.2985L367.92 80.8499C367.909 80.6404 367.976 80.4556 368.12 80.2953C368.264 80.135 368.441 80.0494 368.651 80.0384L377.104 79.5954C379.846 79.4517 382.02 79.9582 383.627 81.1149C385.233 82.2526 386.096 83.9733 386.217 86.277C386.337 88.5616 385.403 90.4147 383.416 91.8361L387.27 98.1633ZM375.298 85.0165L375.456 88.0436L377.541 87.9344C377.96 87.9124 378.277 87.7622 378.491 87.4837C378.705 87.1861 378.8 86.8279 378.778 86.4091C378.756 85.9902 378.623 85.6345 378.379 85.3418C378.152 85.0291 377.82 84.8843 377.382 84.9072L375.298 85.0165Z" fill="white"/>
<path d="M396.685 93.0307L405.481 92.5697C405.691 92.5588 405.875 92.6254 406.036 92.7698C406.196 92.9141 406.282 93.091 406.293 93.3004L406.504 97.3271C406.515 97.5366 406.448 97.7214 406.304 97.8817C406.159 98.042 405.982 98.1276 405.773 98.1386L390.894 98.9184C390.685 98.9294 390.5 98.8627 390.339 98.7183C390.179 98.574 390.094 98.3971 390.083 98.1877L389.116 79.7391C389.105 79.5296 389.171 79.3448 389.316 79.1845C389.46 79.0242 389.637 78.9385 389.846 78.9276L404.497 78.1598C404.706 78.1488 404.891 78.2155 405.051 78.3598C405.212 78.5041 405.297 78.681 405.308 78.8904L405.519 82.9172C405.53 83.1266 405.464 83.3114 405.319 83.4717C405.175 83.632 404.998 83.7177 404.789 83.7286L396.221 84.1776L396.315 85.9768L404.255 85.5607C404.464 85.5498 404.649 85.6164 404.809 85.7608C404.97 85.9051 405.055 86.082 405.066 86.2914L405.261 90.004C405.272 90.2134 405.205 90.3983 405.061 90.5586C404.916 90.7189 404.739 90.8045 404.53 90.8155L396.591 91.2315L396.685 93.0307Z" fill="white"/>
<path d="M415.187 77.5996L421.384 77.2748C422.069 77.2389 422.514 77.5305 422.718 78.1498L430.042 96.0363C430.064 96.0924 430.078 96.1871 430.085 96.3204C430.091 96.4346 430.031 96.5618 429.905 96.7021C429.796 96.8223 429.657 96.8869 429.485 96.8959L424.202 97.1728C423.631 97.2027 423.247 96.9842 423.051 96.5172L422.267 94.6683L416.127 94.9901L415.54 96.9108C415.394 97.3958 415.035 97.6532 414.464 97.6832L409.18 97.96C409.009 97.969 408.854 97.9199 408.714 97.8126C408.593 97.6853 408.53 97.5646 408.524 97.4504C408.517 97.3171 408.521 97.2214 408.537 97.1633L413.951 78.6093C414.089 77.9721 414.501 77.6355 415.187 77.5996ZM417.291 89.3449L420.518 89.1757L418.612 83.9492L417.291 89.3449Z" fill="white"/>
<path d="M438.607 83.9895L438.859 88.7873C438.939 90.3294 439.684 91.0636 441.093 90.9898C442.178 90.9329 442.865 90.3814 443.154 89.3354C443.232 89.0067 443.335 88.7818 443.462 88.6606C443.609 88.5383 443.844 88.4688 444.167 88.4518L449.993 88.1465C450.165 88.1375 450.311 88.1966 450.432 88.3239C450.571 88.4312 450.645 88.5705 450.654 88.7418C450.741 90.3982 450.338 91.813 449.445 92.9862C447.803 95.1722 445.126 96.3626 441.413 96.5571C438.501 96.7098 436.144 96.1937 434.345 95.0089C432.545 93.8051 431.575 91.8704 431.435 89.205L431.18 84.3501C431.044 81.7418 431.826 79.7344 433.528 78.3279C435.23 76.9214 437.499 76.1438 440.336 75.9952C444.048 75.8006 446.835 76.7045 448.697 78.707C449.708 79.7804 450.256 81.1453 450.343 82.8017C450.352 82.9731 450.293 83.1289 450.167 83.2691C450.059 83.3893 449.919 83.4539 449.748 83.4629L443.922 83.7682C443.617 83.7842 443.386 83.7391 443.228 83.6328C443.088 83.5256 442.953 83.3131 442.822 82.9954C442.406 81.9863 441.665 81.5096 440.599 81.5655C439.19 81.6394 438.526 82.4474 438.607 83.9895Z" fill="white"/>
<path d="M452.462 75.646L469.197 74.769C469.406 74.758 469.591 74.8247 469.751 74.969C469.912 75.1134 469.997 75.2902 470.008 75.4997L470.249 80.0975C470.26 80.307 470.193 80.4918 470.049 80.6521C469.905 80.8124 469.728 80.8981 469.519 80.909L464.778 81.1575L465.463 94.2372C465.474 94.4466 465.408 94.6315 465.263 94.7918C465.119 94.9521 464.942 95.0377 464.733 95.0487L459.021 95.348C458.812 95.359 458.627 95.2923 458.466 95.148C458.306 95.0036 458.22 94.8268 458.21 94.6173L457.524 81.5376L452.783 81.7861C452.574 81.7971 452.389 81.7304 452.229 81.5861C452.068 81.4417 451.983 81.2648 451.972 81.0554L451.731 76.4575C451.72 76.2481 451.787 76.0632 451.931 75.903C452.075 75.7427 452.252 75.657 452.462 75.646Z" fill="white"/>
</g>
</g>
</g>
<g id="Frame 10_2">
<rect x="377.211" y="118.736" width="85.1995" height="44.6424" rx="5.10669" transform="rotate(2.18561 377.211 118.736)" fill="#E15549"/>
<g id="Frame 46_2">
<g id="REACT_2">
<path d="M401.568 131.879L407.169 132.093C407.379 132.101 407.557 132.184 407.704 132.342C407.85 132.5 407.92 132.684 407.912 132.894L407.207 151.354C407.199 151.564 407.116 151.742 406.958 151.889C406.799 152.035 406.616 152.104 406.406 152.096L400.805 151.883C400.595 151.875 400.417 151.792 400.271 151.633C400.124 151.475 400.055 151.291 400.063 151.082L400.298 144.909L395.669 144.732L395.433 150.905C395.425 151.115 395.342 151.293 395.184 151.439C395.026 151.586 394.842 151.655 394.632 151.647L389.031 151.433C388.822 151.425 388.643 151.352 388.496 151.213C388.349 151.054 388.281 150.861 388.289 150.632L388.994 132.172C389.002 131.962 389.085 131.784 389.243 131.638C389.401 131.491 389.585 131.422 389.795 131.43L395.396 131.643C395.605 131.651 395.784 131.735 395.93 131.893C396.077 132.051 396.146 132.235 396.138 132.444L395.909 138.446L400.538 138.622L400.767 132.621C400.775 132.412 400.859 132.234 401.017 132.087C401.175 131.94 401.359 131.871 401.568 131.879Z" fill="white"/>
<path d="M413.615 134.17C415.421 132.827 417.763 132.211 420.64 132.321C423.516 132.431 425.794 133.233 427.474 134.728C429.172 136.205 429.973 138.229 429.875 140.801L429.705 145.259C429.605 147.869 428.662 149.826 426.876 151.132C425.11 152.419 422.769 153.007 419.855 152.896C416.94 152.785 414.641 152.02 412.959 150.601C411.297 149.164 410.516 147.14 410.615 144.53L410.785 140.072C410.884 137.481 411.827 135.514 413.615 134.17ZM418.546 146.693C418.912 147.089 419.419 147.299 420.067 147.323C420.715 147.348 421.237 147.177 421.632 146.811C422.028 146.444 422.24 145.871 422.27 145.089L422.453 140.289C422.483 139.527 422.314 138.948 421.947 138.552C421.582 138.138 421.075 137.918 420.427 137.893C419.779 137.868 419.257 138.049 418.861 138.434C418.465 138.801 418.253 139.365 418.224 140.127L418.041 144.928C418.011 145.709 418.179 146.297 418.546 146.693Z" fill="white"/>
<path d="M433.083 133.082L449.829 133.721C450.038 133.729 450.217 133.812 450.363 133.97C450.51 134.128 450.579 134.312 450.571 134.522L450.395 139.123C450.387 139.332 450.304 139.51 450.146 139.657C449.988 139.804 449.804 139.873 449.594 139.865L444.851 139.684L444.351 152.772C444.343 152.982 444.26 153.16 444.102 153.306C443.944 153.453 443.76 153.522 443.55 153.514L437.835 153.296C437.625 153.288 437.447 153.205 437.301 153.047C437.154 152.888 437.085 152.704 437.093 152.495L437.592 139.407L432.848 139.226C432.639 139.218 432.461 139.135 432.314 138.976C432.168 138.818 432.098 138.634 432.106 138.425L432.282 133.824C432.29 133.614 432.373 133.436 432.531 133.29C432.689 133.143 432.873 133.074 433.083 133.082Z" fill="white"/>
</g>
</g>
</g>
<g id="Frame 11">
<rect x="355.568" y="174.411" width="125.944" height="45.6871" rx="5.10669" transform="rotate(-1 355.568 174.411)" fill="#482307"/>
<g id="Frame 46_3">
<g id="REACT_3">
<path d="M368.008 187.445L384.763 187.152C384.973 187.149 385.155 187.222 385.311 187.372C385.466 187.521 385.545 187.701 385.549 187.911L385.629 192.514C385.633 192.724 385.56 192.906 385.41 193.062C385.26 193.217 385.08 193.296 384.871 193.3L380.124 193.383L380.353 206.478C380.356 206.688 380.283 206.87 380.133 207.026C379.984 207.181 379.804 207.26 379.594 207.264L373.876 207.364C373.666 207.367 373.483 207.294 373.328 207.144C373.173 206.995 373.094 206.815 373.09 206.605L372.861 193.509L368.115 193.592C367.905 193.596 367.723 193.523 367.568 193.373C367.413 193.223 367.333 193.043 367.33 192.834L367.249 188.23C367.246 188.021 367.319 187.838 367.468 187.683C367.618 187.528 367.798 187.448 368.008 187.445Z" fill="white"/>
<path d="M390.319 188.886C392.048 187.445 394.352 186.699 397.23 186.649C400.109 186.598 402.428 187.273 404.187 188.672C405.966 190.052 406.877 192.029 406.922 194.602L407 199.063C407.046 201.675 406.213 203.682 404.503 205.084C402.811 206.468 400.506 207.185 397.59 207.236C394.673 207.287 392.336 206.651 390.578 205.327C388.838 203.985 387.946 202.008 387.9 199.396L387.822 194.936C387.777 192.343 388.609 190.327 390.319 188.886ZM395.939 201.115C396.326 201.49 396.844 201.671 397.493 201.66C398.141 201.649 398.652 201.449 399.027 201.061C399.401 200.673 399.582 200.089 399.568 199.307L399.484 194.503C399.471 193.741 399.27 193.172 398.882 192.798C398.494 192.404 397.976 192.213 397.328 192.224C396.68 192.236 396.169 192.445 395.794 192.852C395.42 193.24 395.239 193.815 395.252 194.577L395.336 199.381C395.35 200.163 395.551 200.741 395.939 201.115Z" fill="white"/>
<path d="M416.187 186.604L422.392 186.496C423.078 186.484 423.513 186.791 423.695 187.417L430.39 205.548C430.41 205.605 430.421 205.7 430.423 205.833C430.425 205.948 430.361 206.073 430.23 206.208C430.117 206.325 429.975 206.384 429.804 206.387L424.514 206.48C423.942 206.49 423.566 206.258 423.387 205.784L422.667 203.909L416.52 204.017L415.867 205.916C415.703 206.395 415.336 206.64 414.764 206.65L409.474 206.742C409.303 206.745 409.149 206.691 409.014 206.579C408.897 206.447 408.838 206.324 408.836 206.21C408.833 206.077 408.841 205.981 408.859 205.924L414.917 187.57C415.078 186.938 415.501 186.616 416.187 186.604ZM417.881 198.415L421.112 198.359L419.389 193.069L417.881 198.415Z" fill="white"/>
<path d="M431.971 192.621C431.937 190.676 432.71 189.08 434.29 187.832C435.889 186.584 437.994 185.937 440.605 185.892C443.236 185.846 445.392 186.447 447.072 187.695C448.772 188.943 449.634 190.263 449.658 191.654C449.661 191.826 449.597 191.979 449.466 192.115C449.354 192.232 449.221 192.291 449.069 192.294L443.35 192.394C442.912 192.401 442.509 192.246 442.141 191.928C441.773 191.611 441.284 191.457 440.674 191.468C439.759 191.484 439.306 191.759 439.316 192.292C439.321 192.578 439.544 192.813 439.986 192.996C440.447 193.178 441.288 193.335 442.511 193.466C445.357 193.779 447.39 194.411 448.608 195.362C449.844 196.294 450.48 197.742 450.514 199.705C450.548 201.649 449.68 203.257 447.909 204.527C446.158 205.778 443.843 206.428 440.965 206.479C438.086 206.529 435.817 205.977 434.157 204.824C432.497 203.671 431.652 202.246 431.623 200.55C431.62 200.378 431.675 200.234 431.787 200.118C431.918 199.982 432.069 199.912 432.241 199.91L437.674 199.815C438.074 199.808 438.516 199.991 438.999 200.364C439.501 200.736 440.181 200.915 441.039 200.9C442.469 200.875 443.179 200.596 443.169 200.062C443.163 199.719 442.902 199.466 442.384 199.303C441.866 199.122 440.89 198.948 439.457 198.782C434.528 198.22 432.033 196.166 431.971 192.621Z" fill="white"/>
<path d="M452.754 185.966L469.51 185.673C469.719 185.669 469.902 185.743 470.057 185.892C470.212 186.042 470.291 186.222 470.295 186.432L470.375 191.035C470.379 191.245 470.306 191.427 470.156 191.582C470.006 191.738 469.827 191.817 469.617 191.821L464.87 191.903L465.099 204.999C465.103 205.209 465.03 205.391 464.88 205.546C464.73 205.702 464.55 205.781 464.34 205.785L458.622 205.884C458.412 205.888 458.23 205.815 458.075 205.665C457.919 205.515 457.84 205.336 457.836 205.126L457.608 192.03L452.861 192.113C452.652 192.117 452.469 192.044 452.314 191.894C452.159 191.744 452.079 191.564 452.076 191.355L451.995 186.751C451.992 186.541 452.065 186.359 452.215 186.204C452.365 186.049 452.544 185.969 452.754 185.966Z" fill="white"/>
</g>
</g>
</g>
</g>
</g>
</g>
<g id="toast-container" clip-path="url(#clip3)">
<g id="toast">
<g id="base_2" filter="url(#filter3_dd)">
<rect x="308" y="308" width="209" height="44" rx="8" fill="white"/>
</g>
<text id="loading-text" fill="#363636" xml:space="preserve" style="white-space: pre" font-family="ui-sans-serif, system-ui, -apple-system, BlinkMacSystemFont, 'Segoe UI', Roboto, 'Helvetica Neue', Arial, 'Noto Sans', sans-serif" font-size="16" font-weight="600" letter-spacing="0em"><tspan x="371.438" y="335.188">Making toast...</tspan></text>
<text id="success-text" fill="#363636" xml:space="preserve" style="white-space: pre" font-family="ui-sans-serif, system-ui, -apple-system, BlinkMacSystemFont, 'Segoe UI', Roboto, 'Helvetica Neue', Arial, 'Noto Sans', sans-serif" font-size="16" font-weight="600" letter-spacing="0em"><tspan x="361.039" y="335.188">Here is your toast.</tspan></text>
<g id="loader">
<rect id="circle" x="324" y="325" width="10" height="10" rx="5" stroke="#E0E0E0" stroke-width="2"/>
<path id="progress" d="M329 325C329.657 325 330.307 325.129 330.913 325.381C331.52 325.632 332.071 326 332.536 326.464C333 326.929 333.368 327.48 333.619 328.087C333.871 328.693 334 329.343 334 330" stroke="#616161" stroke-width="2"/>
</g>
<g id="checkmark-group">
<circle id="circle_2" cx="329" cy="330" r="10" fill="#79D050"/>
<g id="checkmark">
<rect id="line-1" x="323.5" y="330.071" width="2" height="6" transform="rotate(-45 323.5 330.071)" fill="white"/>
<rect id="line-2" x="333.571" y="326" width="2" height="10" transform="rotate(45 333.571 326)" fill="white"/>
</g>
</g>
</g>
</g>
<g id="try-out-button">
<rect x="696" y="313" width="124" height="33" rx="6" fill="currentColor"/>
<g id="Try it out">
<text fill="#482307" xml:space="preserve" style="white-space: pre" font-family="ui-sans-serif, system-ui, -apple-system, BlinkMacSystemFont, 'Segoe UI', Roboto, 'Helvetica Neue', Arial, 'Noto Sans', sans-serif" font-size="16" font-weight="bold" letter-spacing="0.05em"><tspan x="708" y="335">Try it out</tspan></text>
</g>
<path id="Vector 20" d="M804.783 330.477C804.783 330.062 804.447 329.727 804.033 329.727C803.619 329.727 803.283 330.062 803.283 330.477H804.783ZM798.017 325.242C798.431 325.242 798.767 324.906 798.767 324.492C798.767 324.078 798.431 323.742 798.017 323.742V325.242ZM791.25 327.251V333.339H792.75V327.251H791.25ZM794.759 336.848H801.274V335.348H794.759V336.848ZM804.783 333.339V330.477H803.283V333.339H804.783ZM794.759 325.242H798.017V323.742H794.759V325.242ZM801.274 336.848C803.212 336.848 804.783 335.277 804.783 333.339H803.283C803.283 334.449 802.384 335.348 801.274 335.348V336.848ZM791.25 333.339C791.25 335.277 792.821 336.848 794.759 336.848V335.348C793.649 335.348 792.75 334.449 792.75 333.339H791.25ZM792.75 327.251C792.75 326.142 793.649 325.242 794.759 325.242V323.742C792.821 323.742 791.25 325.313 791.25 327.251H792.75Z" fill="#A2724E"/>
<path id="Vector 21" d="M797.869 329.929L805.569 322.228M805.569 322.228V327.091M805.569 322.228H801.112" stroke="#A2724E" stroke-width="1.5" stroke-linecap="round"/>
</g>
<line id="Line 1" x1="-87" y1="289.5" x2="923" y2="289.5" stroke="#482307" stroke-opacity="0.1"/>
</g>
<path d="M18 0.5H820C829.665 0.5 837.5 8.33502 837.5 18V352C837.5 361.665 829.665 369.5 820 369.5H18C8.33503 369.5 0.5 361.665 0.5 352V18C0.5 8.33502 8.33502 0.5 18 0.5Z" stroke="#482307" stroke-opacity="0.1"/>
</g>
<defs>
<filter id="filter0_ddddiiiii" x="-73.1771" y="-2.5896" width="177.209" height="176.822" filterUnits="userSpaceOnUse" color-interpolation-filters="sRGB">
<feFlood flood-opacity="0" result="BackgroundImageFix"/>
<feColorMatrix in="SourceAlpha" type="matrix" values="0 0 0 0 0 0 0 0 0 0 0 0 0 0 0 0 0 0 127 0"/>
<feOffset dx="-23" dy="18"/>
<feGaussianBlur stdDeviation="8.5"/>
<feColorMatrix type="matrix" values="0 0 0 0 0.114236 0 0 0 0 0.291792 0 0 0 0 0.391667 0 0 0 0.3 0"/>
<feBlend mode="normal" in2="BackgroundImageFix" result="effect1_dropShadow"/>
<feColorMatrix in="SourceAlpha" type="matrix" values="0 0 0 0 0 0 0 0 0 0 0 0 0 0 0 0 0 0 127 0"/>
<feOffset dx="-20" dy="20"/>
<feGaussianBlur stdDeviation="4"/>
<feColorMatrix type="matrix" values="0 0 0 0 0.654167 0 0 0 0 0.323922 0 0 0 0 0.0190799 0 0 0 0.21 0"/>
<feBlend mode="normal" in2="effect1_dropShadow" result="effect2_dropShadow"/>
<feColorMatrix in="SourceAlpha" type="matrix" values="0 0 0 0 0 0 0 0 0 0 0 0 0 0 0 0 0 0 127 0"/>
<feOffset/>
<feGaussianBlur stdDeviation="7"/>
<feColorMatrix type="matrix" values="0 0 0 0 0.666667 0 0 0 0 0.352941 0 0 0 0 0.101961 0 0 0 0.2 0"/>
<feBlend mode="normal" in2="effect2_dropShadow" result="effect3_dropShadow"/>
<feColorMatrix in="SourceAlpha" type="matrix" values="0 0 0 0 0 0 0 0 0 0 0 0 0 0 0 0 0 0 127 0"/>
<feOffset dx="6" dy="23"/>
<feGaussianBlur stdDeviation="3.5"/>
<feColorMatrix type="matrix" values="0 0 0 0 0.575 0 0 0 0 0.27419 0 0 0 0 0.0335417 0 0 0 0.1 0"/>
<feBlend mode="normal" in2="effect3_dropShadow" result="effect4_dropShadow"/>
<feBlend mode="normal" in="SourceGraphic" in2="effect4_dropShadow" result="shape"/>
<feColorMatrix in="SourceAlpha" type="matrix" values="0 0 0 0 0 0 0 0 0 0 0 0 0 0 0 0 0 0 127 0" result="hardAlpha"/>
<feOffset dx="-4" dy="4"/>
<feGaussianBlur stdDeviation="5"/>
<feComposite in2="hardAlpha" operator="arithmetic" k2="-1" k3="1"/>
<feColorMatrix type="matrix" values="0 0 0 0 1 0 0 0 0 0.931481 0 0 0 0 0.845833 0 0 0 1 0"/>
<feBlend mode="normal" in2="shape" result="effect5_innerShadow"/>
<feColorMatrix in="SourceAlpha" type="matrix" values="0 0 0 0 0 0 0 0 0 0 0 0 0 0 0 0 0 0 127 0" result="hardAlpha"/>
<feOffset dx="-3" dy="5"/>
<feGaussianBlur stdDeviation="5.5"/>
<feComposite in2="hardAlpha" operator="arithmetic" k2="-1" k3="1"/>
<feColorMatrix type="matrix" values="0 0 0 0 1 0 0 0 0 1 0 0 0 0 1 0 0 0 0.3 0"/>
<feBlend mode="normal" in2="effect5_innerShadow" result="effect6_innerShadow"/>
<feColorMatrix in="SourceAlpha" type="matrix" values="0 0 0 0 0 0 0 0 0 0 0 0 0 0 0 0 0 0 127 0" result="hardAlpha"/>
<feOffset dx="7" dy="-12"/>
<feGaussianBlur stdDeviation="1.5"/>
<feComposite in2="hardAlpha" operator="arithmetic" k2="-1" k3="1"/>
<feColorMatrix type="matrix" values="0 0 0 0 1 0 0 0 0 1 0 0 0 0 1 0 0 0 0.5 0"/>
<feBlend mode="normal" in2="effect6_innerShadow" result="effect7_innerShadow"/>
<feColorMatrix in="SourceAlpha" type="matrix" values="0 0 0 0 0 0 0 0 0 0 0 0 0 0 0 0 0 0 127 0" result="hardAlpha"/>
<feOffset dx="8" dy="-4"/>
<feGaussianBlur stdDeviation="1.5"/>
<feComposite in2="hardAlpha" operator="arithmetic" k2="-1" k3="1"/>
<feColorMatrix type="matrix" values="0 0 0 0 0.925 0 0 0 0 0.749421 0 0 0 0 0.608958 0 0 0 1 0"/>
<feBlend mode="normal" in2="effect7_innerShadow" result="effect8_innerShadow"/>
<feColorMatrix in="SourceAlpha" type="matrix" values="0 0 0 0 0 0 0 0 0 0 0 0 0 0 0 0 0 0 127 0" result="hardAlpha"/>
<feOffset dx="4" dy="-1"/>
<feGaussianBlur stdDeviation="2.5"/>
<feComposite in2="hardAlpha" operator="arithmetic" k2="-1" k3="1"/>
<feColorMatrix type="matrix" values="0 0 0 0 0 0 0 0 0 0 0 0 0 0 0 0 0 0 0.2 0"/>
<feBlend mode="normal" in2="effect8_innerShadow" result="effect9_innerShadow"/>
</filter>
<filter id="filter1_ii" x="12.3378" y="90.6243" width="74.8771" height="46.5291" filterUnits="userSpaceOnUse" color-interpolation-filters="sRGB">
<feFlood flood-opacity="0" result="BackgroundImageFix"/>
<feBlend mode="normal" in="SourceGraphic" in2="BackgroundImageFix" result="shape"/>
<feColorMatrix in="SourceAlpha" type="matrix" values="0 0 0 0 0 0 0 0 0 0 0 0 0 0 0 0 0 0 127 0" result="hardAlpha"/>
<feOffset dy="2"/>
<feGaussianBlur stdDeviation="1"/>
<feComposite in2="hardAlpha" operator="arithmetic" k2="-1" k3="1"/>
<feColorMatrix type="matrix" values="0 0 0 0 1 0 0 0 0 0.921569 0 0 0 0 0.721569 0 0 0 1 0"/>
<feBlend mode="normal" in2="shape" result="effect1_innerShadow"/>
<feColorMatrix in="SourceAlpha" type="matrix" values="0 0 0 0 0 0 0 0 0 0 0 0 0 0 0 0 0 0 127 0" result="hardAlpha"/>
<feOffset dy="-2"/>
<feGaussianBlur stdDeviation="2.5"/>
<feComposite in2="hardAlpha" operator="arithmetic" k2="-1" k3="1"/>
<feColorMatrix type="matrix" values="0 0 0 0 0.756863 0 0 0 0 0.611765 0 0 0 0 0.494118 0 0 0 1 0"/>
<feBlend mode="normal" in2="effect1_innerShadow" result="effect2_innerShadow"/>
</filter>
<filter id="filter2_ddddiiiii" x="715.41" y="94.7571" width="195.112" height="189.096" filterUnits="userSpaceOnUse" color-interpolation-filters="sRGB">
<feFlood flood-opacity="0" result="BackgroundImageFix"/>
<feColorMatrix in="SourceAlpha" type="matrix" values="0 0 0 0 0 0 0 0 0 0 0 0 0 0 0 0 0 0 127 0"/>
<feOffset dx="-23" dy="18"/>
<feGaussianBlur stdDeviation="8.5"/>
<feColorMatrix type="matrix" values="0 0 0 0 0.114236 0 0 0 0 0.291792 0 0 0 0 0.391667 0 0 0 0.3 0"/>
<feBlend mode="normal" in2="BackgroundImageFix" result="effect1_dropShadow"/>
<feColorMatrix in="SourceAlpha" type="matrix" values="0 0 0 0 0 0 0 0 0 0 0 0 0 0 0 0 0 0 127 0"/>
<feOffset dx="-20" dy="20"/>
<feGaussianBlur stdDeviation="4"/>
<feColorMatrix type="matrix" values="0 0 0 0 0.654167 0 0 0 0 0.323922 0 0 0 0 0.0190799 0 0 0 0.21 0"/>
<feBlend mode="normal" in2="effect1_dropShadow" result="effect2_dropShadow"/>
<feColorMatrix in="SourceAlpha" type="matrix" values="0 0 0 0 0 0 0 0 0 0 0 0 0 0 0 0 0 0 127 0"/>
<feOffset/>
<feGaussianBlur stdDeviation="7"/>
<feColorMatrix type="matrix" values="0 0 0 0 0.666667 0 0 0 0 0.352941 0 0 0 0 0.101961 0 0 0 0.2 0"/>
<feBlend mode="normal" in2="effect2_dropShadow" result="effect3_dropShadow"/>
<feColorMatrix in="SourceAlpha" type="matrix" values="0 0 0 0 0 0 0 0 0 0 0 0 0 0 0 0 0 0 127 0"/>
<feOffset dx="6" dy="23"/>
<feGaussianBlur stdDeviation="3.5"/>
<feColorMatrix type="matrix" values="0 0 0 0 0.575 0 0 0 0 0.27419 0 0 0 0 0.0335417 0 0 0 0.1 0"/>
<feBlend mode="normal" in2="effect3_dropShadow" result="effect4_dropShadow"/>
<feBlend mode="normal" in="SourceGraphic" in2="effect4_dropShadow" result="shape"/>
<feColorMatrix in="SourceAlpha" type="matrix" values="0 0 0 0 0 0 0 0 0 0 0 0 0 0 0 0 0 0 127 0" result="hardAlpha"/>
<feOffset dx="-4" dy="4"/>
<feGaussianBlur stdDeviation="5"/>
<feComposite in2="hardAlpha" operator="arithmetic" k2="-1" k3="1"/>
<feColorMatrix type="matrix" values="0 0 0 0 1 0 0 0 0 0.931481 0 0 0 0 0.845833 0 0 0 1 0"/>
<feBlend mode="normal" in2="shape" result="effect5_innerShadow"/>
<feColorMatrix in="SourceAlpha" type="matrix" values="0 0 0 0 0 0 0 0 0 0 0 0 0 0 0 0 0 0 127 0" result="hardAlpha"/>
<feOffset dx="-3" dy="5"/>
<feGaussianBlur stdDeviation="5.5"/>
<feComposite in2="hardAlpha" operator="arithmetic" k2="-1" k3="1"/>
<feColorMatrix type="matrix" values="0 0 0 0 1 0 0 0 0 1 0 0 0 0 1 0 0 0 0.2 0"/>
<feBlend mode="normal" in2="effect5_innerShadow" result="effect6_innerShadow"/>
<feColorMatrix in="SourceAlpha" type="matrix" values="0 0 0 0 0 0 0 0 0 0 0 0 0 0 0 0 0 0 127 0" result="hardAlpha"/>
<feOffset dx="2" dy="-6"/>
<feGaussianBlur stdDeviation="1.5"/>
<feComposite in2="hardAlpha" operator="arithmetic" k2="-1" k3="1"/>
<feColorMatrix type="matrix" values="0 0 0 0 1 0 0 0 0 1 0 0 0 0 1 0 0 0 0.4 0"/>
<feBlend mode="normal" in2="effect6_innerShadow" result="effect7_innerShadow"/>
<feColorMatrix in="SourceAlpha" type="matrix" values="0 0 0 0 0 0 0 0 0 0 0 0 0 0 0 0 0 0 127 0" result="hardAlpha"/>
<feOffset dx="8" dy="-4"/>
<feGaussianBlur stdDeviation="1.5"/>
<feComposite in2="hardAlpha" operator="arithmetic" k2="-1" k3="1"/>
<feColorMatrix type="matrix" values="0 0 0 0 0.925 0 0 0 0 0.749421 0 0 0 0 0.608958 0 0 0 1 0"/>
<feBlend mode="normal" in2="effect7_innerShadow" result="effect8_innerShadow"/>
<feColorMatrix in="SourceAlpha" type="matrix" values="0 0 0 0 0 0 0 0 0 0 0 0 0 0 0 0 0 0 127 0" result="hardAlpha"/>
<feOffset dx="4" dy="-1"/>
<feGaussianBlur stdDeviation="2.5"/>
<feComposite in2="hardAlpha" operator="arithmetic" k2="-1" k3="1"/>
<feColorMatrix type="matrix" values="0 0 0 0 0 0 0 0 0 0 0 0 0 0 0 0 0 0 0.2 0"/>
<feBlend mode="normal" in2="effect8_innerShadow" result="effect9_innerShadow"/>
</filter>
<filter id="filter3_dd" x="298" y="301" width="229" height="64" filterUnits="userSpaceOnUse" color-interpolation-filters="sRGB">
<feFlood flood-opacity="0" result="BackgroundImageFix"/>
<feColorMatrix in="SourceAlpha" type="matrix" values="0 0 0 0 0 0 0 0 0 0 0 0 0 0 0 0 0 0 127 0"/>
<feOffset dy="3"/>
<feGaussianBlur stdDeviation="5"/>
<feColorMatrix type="matrix" values="0 0 0 0 0 0 0 0 0 0 0 0 0 0 0 0 0 0 0.1 0"/>
<feBlend mode="normal" in2="BackgroundImageFix" result="effect1_dropShadow"/>
<feColorMatrix in="SourceAlpha" type="matrix" values="0 0 0 0 0 0 0 0 0 0 0 0 0 0 0 0 0 0 127 0"/>
<feOffset dy="3"/>
<feGaussianBlur stdDeviation="1.5"/>
<feColorMatrix type="matrix" values="0 0 0 0 0 0 0 0 0 0 0 0 0 0 0 0 0 0 0.05 0"/>
<feBlend mode="normal" in2="effect1_dropShadow" result="effect2_dropShadow"/>
<feBlend mode="normal" in="SourceGraphic" in2="effect2_dropShadow" result="shape"/>
</filter>
<filter id="filter4_d" x="710.128" y="323.148" width="73.3641" height="18.9531" filterUnits="userSpaceOnUse" color-interpolation-filters="sRGB">
<feFlood flood-opacity="0" result="BackgroundImageFix"/>
<feColorMatrix in="SourceAlpha" type="matrix" values="0 0 0 0 0 0 0 0 0 0 0 0 0 0 0 0 0 0 127 0"/>
<feOffset dx="2" dy="2"/>
<feGaussianBlur stdDeviation="1"/>
<feColorMatrix type="matrix" values="0 0 0 0 1 0 0 0 0 1 0 0 0 0 1 0 0 0 0.25 0"/>
<feBlend mode="normal" in2="BackgroundImageFix" result="effect1_dropShadow"/>
<feBlend mode="normal" in="SourceGraphic" in2="effect1_dropShadow" result="shape"/>
</filter>
<linearGradient id="paint0_linear" x1="419" y1="0" x2="419" y2="992.415" gradientUnits="userSpaceOnUse">
<stop stop-color="#A97C24" stop-opacity="0.15"/>
<stop offset="1" stop-color="white" stop-opacity="0"/>
</linearGradient>
<linearGradient id="paint1_linear" x1="506" y1="0" x2="506" y2="820.754" gradientUnits="userSpaceOnUse">
<stop stop-color="#FFDA92" stop-opacity="0.33"/>
<stop offset="1" stop-color="white" stop-opacity="0"/>
</linearGradient>
<linearGradient id="paint2_linear" x1="123.5" y1="29.3823" x2="11.25" y2="168.717" gradientUnits="userSpaceOnUse">
<stop stop-color="white"/>
<stop offset="1" stop-color="white" stop-opacity="0"/>
</linearGradient>
<linearGradient id="paint3_linear" x1="84.2719" y1="87.0242" x2="-19.5801" y2="50.2714" gradientUnits="userSpaceOnUse">
<stop stop-color="white"/>
<stop offset="1" stop-color="white" stop-opacity="0"/>
</linearGradient>
<radialGradient id="paint4_radial" cx="0" cy="0" r="1" gradientUnits="userSpaceOnUse" gradientTransform="translate(48.3131 83.3218) rotate(-124.772) scale(144.329 280.672)">
<stop stop-color="#FFEDC0"/>
<stop offset="1" stop-color="white" stop-opacity="0"/>
</radialGradient>
<radialGradient id="paint5_radial" cx="0" cy="0" r="1" gradientUnits="userSpaceOnUse" gradientTransform="translate(21.831 48.038) rotate(-123.008) scale(52.7376 102.557)">
<stop stop-color="#FFAE11" stop-opacity="0.03"/>
<stop offset="1" stop-color="white" stop-opacity="0"/>
</radialGradient>
<linearGradient id="paint6_linear" x1="19.5" y1="112.5" x2="81.0883" y2="106.986" gradientUnits="userSpaceOnUse">
<stop stop-color="#D9AF8E"/>
<stop offset="0.046875" stop-color="#FFEDC2"/>
<stop offset="0.0989583" stop-color="#D9AF8E"/>
<stop offset="0.182292" stop-color="#FFEDC0"/>
<stop offset="0.244792" stop-color="#D9AF8E"/>
<stop offset="0.317708" stop-color="#FFEDC0"/>
<stop offset="0.390625" stop-color="#D9AF8E"/>
<stop offset="0.46875" stop-color="#FFEDC0"/>
<stop offset="0.541667" stop-color="#D9AF8E"/>
<stop offset="0.609375" stop-color="#FFEDC0"/>
<stop offset="0.666667" stop-color="#D9AF8E"/>
<stop offset="0.739583" stop-color="#FFEDC0"/>
<stop offset="0.828125" stop-color="#D9AF8E"/>
<stop offset="0.911458" stop-color="#FFEDC0"/>
<stop offset="1" stop-color="#D9AF8E"/>
</linearGradient>
<linearGradient id="paint7_linear" x1="730.203" y1="125.186" x2="895.776" y2="170.292" gradientUnits="userSpaceOnUse">
<stop stop-color="white"/>
<stop offset="1" stop-color="white" stop-opacity="0"/>
</linearGradient>
<linearGradient id="paint8_linear" x1="773.692" y1="186.478" x2="883.487" y2="177.481" gradientUnits="userSpaceOnUse">
<stop stop-color="white"/>
<stop offset="1" stop-color="white" stop-opacity="0"/>
</linearGradient>
<radialGradient id="paint9_radial" cx="0" cy="0" r="1" gradientUnits="userSpaceOnUse" gradientTransform="translate(808.014 175.13) rotate(31.0508) scale(96.7988 188.241)">
<stop stop-color="#FFEFC6"/>
<stop offset="1" stop-color="white" stop-opacity="0"/>
</radialGradient>
<radialGradient id="paint10_radial" cx="0" cy="0" r="1" gradientUnits="userSpaceOnUse" gradientTransform="translate(846.622 196.476) rotate(32.8188) scale(52.7376 102.557)">
<stop stop-color="#FFAE11" stop-opacity="0.03"/>
<stop offset="1" stop-color="white" stop-opacity="0"/>
</radialGradient>
<clipPath id="clip0">
<path d="M0 18C0 8.05888 8.05887 0 18 0H820C829.941 0 838 8.05887 838 18V352C838 361.941 829.941 370 820 370H18C8.05889 370 0 361.941 0 352V18Z" fill="white"/>
</clipPath>
<clipPath id="clip1">
<rect width="1012" height="306" fill="white" transform="translate(-87 -16)"/>
</clipPath>
<clipPath id="clip2">
<rect width="105.517" height="33.4311" fill="white" transform="translate(365.421 74.0994) rotate(-3)"/>
</clipPath>
<clipPath id="clip3">
<rect width="224" height="80" fill="white" transform="translate(301 291)"/>
</clipPath>
</defs>
<style type="text/css">

@keyframes enter {
0% {transform: translate3d(0,80px,0) scale(.6); opacity:.5;}
100% {transform: translate3d(0,0,0) scale(1); opacity:1;}
}
@keyframes indicator {
  from {
    transform: scale(0) ;
  }

  to {
    transform: scale(1) ;
	 opacity: 1;
  }
}

@keyframes pulse {
  0%, 100% {
    color: #EBE6DF;
  }

  50% {
    color: #F8F2EA;
  }
}



@keyframes text-in {
0% {transform: translate3d(0,-2px,0); opacity:0;}
100% {transform: translate3d(0,0,0); opacity:1;}
}

@keyframes text-out {
0% {transform: translate3d(0,0px,0); opacity:1;}
100% {transform: translate3d(0,2px,0); opacity:0;}
}

@keyframes spin {
  from {
    transform: rotate(0deg);
  }
  to {
    transform: rotate(360deg);
  }
}


#checkmark-group, #checkmark, #toast, #progress, #try-out-button  { 
  transform-box: fill-box;
  transform-origin: center center;
}

#checkmark-group {
   opacity: 0;
   animation: indicator 0.35s 2.5s cubic-bezier(.21,1.02,.73,1) forwards; 
}
#checkmark {
   opacity: 0;
    animation: indicator 0.2s 2.62s cubic-bezier(.21,1.02,.73,1) forwards; 
}


#success-text {
   opacity: 0;
    animation: text-in 0.1s 2.5s ease-out forwards; 
}
#loading-text {
   opacity: 1;
   animation: text-out 0.1s 2.25s ease-out forwards; 
}


#progress {
   transform-origin: 0px 5px;
   animation: spin 1s linear infinite;
}

#toast {
   opacity: 0;
  animation: enter 0.35s 1s cubic-bezier(.21,1.02,.73,1) forwards;
}

#try-out-button {
  color: #EBE6DF;
   cursor: pointer;
   animation: pulse 1s 4s ease-in-out;
}     
</style>
</svg>
