<svg width="1012" height="425" viewBox="0 0 1012 425" fill="none" xmlns="http://www.w3.org/2000/svg">
<g id="header">
<path d="M0 18C0 8.05886 8.05887 0 18 0H994C1003.94 0 1012 8.05887 1012 18V407C1012 416.941 1003.94 425 994 425H18C8.05888 425 0 416.941 0 407V18Z" fill="url(#paint0_linear)"/>
<g id="content" clip-path="url(#clip0)">
<rect width="1012" height="345" fill="white"/>
<rect width="1012" height="345" fill="url(#paint1_linear)"/>
<g id="butter-1">
<g id="blob" opacity="0.4">
<path d="M171.5 8.43251C171.5 65.0417 134.5 140.933 53 110.932C-28.5 80.9325 -59 100.542 -59 43.9325C-59 -12.6767 -40.4082 -26.5675 22 -26.5675C84.4081 -26.5675 171.5 -48.1767 171.5 8.43251Z" fill="#C5A255" fill-opacity="0.38"/>
<path d="M171.5 8.43251C171.5 65.0417 134.5 140.933 53 110.932C-28.5 80.9325 -59 100.542 -59 43.9325C-59 -12.6767 -40.4082 -26.5675 22 -26.5675C84.4081 -26.5675 171.5 -48.1767 171.5 8.43251Z" fill="url(#paint2_linear)" fill-opacity="0.3"/>
</g>
<g id="butter-1_2">
<g id="base" filter="url(#filter0_ddddiiiii)">
<path d="M44.4015 54.4171L58.4654 81.4387C59.8451 84.0896 63.7086 83.8678 64.7758 81.0765C65.3979 79.4493 67.1314 78.537 68.8249 78.9454L71.2894 79.5398C73.0416 79.9624 74.86 79.1609 75.7302 77.5824L77.1085 75.0822C77.8062 73.8166 79.3726 73.3185 80.6732 73.9488L81.0516 74.1322C82.635 74.8995 84.4857 73.7909 84.5564 72.0328C84.613 70.6265 85.8435 69.559 87.2437 69.7016L90.3214 70.0149C92.0206 70.188 93.6069 69.1409 94.1156 67.5104L95.0158 64.6253C95.4488 63.2373 97.2286 62.8494 98.2 63.9311C99.1812 65.0237 100.981 64.6151 101.394 63.206L101.725 62.0746C102.052 60.9599 103.096 60.2106 104.256 60.2572L106.131 60.3326C107.645 60.3935 109.063 59.5938 109.794 58.2669L111.081 55.9323C111.843 54.5517 113.402 53.8134 114.952 54.0995L116.703 54.4227C117.906 54.6448 119.036 53.7753 119.13 52.5553C119.215 51.4504 120.159 50.6109 121.267 50.6554L123.425 50.7422C124.782 50.7968 126.075 50.1588 126.857 49.0481L126.936 48.9359C127.782 47.7329 127.901 46.1622 127.243 44.8461L107.905 6.12445L88.8538 -32.0231C88.1083 -33.5159 86.288 -34.1135 84.8028 -33.3531L46.9941 -13.9973L19.6881 -0.596308C17.6674 0.395395 16.8625 2.85851 17.9078 4.85204L20.5494 9.89006L44.4015 54.4171Z" fill="#FFE7BD"/>
<path d="M44.4015 54.4171L58.4654 81.4387C59.8451 84.0896 63.7086 83.8678 64.7758 81.0765C65.3979 79.4493 67.1314 78.537 68.8249 78.9454L71.2894 79.5398C73.0416 79.9624 74.86 79.1609 75.7302 77.5824L77.1085 75.0822C77.8062 73.8166 79.3726 73.3185 80.6732 73.9488L81.0516 74.1322C82.635 74.8995 84.4857 73.7909 84.5564 72.0328C84.613 70.6265 85.8435 69.559 87.2437 69.7016L90.3214 70.0149C92.0206 70.188 93.6069 69.1409 94.1156 67.5104L95.0158 64.6253C95.4488 63.2373 97.2286 62.8494 98.2 63.9311C99.1812 65.0237 100.981 64.6151 101.394 63.206L101.725 62.0746C102.052 60.9599 103.096 60.2106 104.256 60.2572L106.131 60.3326C107.645 60.3935 109.063 59.5938 109.794 58.2669L111.081 55.9323C111.843 54.5517 113.402 53.8134 114.952 54.0995L116.703 54.4227C117.906 54.6448 119.036 53.7753 119.13 52.5553C119.215 51.4504 120.159 50.6109 121.267 50.6554L123.425 50.7422C124.782 50.7968 126.075 50.1588 126.857 49.0481L126.936 48.9359C127.782 47.7329 127.901 46.1622 127.243 44.8461L107.905 6.12445L88.8538 -32.0231C88.1083 -33.5159 86.288 -34.1135 84.8028 -33.3531L46.9941 -13.9973L19.6881 -0.596308C17.6674 0.395395 16.8625 2.85851 17.9078 4.85204L20.5494 9.89006L44.4015 54.4171Z" fill="url(#paint3_linear)"/>
<path d="M44.4015 54.4171L58.4654 81.4387C59.8451 84.0896 63.7086 83.8678 64.7758 81.0765C65.3979 79.4493 67.1314 78.537 68.8249 78.9454L71.2894 79.5398C73.0416 79.9624 74.86 79.1609 75.7302 77.5824L77.1085 75.0822C77.8062 73.8166 79.3726 73.3185 80.6732 73.9488L81.0516 74.1322C82.635 74.8995 84.4857 73.7909 84.5564 72.0328C84.613 70.6265 85.8435 69.559 87.2437 69.7016L90.3214 70.0149C92.0206 70.188 93.6069 69.1409 94.1156 67.5104L95.0158 64.6253C95.4488 63.2373 97.2286 62.8494 98.2 63.9311C99.1812 65.0237 100.981 64.6151 101.394 63.206L101.725 62.0746C102.052 60.9599 103.096 60.2106 104.256 60.2572L106.131 60.3326C107.645 60.3935 109.063 59.5938 109.794 58.2669L111.081 55.9323C111.843 54.5517 113.402 53.8134 114.952 54.0995L116.703 54.4227C117.906 54.6448 119.036 53.7753 119.13 52.5553C119.215 51.4504 120.159 50.6109 121.267 50.6554L123.425 50.7422C124.782 50.7968 126.075 50.1588 126.857 49.0481L126.936 48.9359C127.782 47.7329 127.901 46.1622 127.243 44.8461L107.905 6.12445L88.8538 -32.0231C88.1083 -33.5159 86.288 -34.1135 84.8028 -33.3531L46.9941 -13.9973L19.6881 -0.596308C17.6674 0.395395 16.8625 2.85851 17.9078 4.85204L20.5494 9.89006L44.4015 54.4171Z" fill="url(#paint4_radial)"/>
<path d="M44.4015 54.4171L58.4654 81.4387C59.8451 84.0896 63.7086 83.8678 64.7758 81.0765C65.3979 79.4493 67.1314 78.537 68.8249 78.9454L71.2894 79.5398C73.0416 79.9624 74.86 79.1609 75.7302 77.5824L77.1085 75.0822C77.8062 73.8166 79.3726 73.3185 80.6732 73.9488L81.0516 74.1322C82.635 74.8995 84.4857 73.7909 84.5564 72.0328C84.613 70.6265 85.8435 69.559 87.2437 69.7016L90.3214 70.0149C92.0206 70.188 93.6069 69.1409 94.1156 67.5104L95.0158 64.6253C95.4488 63.2373 97.2286 62.8494 98.2 63.9311C99.1812 65.0237 100.981 64.6151 101.394 63.206L101.725 62.0746C102.052 60.9599 103.096 60.2106 104.256 60.2572L106.131 60.3326C107.645 60.3935 109.063 59.5938 109.794 58.2669L111.081 55.9323C111.843 54.5517 113.402 53.8134 114.952 54.0995L116.703 54.4227C117.906 54.6448 119.036 53.7753 119.13 52.5553C119.215 51.4504 120.159 50.6109 121.267 50.6554L123.425 50.7422C124.782 50.7968 126.075 50.1588 126.857 49.0481L126.936 48.9359C127.782 47.7329 127.901 46.1622 127.243 44.8461L107.905 6.12445L88.8538 -32.0231C88.1083 -33.5159 86.288 -34.1135 84.8028 -33.3531L46.9941 -13.9973L19.6881 -0.596308C17.6674 0.395395 16.8625 2.85851 17.9078 4.85204L20.5494 9.89006L44.4015 54.4171Z" fill="url(#paint5_radial)"/>
</g>
<g id="rip" filter="url(#filter1_ii)">
<path d="M63.919 84.011L63.4119 73.9772L77.4489 65.319L94.3005 58.9141L109.19 49.6353L125.06 41.7935C126.92 44.3072 127.551 47.5247 126.776 50.5546L126.569 51.364C126.523 51.5444 126.459 51.7197 126.377 51.8871L125.481 53.7262C124.553 55.6303 122.751 56.9584 120.658 57.2804L119.944 57.3903C118.404 57.6272 117.062 58.5689 116.316 59.9368L115.953 60.6022C115.094 62.1772 113.291 62.9873 111.543 62.5839L110.578 62.3612C109.116 62.0239 107.638 62.8532 107.163 64.2765C106.767 65.4647 105.655 66.2662 104.403 66.2662L103.143 66.2662C101.523 66.2662 100.042 67.1814 99.318 68.6302C98.5244 70.2174 96.8153 71.1478 95.0496 70.9712C93.7602 70.8423 92.4686 71.2977 91.5522 72.214L91.3992 72.367C90.5033 73.2629 89.2882 73.7662 88.0212 73.7662L86.2746 73.7662C84.8472 73.7662 83.5077 74.4556 82.678 75.6171C81.9301 76.6641 80.763 77.3332 79.4816 77.4497L77.9981 77.5846C76.746 77.6984 75.6283 78.4166 75.0045 79.5082C74.3757 80.6087 73.2453 81.3291 71.9822 81.4344L69.8393 81.613C68.6292 81.7138 67.4584 82.0909 66.417 82.7154L64.0974 84.1062C64.0211 84.1519 63.9235 84.0999 63.919 84.011Z" fill="#CFB895"/>
<path d="M63.919 84.011L63.4119 73.9772L77.4489 65.319L94.3005 58.9141L109.19 49.6353L125.06 41.7935C126.92 44.3072 127.551 47.5247 126.776 50.5546L126.569 51.364C126.523 51.5444 126.459 51.7197 126.377 51.8871L125.481 53.7262C124.553 55.6303 122.751 56.9584 120.658 57.2804L119.944 57.3903C118.404 57.6272 117.062 58.5689 116.316 59.9368L115.953 60.6022C115.094 62.1772 113.291 62.9873 111.543 62.5839L110.578 62.3612C109.116 62.0239 107.638 62.8532 107.163 64.2765C106.767 65.4647 105.655 66.2662 104.403 66.2662L103.143 66.2662C101.523 66.2662 100.042 67.1814 99.318 68.6302C98.5244 70.2174 96.8153 71.1478 95.0496 70.9712C93.7602 70.8423 92.4686 71.2977 91.5522 72.214L91.3992 72.367C90.5033 73.2629 89.2882 73.7662 88.0212 73.7662L86.2746 73.7662C84.8472 73.7662 83.5077 74.4556 82.678 75.6171C81.9301 76.6641 80.763 77.3332 79.4816 77.4497L77.9981 77.5846C76.746 77.6984 75.6283 78.4166 75.0045 79.5082C74.3757 80.6087 73.2453 81.3291 71.9822 81.4344L69.8393 81.613C68.6292 81.7138 67.4584 82.0909 66.417 82.7154L64.0974 84.1062C64.0211 84.1519 63.9235 84.0999 63.919 84.011Z" fill="url(#paint6_linear)" fill-opacity="0.6"/>
</g>
</g>
</g>
<g id="butter-2">
<g id="Ellipse 6" opacity="0.3">
<path d="M879.901 149.375C930.589 124.169 1033.05 116.669 1039.03 196.059C1045 275.45 1055.25 295.116 1004.56 320.322C953.87 345.528 933.941 336.65 908.796 286.086C883.652 235.522 829.213 174.581 879.901 149.375Z" fill="#C5A255" fill-opacity="0.38"/>
<path d="M879.901 149.375C930.589 124.169 1033.05 116.669 1039.03 196.059C1045 275.45 1055.25 295.116 1004.56 320.322C953.87 345.528 933.941 336.65 908.796 286.086C883.652 235.522 829.213 174.581 879.901 149.375Z" fill="url(#paint7_linear)" fill-opacity="0.3"/>
</g>
<g id="butter" filter="url(#filter2_ddddiiiii)">
<path d="M886.28 220.421L882.972 228.869C882.296 230.595 882.894 232.559 884.417 233.615L959.339 285.548C961.048 286.732 963.379 286.41 964.702 284.807L978.374 268.247C978.579 267.998 978.754 267.725 978.894 267.435L989.612 245.156C989.791 244.784 990.026 244.442 990.31 244.142L1005.03 228.574C1005.22 228.369 1005.39 228.144 1005.54 227.904L1016.17 210.418C1017.3 208.57 1016.75 206.163 1014.93 204.985L997.36 193.58L980.56 179.782C980.366 179.624 980.158 179.483 979.938 179.363L962.782 169.992L942.346 154.771C940.087 153.088 936.843 154.205 936.099 156.922L933.705 165.657C933.354 166.941 932.387 167.966 931.125 168.391L928.551 169.258C926.771 169.858 925.648 171.616 925.852 173.483L925.953 174.404C926.203 176.691 924.477 178.716 922.18 178.833L921.781 178.854C919.733 178.958 918.097 180.593 917.99 182.64L917.76 187.043C917.678 188.617 916.679 189.996 915.209 190.565L909.202 192.889C907.922 193.385 906.986 194.502 906.721 195.848L905.927 199.89C905.665 201.222 904.746 202.33 903.486 202.833L898.127 204.976C896.867 205.479 895.948 206.587 895.686 207.919L894.512 213.893C894.244 215.256 893.289 216.382 891.987 216.869L888.605 218.133C887.54 218.53 886.695 219.362 886.28 220.421Z" fill="#FFE7BD"/>
<path d="M886.28 220.421L882.972 228.869C882.296 230.595 882.894 232.559 884.417 233.615L959.339 285.548C961.048 286.732 963.379 286.41 964.702 284.807L978.374 268.247C978.579 267.998 978.754 267.725 978.894 267.435L989.612 245.156C989.791 244.784 990.026 244.442 990.31 244.142L1005.03 228.574C1005.22 228.369 1005.39 228.144 1005.54 227.904L1016.17 210.418C1017.3 208.57 1016.75 206.163 1014.93 204.985L997.36 193.58L980.56 179.782C980.366 179.624 980.158 179.483 979.938 179.363L962.782 169.992L942.346 154.771C940.087 153.088 936.843 154.205 936.099 156.922L933.705 165.657C933.354 166.941 932.387 167.966 931.125 168.391L928.551 169.258C926.771 169.858 925.648 171.616 925.852 173.483L925.953 174.404C926.203 176.691 924.477 178.716 922.18 178.833L921.781 178.854C919.733 178.958 918.097 180.593 917.99 182.64L917.76 187.043C917.678 188.617 916.679 189.996 915.209 190.565L909.202 192.889C907.922 193.385 906.986 194.502 906.721 195.848L905.927 199.89C905.665 201.222 904.746 202.33 903.486 202.833L898.127 204.976C896.867 205.479 895.948 206.587 895.686 207.919L894.512 213.893C894.244 215.256 893.289 216.382 891.987 216.869L888.605 218.133C887.54 218.53 886.695 219.362 886.28 220.421Z" fill="url(#paint8_linear)"/>
<path d="M886.28 220.421L882.972 228.869C882.296 230.595 882.894 232.559 884.417 233.615L959.339 285.548C961.048 286.732 963.379 286.41 964.702 284.807L978.374 268.247C978.579 267.998 978.754 267.725 978.894 267.435L989.612 245.156C989.791 244.784 990.026 244.442 990.31 244.142L1005.03 228.574C1005.22 228.369 1005.39 228.144 1005.54 227.904L1016.17 210.418C1017.3 208.57 1016.75 206.163 1014.93 204.985L997.36 193.58L980.56 179.782C980.366 179.624 980.158 179.483 979.938 179.363L962.782 169.992L942.346 154.771C940.087 153.088 936.843 154.205 936.099 156.922L933.705 165.657C933.354 166.941 932.387 167.966 931.125 168.391L928.551 169.258C926.771 169.858 925.648 171.616 925.852 173.483L925.953 174.404C926.203 176.691 924.477 178.716 922.18 178.833L921.781 178.854C919.733 178.958 918.097 180.593 917.99 182.64L917.76 187.043C917.678 188.617 916.679 189.996 915.209 190.565L909.202 192.889C907.922 193.385 906.986 194.502 906.721 195.848L905.927 199.89C905.665 201.222 904.746 202.33 903.486 202.833L898.127 204.976C896.867 205.479 895.948 206.587 895.686 207.919L894.512 213.893C894.244 215.256 893.289 216.382 891.987 216.869L888.605 218.133C887.54 218.53 886.695 219.362 886.28 220.421Z" fill="url(#paint9_radial)"/>
<path d="M886.28 220.421L882.972 228.869C882.296 230.595 882.894 232.559 884.417 233.615L959.339 285.548C961.048 286.732 963.379 286.41 964.702 284.807L978.374 268.247C978.579 267.998 978.754 267.725 978.894 267.435L989.612 245.156C989.791 244.784 990.026 244.442 990.31 244.142L1005.03 228.574C1005.22 228.369 1005.39 228.144 1005.54 227.904L1016.17 210.418C1017.3 208.57 1016.75 206.163 1014.93 204.985L997.36 193.58L980.56 179.782C980.366 179.624 980.158 179.483 979.938 179.363L962.782 169.992L942.346 154.771C940.087 153.088 936.843 154.205 936.099 156.922L933.705 165.657C933.354 166.941 932.387 167.966 931.125 168.391L928.551 169.258C926.771 169.858 925.648 171.616 925.852 173.483L925.953 174.404C926.203 176.691 924.477 178.716 922.18 178.833L921.781 178.854C919.733 178.958 918.097 180.593 917.99 182.64L917.76 187.043C917.678 188.617 916.679 189.996 915.209 190.565L909.202 192.889C907.922 193.385 906.986 194.502 906.721 195.848L905.927 199.89C905.665 201.222 904.746 202.33 903.486 202.833L898.127 204.976C896.867 205.479 895.948 206.587 895.686 207.919L894.512 213.893C894.244 215.256 893.289 216.382 891.987 216.869L888.605 218.133C887.54 218.53 886.695 219.362 886.28 220.421Z" fill="url(#paint10_radial)"/>
</g>
</g>
<g id="logo">
<path id="Vector 17" d="M472.568 -164V242.313H539.654V-164H472.568Z" stroke="#A2724E" stroke-width="4.32773"/>
<g id="Frame 10">
<g id="Frame 7">
<rect x="426.811" y="81.9998" width="156.085" height="56.6214" rx="6.32887" transform="rotate(-3 426.811 81.9998)" fill="#482307"/>
<g id="Frame 46">
<g id="REACT">
<path d="M466.993 120.009C467.071 120.146 467.114 120.298 467.123 120.463C467.131 120.628 467.058 120.798 466.901 120.972C466.767 121.121 466.594 121.201 466.381 121.212L459.126 121.592C458.394 121.63 457.87 121.338 457.554 120.716L454.156 114.116L452.704 114.192L453.059 120.952C453.072 121.211 452.99 121.44 452.811 121.639C452.632 121.838 452.413 121.944 452.153 121.957L445.216 122.321C444.957 122.335 444.728 122.252 444.529 122.073C444.33 121.894 444.224 121.675 444.21 121.415L443.012 98.5515C442.999 98.2919 443.081 98.0628 443.26 97.8642C443.439 97.6655 443.658 97.5594 443.918 97.5458L454.394 96.9967C457.792 96.8187 460.487 97.4464 462.478 98.88C464.469 100.29 465.538 102.422 465.688 105.277C465.837 108.109 464.679 110.405 462.216 112.167L466.993 120.009ZM452.155 103.715L452.352 107.467L454.936 107.332C455.455 107.304 455.847 107.118 456.113 106.773C456.378 106.404 456.496 105.96 456.469 105.441C456.442 104.922 456.277 104.481 455.974 104.118C455.693 103.731 455.282 103.551 454.739 103.58L452.155 103.715Z" fill="white"/>
<path d="M478.662 113.648L489.563 113.076C489.822 113.063 490.051 113.145 490.25 113.324C490.449 113.503 490.555 113.722 490.568 113.982L490.83 118.972C490.843 119.232 490.761 119.461 490.582 119.66C490.403 119.858 490.184 119.964 489.924 119.978L471.484 120.944C471.225 120.958 470.996 120.875 470.797 120.696C470.599 120.518 470.492 120.298 470.479 120.039L469.281 97.1748C469.267 96.9153 469.35 96.6862 469.528 96.4875C469.707 96.2889 469.927 96.1827 470.186 96.1691L488.343 95.2176C488.602 95.204 488.831 95.2866 489.03 95.4655C489.229 95.6444 489.335 95.8636 489.348 96.1231L489.61 101.114C489.624 101.373 489.541 101.602 489.362 101.801C489.183 102 488.964 102.106 488.704 102.119L478.087 102.676L478.203 104.905L488.043 104.39C488.302 104.376 488.531 104.459 488.73 104.638C488.929 104.817 489.035 105.036 489.048 105.295L489.289 109.896C489.303 110.156 489.22 110.385 489.042 110.584C488.863 110.782 488.643 110.889 488.384 110.902L478.545 111.418L478.662 113.648Z" fill="white"/>
<path d="M501.591 94.5233L509.271 94.1208C510.121 94.0763 510.672 94.4378 510.925 95.2053L520.001 117.372C520.028 117.442 520.046 117.559 520.055 117.725C520.062 117.866 519.988 118.024 519.831 118.198C519.697 118.347 519.524 118.427 519.312 118.438L512.764 118.781C512.056 118.818 511.58 118.547 511.337 117.968L510.365 115.677L502.756 116.076L502.029 118.456C501.847 119.057 501.403 119.376 500.695 119.413L494.147 119.757C493.935 119.768 493.742 119.707 493.57 119.574C493.419 119.416 493.341 119.267 493.333 119.125C493.325 118.96 493.33 118.841 493.35 118.769L500.059 95.7747C500.231 94.9849 500.741 94.5678 501.591 94.5233ZM504.199 109.08L508.199 108.87L505.836 102.393L504.199 109.08Z" fill="white"/>
<path d="M530.617 102.443L530.928 108.389C531.028 110.3 531.951 111.21 533.698 111.118C535.042 111.048 535.894 110.364 536.252 109.068C536.349 108.66 536.476 108.382 536.634 108.232C536.815 108.08 537.106 107.994 537.508 107.973L544.728 107.594C544.94 107.583 545.121 107.657 545.272 107.814C545.444 107.947 545.536 108.12 545.547 108.332C545.655 110.385 545.155 112.138 544.048 113.592C542.014 116.302 538.696 117.777 534.095 118.018C530.485 118.207 527.564 117.568 525.334 116.099C523.103 114.607 521.901 112.21 521.728 108.906L521.413 102.889C521.243 99.6568 522.213 97.169 524.322 95.4259C526.431 93.6828 529.243 92.7192 532.759 92.5349C537.36 92.2938 540.814 93.4141 543.121 95.8958C544.374 97.2261 545.054 98.9177 545.161 100.97C545.173 101.183 545.1 101.376 544.943 101.55C544.809 101.699 544.636 101.779 544.424 101.79L537.203 102.168C536.826 102.188 536.539 102.132 536.343 102C536.17 101.868 536.003 101.604 535.84 101.211C535.325 99.9599 534.407 99.3692 533.085 99.4384C531.339 99.5299 530.516 100.531 530.617 102.443Z" fill="white"/>
<path d="M547.787 92.1022L568.527 91.0153C568.787 91.0017 569.016 91.0843 569.214 91.2632C569.413 91.4421 569.519 91.6613 569.533 91.9208L569.832 97.6191C569.845 97.8787 569.762 98.1078 569.584 98.3064C569.405 98.5051 569.186 98.6112 568.926 98.6248L563.051 98.9327L563.9 115.143C563.914 115.402 563.831 115.631 563.652 115.83C563.473 116.029 563.254 116.135 562.995 116.148L555.916 116.519C555.657 116.533 555.427 116.45 555.229 116.272C555.03 116.093 554.924 115.873 554.91 115.614L554.061 99.4039L548.186 99.7118C547.926 99.7254 547.697 99.6427 547.498 99.4639C547.3 99.285 547.194 99.0658 547.18 98.8062L546.881 93.1079C546.868 92.8484 546.95 92.6193 547.129 92.4206C547.308 92.222 547.527 92.1158 547.787 92.1022Z" fill="white"/>
</g>
</g>
</g>
<g id="Frame 10_2">
<rect x="454.527" y="145.505" width="105.59" height="55.3266" rx="6.32887" transform="rotate(2.18561 454.527 145.505)" fill="#E15549"/>
<g id="Frame 46_2">
<g id="REACT_2">
<path d="M484.714 161.793L491.655 162.058C491.915 162.068 492.136 162.171 492.317 162.367C492.499 162.563 492.585 162.791 492.575 163.051L491.702 185.93C491.692 186.189 491.589 186.41 491.393 186.592C491.197 186.774 490.969 186.859 490.709 186.85L483.768 186.585C483.508 186.575 483.287 186.472 483.106 186.276C482.924 186.079 482.838 185.852 482.848 185.592L483.14 177.942L477.402 177.723L477.11 185.373C477.101 185.633 476.998 185.853 476.801 186.035C476.605 186.217 476.377 186.303 476.118 186.293L469.176 186.028C468.917 186.018 468.695 185.927 468.513 185.754C468.331 185.558 468.246 185.318 468.257 185.035L469.13 162.156C469.14 161.897 469.243 161.676 469.439 161.494C469.635 161.313 469.863 161.227 470.122 161.237L477.064 161.502C477.324 161.511 477.544 161.614 477.726 161.811C477.908 162.007 477.994 162.235 477.984 162.494L477.7 169.932L483.437 170.151L483.721 162.713C483.731 162.453 483.834 162.233 484.03 162.051C484.226 161.869 484.454 161.784 484.714 161.793Z" fill="white"/>
<path d="M499.643 164.633C501.882 162.969 504.784 162.205 508.349 162.341C511.915 162.477 514.738 163.471 516.819 165.324C518.924 167.154 519.916 169.663 519.794 172.85L519.584 178.375C519.46 181.61 518.292 184.036 516.078 185.654C513.889 187.249 510.989 187.978 507.376 187.84C503.764 187.702 500.915 186.754 498.831 184.996C496.771 183.215 495.802 180.707 495.926 177.472L496.137 171.948C496.259 168.736 497.428 166.298 499.643 164.633ZM505.754 180.153C506.209 180.643 506.837 180.904 507.64 180.934C508.443 180.965 509.089 180.753 509.579 180.299C510.069 179.845 510.333 179.134 510.37 178.166L510.597 172.216C510.633 171.271 510.424 170.554 509.97 170.064C509.517 169.55 508.889 169.278 508.086 169.247C507.283 169.216 506.636 169.44 506.145 169.918C505.655 170.372 505.392 171.071 505.356 172.016L505.128 177.965C505.092 178.934 505.3 179.663 505.754 180.153Z" fill="white"/>
<path d="M523.771 163.284L544.524 164.076C544.784 164.086 545.005 164.189 545.186 164.385C545.368 164.581 545.454 164.809 545.444 165.069L545.226 170.771C545.216 171.031 545.113 171.251 544.917 171.433C544.721 171.615 544.493 171.7 544.234 171.691L538.355 171.466L537.736 187.687C537.726 187.946 537.623 188.167 537.427 188.349C537.23 188.53 537.003 188.616 536.743 188.606L529.66 188.336C529.4 188.326 529.179 188.223 528.998 188.027C528.816 187.831 528.73 187.603 528.74 187.343L529.359 171.123L523.48 170.898C523.22 170.889 523 170.786 522.818 170.589C522.636 170.393 522.55 170.165 522.56 169.906L522.778 164.204C522.788 163.944 522.891 163.723 523.087 163.542C523.283 163.36 523.511 163.274 523.771 163.284Z" fill="white"/>
</g>
</g>
</g>
<g id="Frame 11">
<rect x="427.704" y="214.504" width="156.085" height="56.6214" rx="6.32887" transform="rotate(-1 427.704 214.504)" fill="#482307"/>
<g id="Frame 46_3">
<g id="REACT_3">
<path d="M443.121 230.658L463.886 230.295C464.146 230.291 464.372 230.381 464.565 230.567C464.757 230.753 464.855 230.975 464.86 231.235L464.96 236.941C464.964 237.2 464.873 237.427 464.688 237.619C464.502 237.811 464.279 237.91 464.019 237.914L458.137 238.017L458.42 254.247C458.425 254.506 458.334 254.732 458.149 254.925C457.963 255.117 457.74 255.215 457.48 255.22L450.393 255.344C450.133 255.348 449.907 255.258 449.715 255.072C449.522 254.886 449.424 254.664 449.42 254.404L449.136 238.174L443.254 238.277C442.994 238.281 442.768 238.19 442.576 238.005C442.383 237.819 442.285 237.596 442.28 237.336L442.181 231.631C442.176 231.371 442.267 231.145 442.452 230.953C442.638 230.761 442.861 230.662 443.121 230.658Z" fill="white"/>
<path d="M470.772 232.444C472.915 230.658 475.77 229.733 479.337 229.671C482.905 229.609 485.779 230.445 487.959 232.179C490.163 233.889 491.293 236.339 491.349 239.528L491.445 245.056C491.502 248.293 490.47 250.78 488.35 252.519C486.253 254.233 483.397 255.122 479.783 255.185C476.168 255.248 473.271 254.46 471.092 252.82C468.937 251.156 467.83 248.706 467.774 245.47L467.677 239.942C467.621 236.729 468.653 234.229 470.772 232.444ZM477.736 247.6C478.217 248.064 478.859 248.289 479.662 248.275C480.465 248.261 481.099 248.014 481.563 247.533C482.028 247.052 482.251 246.328 482.234 245.359L482.13 239.406C482.114 238.461 481.865 237.756 481.385 237.292C480.903 236.804 480.261 236.567 479.458 236.581C478.655 236.595 478.021 236.854 477.557 237.359C477.093 237.839 476.869 238.552 476.886 239.497L476.99 245.451C477.007 246.419 477.255 247.136 477.736 247.6Z" fill="white"/>
<path d="M502.831 229.615L510.521 229.481C511.371 229.466 511.91 229.847 512.136 230.623L520.433 253.093C520.458 253.164 520.472 253.282 520.474 253.447C520.477 253.589 520.397 253.744 520.234 253.912C520.095 254.056 519.919 254.13 519.707 254.134L513.151 254.248C512.442 254.261 511.976 253.973 511.753 253.387L510.862 251.063L503.243 251.196L502.434 253.549C502.231 254.144 501.776 254.447 501.067 254.459L494.511 254.574C494.299 254.577 494.109 254.51 493.941 254.371C493.796 254.208 493.723 254.056 493.72 253.914C493.717 253.749 493.727 253.63 493.749 253.559L501.257 230.813C501.456 230.029 501.981 229.63 502.831 229.615ZM504.93 244.254L508.934 244.184L506.799 237.628L504.93 244.254Z" fill="white"/>
<path d="M522.392 237.072C522.35 234.663 523.308 232.685 525.266 231.138C527.248 229.591 529.857 228.789 533.093 228.733C536.353 228.676 539.025 229.421 541.108 230.968C543.214 232.514 544.283 234.15 544.313 235.874C544.316 236.087 544.237 236.278 544.075 236.446C543.935 236.59 543.771 236.664 543.582 236.667L536.495 236.791C535.952 236.8 535.452 236.608 534.996 236.214C534.54 235.821 533.934 235.63 533.178 235.643C532.044 235.663 531.483 236.004 531.495 236.665C531.501 237.02 531.778 237.31 532.325 237.537C532.896 237.763 533.939 237.958 535.455 238.12C538.983 238.508 541.501 239.291 543.01 240.47C544.543 241.625 545.331 243.419 545.373 245.852C545.415 248.262 544.339 250.254 542.145 251.828C539.975 253.378 537.106 254.185 533.538 254.247C529.971 254.309 527.159 253.626 525.102 252.196C523.044 250.767 521.997 249.001 521.961 246.899C521.957 246.686 522.025 246.508 522.164 246.364C522.327 246.195 522.514 246.109 522.727 246.106L529.46 245.988C529.956 245.979 530.503 246.206 531.102 246.668C531.725 247.13 532.567 247.352 533.63 247.333C535.402 247.302 536.282 246.956 536.271 246.295C536.263 245.869 535.939 245.556 535.297 245.354C534.655 245.129 533.446 244.914 531.671 244.709C525.561 244.012 522.469 241.467 522.392 237.072Z" fill="white"/>
<path d="M548.149 228.824L568.915 228.462C569.175 228.457 569.401 228.548 569.593 228.734C569.785 228.919 569.884 229.142 569.888 229.402L569.988 235.107C569.992 235.367 569.902 235.593 569.716 235.786C569.53 235.978 569.308 236.076 569.048 236.081L563.165 236.183L563.449 252.413C563.453 252.673 563.363 252.899 563.177 253.092C562.991 253.284 562.768 253.382 562.509 253.387L555.421 253.51C555.162 253.515 554.935 253.424 554.743 253.239C554.551 253.053 554.452 252.83 554.448 252.57L554.165 236.341L548.282 236.443C548.022 236.448 547.796 236.357 547.604 236.172C547.412 235.986 547.313 235.763 547.309 235.503L547.209 229.798C547.205 229.538 547.295 229.312 547.481 229.12C547.667 228.927 547.889 228.829 548.149 228.824Z" fill="white"/>
</g>
</g>
</g>
</g>
</g>
</g>
<g id="toast-container">
<g id="toast">
<g id="base_2" filter="url(#filter3_dd)">
<rect x="405" y="363" width="189" height="44" rx="8" fill="white"/>
</g>
<text id="loading-text" fill="#363636" xml:space="preserve" style="white-space: pre" font-family="SF Pro Display" font-size="16" font-weight="600" letter-spacing="0em"><tspan x="460.438" y="390.188">Making toast...</tspan></text>
<text id="success-text" fill="#363636" xml:space="preserve" style="white-space: pre" font-family="SF Pro Display" font-size="16" font-weight="600" letter-spacing="0em"><tspan x="449.039" y="390.188">Here is your toast.</tspan></text>
<g id="loader">
<rect id="circle" x="420" y="380" width="10" height="10" rx="5" stroke="#E0E0E0" stroke-width="2"/>
<path id="progress" d="M425 380C425.657 380 426.307 380.129 426.913 380.381C427.52 380.632 428.071 381 428.536 381.464C429 381.929 429.368 382.48 429.619 383.087C429.871 383.693 430 384.343 430 385" stroke="#616161" stroke-width="2"/>
</g>
<g id="checkmark-group">
<circle id="circle_2" cx="425" cy="385" r="10" fill="#79D050"/>
<g id="Group 48">
<rect id="line-1" x="419.5" y="385.071" width="2" height="6" transform="rotate(-45 419.5 385.071)" fill="white"/>
<rect id="line-2" x="429.571" y="381" width="2" height="10" transform="rotate(45 429.571 381)" fill="white"/>
</g>
</g>
</g>
</g>
<g id="try-out-button">
<rect x="865" y="369" width="124" height="33" rx="6" fill="#EBE6DF"/>
<g id="Try it out" filter="url(#filter4_d)">
<text fill="#482307" xml:space="preserve" style="white-space: pre" font-family="SF Pro Display" font-size="16" font-weight="bold" letter-spacing="0.05em"><tspan x="878.753" y="391.188">Try it out</tspan></text>
</g>
<path id="Vector 20" d="M973.783 386.477C973.783 386.062 973.447 385.727 973.033 385.727C972.619 385.727 972.283 386.062 972.283 386.477H973.783ZM967.017 381.242C967.431 381.242 967.767 380.906 967.767 380.492C967.767 380.078 967.431 379.742 967.017 379.742V381.242ZM960.25 383.251V389.339H961.75V383.251H960.25ZM963.759 392.848H970.274V391.348H963.759V392.848ZM973.783 389.339V386.477H972.283V389.339H973.783ZM963.759 381.242H967.017V379.742H963.759V381.242ZM970.274 392.848C972.212 392.848 973.783 391.277 973.783 389.339H972.283C972.283 390.449 971.384 391.348 970.274 391.348V392.848ZM960.25 389.339C960.25 391.277 961.821 392.848 963.759 392.848V391.348C962.649 391.348 961.75 390.449 961.75 389.339H960.25ZM961.75 383.251C961.75 382.142 962.649 381.242 963.759 381.242V379.742C961.821 379.742 960.25 381.313 960.25 383.251H961.75Z" fill="#A2724E"/>
<path id="Vector 21" d="M966.869 385.929L974.569 378.228M974.569 378.228V383.091M974.569 378.228H970.112" stroke="#A2724E" stroke-width="1.5" stroke-linecap="round"/>
</g>
<line id="Line 1" x1="4.37114e-08" y1="345.5" x2="1010" y2="345.5" stroke="#482307" stroke-opacity="0.1"/>
<path d="M18 0.5H994C1003.66 0.5 1011.5 8.33502 1011.5 18V407C1011.5 416.665 1003.66 424.5 994 424.5H18C8.33502 424.5 0.5 416.665 0.5 407V18C0.5 8.33501 8.33502 0.5 18 0.5Z" stroke="#482307" stroke-opacity="0.1"/>
</g>
<defs>
<filter id="filter0_ddddiiiii" x="-28.1771" y="-53.5896" width="177.209" height="176.822" filterUnits="userSpaceOnUse" color-interpolation-filters="sRGB">
<feFlood flood-opacity="0" result="BackgroundImageFix"/>
<feColorMatrix in="SourceAlpha" type="matrix" values="0 0 0 0 0 0 0 0 0 0 0 0 0 0 0 0 0 0 127 0"/>
<feOffset dx="-23" dy="18"/>
<feGaussianBlur stdDeviation="8.5"/>
<feColorMatrix type="matrix" values="0 0 0 0 0.114236 0 0 0 0 0.291792 0 0 0 0 0.391667 0 0 0 0.3 0"/>
<feBlend mode="normal" in2="BackgroundImageFix" result="effect1_dropShadow"/>
<feColorMatrix in="SourceAlpha" type="matrix" values="0 0 0 0 0 0 0 0 0 0 0 0 0 0 0 0 0 0 127 0"/>
<feOffset dx="-20" dy="20"/>
<feGaussianBlur stdDeviation="4"/>
<feColorMatrix type="matrix" values="0 0 0 0 0.654167 0 0 0 0 0.323922 0 0 0 0 0.0190799 0 0 0 0.21 0"/>
<feBlend mode="normal" in2="effect1_dropShadow" result="effect2_dropShadow"/>
<feColorMatrix in="SourceAlpha" type="matrix" values="0 0 0 0 0 0 0 0 0 0 0 0 0 0 0 0 0 0 127 0"/>
<feOffset/>
<feGaussianBlur stdDeviation="7"/>
<feColorMatrix type="matrix" values="0 0 0 0 0.666667 0 0 0 0 0.352941 0 0 0 0 0.101961 0 0 0 0.2 0"/>
<feBlend mode="normal" in2="effect2_dropShadow" result="effect3_dropShadow"/>
<feColorMatrix in="SourceAlpha" type="matrix" values="0 0 0 0 0 0 0 0 0 0 0 0 0 0 0 0 0 0 127 0"/>
<feOffset dx="6" dy="23"/>
<feGaussianBlur stdDeviation="3.5"/>
<feColorMatrix type="matrix" values="0 0 0 0 0.575 0 0 0 0 0.27419 0 0 0 0 0.0335417 0 0 0 0.1 0"/>
<feBlend mode="normal" in2="effect3_dropShadow" result="effect4_dropShadow"/>
<feBlend mode="normal" in="SourceGraphic" in2="effect4_dropShadow" result="shape"/>
<feColorMatrix in="SourceAlpha" type="matrix" values="0 0 0 0 0 0 0 0 0 0 0 0 0 0 0 0 0 0 127 0" result="hardAlpha"/>
<feOffset dx="-4" dy="4"/>
<feGaussianBlur stdDeviation="5"/>
<feComposite in2="hardAlpha" operator="arithmetic" k2="-1" k3="1"/>
<feColorMatrix type="matrix" values="0 0 0 0 1 0 0 0 0 0.931481 0 0 0 0 0.845833 0 0 0 1 0"/>
<feBlend mode="normal" in2="shape" result="effect5_innerShadow"/>
<feColorMatrix in="SourceAlpha" type="matrix" values="0 0 0 0 0 0 0 0 0 0 0 0 0 0 0 0 0 0 127 0" result="hardAlpha"/>
<feOffset dx="-3" dy="5"/>
<feGaussianBlur stdDeviation="5.5"/>
<feComposite in2="hardAlpha" operator="arithmetic" k2="-1" k3="1"/>
<feColorMatrix type="matrix" values="0 0 0 0 1 0 0 0 0 1 0 0 0 0 1 0 0 0 0.3 0"/>
<feBlend mode="normal" in2="effect5_innerShadow" result="effect6_innerShadow"/>
<feColorMatrix in="SourceAlpha" type="matrix" values="0 0 0 0 0 0 0 0 0 0 0 0 0 0 0 0 0 0 127 0" result="hardAlpha"/>
<feOffset dx="7" dy="-12"/>
<feGaussianBlur stdDeviation="1.5"/>
<feComposite in2="hardAlpha" operator="arithmetic" k2="-1" k3="1"/>
<feColorMatrix type="matrix" values="0 0 0 0 1 0 0 0 0 1 0 0 0 0 1 0 0 0 0.5 0"/>
<feBlend mode="normal" in2="effect6_innerShadow" result="effect7_innerShadow"/>
<feColorMatrix in="SourceAlpha" type="matrix" values="0 0 0 0 0 0 0 0 0 0 0 0 0 0 0 0 0 0 127 0" result="hardAlpha"/>
<feOffset dx="8" dy="-4"/>
<feGaussianBlur stdDeviation="1.5"/>
<feComposite in2="hardAlpha" operator="arithmetic" k2="-1" k3="1"/>
<feColorMatrix type="matrix" values="0 0 0 0 0.925 0 0 0 0 0.749421 0 0 0 0 0.608958 0 0 0 1 0"/>
<feBlend mode="normal" in2="effect7_innerShadow" result="effect8_innerShadow"/>
<feColorMatrix in="SourceAlpha" type="matrix" values="0 0 0 0 0 0 0 0 0 0 0 0 0 0 0 0 0 0 127 0" result="hardAlpha"/>
<feOffset dx="4" dy="-1"/>
<feGaussianBlur stdDeviation="2.5"/>
<feComposite in2="hardAlpha" operator="arithmetic" k2="-1" k3="1"/>
<feColorMatrix type="matrix" values="0 0 0 0 0 0 0 0 0 0 0 0 0 0 0 0 0 0 0.2 0"/>
<feBlend mode="normal" in2="effect8_innerShadow" result="effect9_innerShadow"/>
</filter>
<filter id="filter1_ii" x="57.3378" y="39.6243" width="74.8771" height="46.5291" filterUnits="userSpaceOnUse" color-interpolation-filters="sRGB">
<feFlood flood-opacity="0" result="BackgroundImageFix"/>
<feBlend mode="normal" in="SourceGraphic" in2="BackgroundImageFix" result="shape"/>
<feColorMatrix in="SourceAlpha" type="matrix" values="0 0 0 0 0 0 0 0 0 0 0 0 0 0 0 0 0 0 127 0" result="hardAlpha"/>
<feOffset dy="2"/>
<feGaussianBlur stdDeviation="1"/>
<feComposite in2="hardAlpha" operator="arithmetic" k2="-1" k3="1"/>
<feColorMatrix type="matrix" values="0 0 0 0 1 0 0 0 0 0.921569 0 0 0 0 0.721569 0 0 0 1 0"/>
<feBlend mode="normal" in2="shape" result="effect1_innerShadow"/>
<feColorMatrix in="SourceAlpha" type="matrix" values="0 0 0 0 0 0 0 0 0 0 0 0 0 0 0 0 0 0 127 0" result="hardAlpha"/>
<feOffset dy="-2"/>
<feGaussianBlur stdDeviation="2.5"/>
<feComposite in2="hardAlpha" operator="arithmetic" k2="-1" k3="1"/>
<feColorMatrix type="matrix" values="0 0 0 0 0.756863 0 0 0 0 0.611765 0 0 0 0 0.494118 0 0 0 1 0"/>
<feBlend mode="normal" in2="effect1_innerShadow" result="effect2_innerShadow"/>
</filter>
<filter id="filter2_ddddiiiii" x="839.409" y="134.757" width="195.112" height="189.096" filterUnits="userSpaceOnUse" color-interpolation-filters="sRGB">
<feFlood flood-opacity="0" result="BackgroundImageFix"/>
<feColorMatrix in="SourceAlpha" type="matrix" values="0 0 0 0 0 0 0 0 0 0 0 0 0 0 0 0 0 0 127 0"/>
<feOffset dx="-23" dy="18"/>
<feGaussianBlur stdDeviation="8.5"/>
<feColorMatrix type="matrix" values="0 0 0 0 0.114236 0 0 0 0 0.291792 0 0 0 0 0.391667 0 0 0 0.3 0"/>
<feBlend mode="normal" in2="BackgroundImageFix" result="effect1_dropShadow"/>
<feColorMatrix in="SourceAlpha" type="matrix" values="0 0 0 0 0 0 0 0 0 0 0 0 0 0 0 0 0 0 127 0"/>
<feOffset dx="-20" dy="20"/>
<feGaussianBlur stdDeviation="4"/>
<feColorMatrix type="matrix" values="0 0 0 0 0.654167 0 0 0 0 0.323922 0 0 0 0 0.0190799 0 0 0 0.21 0"/>
<feBlend mode="normal" in2="effect1_dropShadow" result="effect2_dropShadow"/>
<feColorMatrix in="SourceAlpha" type="matrix" values="0 0 0 0 0 0 0 0 0 0 0 0 0 0 0 0 0 0 127 0"/>
<feOffset/>
<feGaussianBlur stdDeviation="7"/>
<feColorMatrix type="matrix" values="0 0 0 0 0.666667 0 0 0 0 0.352941 0 0 0 0 0.101961 0 0 0 0.2 0"/>
<feBlend mode="normal" in2="effect2_dropShadow" result="effect3_dropShadow"/>
<feColorMatrix in="SourceAlpha" type="matrix" values="0 0 0 0 0 0 0 0 0 0 0 0 0 0 0 0 0 0 127 0"/>
<feOffset dx="6" dy="23"/>
<feGaussianBlur stdDeviation="3.5"/>
<feColorMatrix type="matrix" values="0 0 0 0 0.575 0 0 0 0 0.27419 0 0 0 0 0.0335417 0 0 0 0.1 0"/>
<feBlend mode="normal" in2="effect3_dropShadow" result="effect4_dropShadow"/>
<feBlend mode="normal" in="SourceGraphic" in2="effect4_dropShadow" result="shape"/>
<feColorMatrix in="SourceAlpha" type="matrix" values="0 0 0 0 0 0 0 0 0 0 0 0 0 0 0 0 0 0 127 0" result="hardAlpha"/>
<feOffset dx="-4" dy="4"/>
<feGaussianBlur stdDeviation="5"/>
<feComposite in2="hardAlpha" operator="arithmetic" k2="-1" k3="1"/>
<feColorMatrix type="matrix" values="0 0 0 0 1 0 0 0 0 0.931481 0 0 0 0 0.845833 0 0 0 1 0"/>
<feBlend mode="normal" in2="shape" result="effect5_innerShadow"/>
<feColorMatrix in="SourceAlpha" type="matrix" values="0 0 0 0 0 0 0 0 0 0 0 0 0 0 0 0 0 0 127 0" result="hardAlpha"/>
<feOffset dx="-3" dy="5"/>
<feGaussianBlur stdDeviation="5.5"/>
<feComposite in2="hardAlpha" operator="arithmetic" k2="-1" k3="1"/>
<feColorMatrix type="matrix" values="0 0 0 0 1 0 0 0 0 1 0 0 0 0 1 0 0 0 0.2 0"/>
<feBlend mode="normal" in2="effect5_innerShadow" result="effect6_innerShadow"/>
<feColorMatrix in="SourceAlpha" type="matrix" values="0 0 0 0 0 0 0 0 0 0 0 0 0 0 0 0 0 0 127 0" result="hardAlpha"/>
<feOffset dx="2" dy="-6"/>
<feGaussianBlur stdDeviation="1.5"/>
<feComposite in2="hardAlpha" operator="arithmetic" k2="-1" k3="1"/>
<feColorMatrix type="matrix" values="0 0 0 0 1 0 0 0 0 1 0 0 0 0 1 0 0 0 0.4 0"/>
<feBlend mode="normal" in2="effect6_innerShadow" result="effect7_innerShadow"/>
<feColorMatrix in="SourceAlpha" type="matrix" values="0 0 0 0 0 0 0 0 0 0 0 0 0 0 0 0 0 0 127 0" result="hardAlpha"/>
<feOffset dx="8" dy="-4"/>
<feGaussianBlur stdDeviation="1.5"/>
<feComposite in2="hardAlpha" operator="arithmetic" k2="-1" k3="1"/>
<feColorMatrix type="matrix" values="0 0 0 0 0.925 0 0 0 0 0.749421 0 0 0 0 0.608958 0 0 0 1 0"/>
<feBlend mode="normal" in2="effect7_innerShadow" result="effect8_innerShadow"/>
<feColorMatrix in="SourceAlpha" type="matrix" values="0 0 0 0 0 0 0 0 0 0 0 0 0 0 0 0 0 0 127 0" result="hardAlpha"/>
<feOffset dx="4" dy="-1"/>
<feGaussianBlur stdDeviation="2.5"/>
<feComposite in2="hardAlpha" operator="arithmetic" k2="-1" k3="1"/>
<feColorMatrix type="matrix" values="0 0 0 0 0 0 0 0 0 0 0 0 0 0 0 0 0 0 0.2 0"/>
<feBlend mode="normal" in2="effect8_innerShadow" result="effect9_innerShadow"/>
</filter>
<filter id="filter3_dd" x="395" y="356" width="209" height="64" filterUnits="userSpaceOnUse" color-interpolation-filters="sRGB">
<feFlood flood-opacity="0" result="BackgroundImageFix"/>
<feColorMatrix in="SourceAlpha" type="matrix" values="0 0 0 0 0 0 0 0 0 0 0 0 0 0 0 0 0 0 127 0"/>
<feOffset dy="3"/>
<feGaussianBlur stdDeviation="5"/>
<feColorMatrix type="matrix" values="0 0 0 0 0 0 0 0 0 0 0 0 0 0 0 0 0 0 0.1 0"/>
<feBlend mode="normal" in2="BackgroundImageFix" result="effect1_dropShadow"/>
<feColorMatrix in="SourceAlpha" type="matrix" values="0 0 0 0 0 0 0 0 0 0 0 0 0 0 0 0 0 0 127 0"/>
<feOffset dy="3"/>
<feGaussianBlur stdDeviation="1.5"/>
<feColorMatrix type="matrix" values="0 0 0 0 0 0 0 0 0 0 0 0 0 0 0 0 0 0 0.05 0"/>
<feBlend mode="normal" in2="effect1_dropShadow" result="effect2_dropShadow"/>
<feBlend mode="normal" in="SourceGraphic" in2="effect2_dropShadow" result="shape"/>
</filter>
<filter id="filter4_d" x="879.128" y="379.148" width="73.3641" height="18.9531" filterUnits="userSpaceOnUse" color-interpolation-filters="sRGB">
<feFlood flood-opacity="0" result="BackgroundImageFix"/>
<feColorMatrix in="SourceAlpha" type="matrix" values="0 0 0 0 0 0 0 0 0 0 0 0 0 0 0 0 0 0 127 0"/>
<feOffset dx="2" dy="2"/>
<feGaussianBlur stdDeviation="1"/>
<feColorMatrix type="matrix" values="0 0 0 0 1 0 0 0 0 1 0 0 0 0 1 0 0 0 0.25 0"/>
<feBlend mode="normal" in2="BackgroundImageFix" result="effect1_dropShadow"/>
<feBlend mode="normal" in="SourceGraphic" in2="effect1_dropShadow" result="shape"/>
</filter>
<linearGradient id="paint0_linear" x1="506" y1="0" x2="506" y2="1139.94" gradientUnits="userSpaceOnUse">
<stop stop-color="#A97C24" stop-opacity="0.15"/>
<stop offset="1" stop-color="white" stop-opacity="0"/>
</linearGradient>
<linearGradient id="paint1_linear" x1="506" y1="0" x2="506" y2="925.36" gradientUnits="userSpaceOnUse">
<stop stop-color="#FFDA92" stop-opacity="0.33"/>
<stop offset="1" stop-color="white" stop-opacity="0"/>
</linearGradient>
<linearGradient id="paint2_linear" x1="168.5" y1="-21.6177" x2="56.25" y2="117.717" gradientUnits="userSpaceOnUse">
<stop stop-color="white"/>
<stop offset="1" stop-color="white" stop-opacity="0"/>
</linearGradient>
<linearGradient id="paint3_linear" x1="129.272" y1="36.0242" x2="25.4199" y2="-0.728622" gradientUnits="userSpaceOnUse">
<stop stop-color="white"/>
<stop offset="1" stop-color="white" stop-opacity="0"/>
</linearGradient>
<radialGradient id="paint4_radial" cx="0" cy="0" r="1" gradientUnits="userSpaceOnUse" gradientTransform="translate(93.3131 32.3218) rotate(-124.772) scale(144.329 280.672)">
<stop stop-color="#FFEDC0"/>
<stop offset="1" stop-color="white" stop-opacity="0"/>
</radialGradient>
<radialGradient id="paint5_radial" cx="0" cy="0" r="1" gradientUnits="userSpaceOnUse" gradientTransform="translate(66.831 -2.96201) rotate(-123.008) scale(52.7376 102.557)">
<stop stop-color="#FFAE11" stop-opacity="0.03"/>
<stop offset="1" stop-color="white" stop-opacity="0"/>
</radialGradient>
<linearGradient id="paint6_linear" x1="64.5" y1="61.5" x2="126.088" y2="55.9862" gradientUnits="userSpaceOnUse">
<stop stop-color="#D9AF8E"/>
<stop offset="0.046875" stop-color="#FFEDC2"/>
<stop offset="0.0989583" stop-color="#D9AF8E"/>
<stop offset="0.182292" stop-color="#FFEDC0"/>
<stop offset="0.244792" stop-color="#D9AF8E"/>
<stop offset="0.317708" stop-color="#FFEDC0"/>
<stop offset="0.390625" stop-color="#D9AF8E"/>
<stop offset="0.46875" stop-color="#FFEDC0"/>
<stop offset="0.541667" stop-color="#D9AF8E"/>
<stop offset="0.609375" stop-color="#FFEDC0"/>
<stop offset="0.666667" stop-color="#D9AF8E"/>
<stop offset="0.739583" stop-color="#FFEDC0"/>
<stop offset="0.828125" stop-color="#D9AF8E"/>
<stop offset="0.911458" stop-color="#FFEDC0"/>
<stop offset="1" stop-color="#D9AF8E"/>
</linearGradient>
<linearGradient id="paint7_linear" x1="854.203" y1="165.186" x2="1019.78" y2="210.292" gradientUnits="userSpaceOnUse">
<stop stop-color="white"/>
<stop offset="1" stop-color="white" stop-opacity="0"/>
</linearGradient>
<linearGradient id="paint8_linear" x1="897.691" y1="226.478" x2="1007.49" y2="217.481" gradientUnits="userSpaceOnUse">
<stop stop-color="white"/>
<stop offset="1" stop-color="white" stop-opacity="0"/>
</linearGradient>
<radialGradient id="paint9_radial" cx="0" cy="0" r="1" gradientUnits="userSpaceOnUse" gradientTransform="translate(932.013 215.13) rotate(31.0508) scale(96.7988 188.241)">
<stop stop-color="#FFEFC6"/>
<stop offset="1" stop-color="white" stop-opacity="0"/>
</radialGradient>
<radialGradient id="paint10_radial" cx="0" cy="0" r="1" gradientUnits="userSpaceOnUse" gradientTransform="translate(970.622 236.476) rotate(32.8188) scale(52.7376 102.557)">
<stop stop-color="#FFAE11" stop-opacity="0.03"/>
<stop offset="1" stop-color="white" stop-opacity="0"/>
</radialGradient>
<clipPath id="clip0">
<rect width="1012" height="345" fill="white"/>
</clipPath>
</defs>
<style type="text/css">

@keyframes enter {
0% {transform: translate3d(0,80px,0) scale(.6); opacity:.5;}
100% {transform: translate3d(0,0,0) scale(1); opacity:1;}
}
@keyframes indicator {
  from {
    transform: scale(0) ;
  }

  to {
    transform: scale(1) ;
	 opacity: 1;
  }
}

@keyframes pulse {
  0%, 100% {
    transform: scale(1) ;
  }

  50% {
    transform: scale(1.1) ;
  }
}



@keyframes text-in {
0% {transform: translate3d(0,-2px,0); opacity:0;}
100% {transform: translate3d(0,0,0); opacity:1;}
}

@keyframes text-out {
0% {transform: translate3d(0,0px,0); opacity:1;}
100% {transform: translate3d(0,2px,0); opacity:0;}
}

@keyframes spin {
  from {
    transform: rotate(0deg);
  }
  to {
    transform: rotate(360deg);
  }
}


#checkmark-group, #checkmark, #toast, #progress, #try-out-button  { 
  transform-box: fill-box;
  transform-origin: center center;
}

#checkmark-group {
   opacity: 0;

   filter: blur(10px);
   animation: indicator 0.35s 1.5s cubic-bezier(.21,1.02,.73,1) forwards; 
}
#checkmark {
   opacity: 0;
    animation: indicator 0.2s 1.12s cubic-bezier(.21,1.02,.73,1) forwards; 
}


#success-text {
   opacity: 0;
    animation: text-in 0.1s 1.5s ease-out forwards; 
}
#loading-text {
   opacity: 1;
   animation: text-out 0.1s 1.25s ease-out forwards; 
}


#progress {
   transform-origin: 0px 5px;
   animation: spin 1s linear infinite;
}

#toast {
   opacity: 0;
  animation: enter 0.35s 0.5s cubic-bezier(.21,1.02,.73,1) forwards;
}

#try-out-button {
   cursor: pointer;
   animation: pulse 0.3s 2s ease-in-out;
}     
</style>
</svg>