<svg width="838" height="370" viewBox="0 0 838 370" fill="none" xmlns="http://www.w3.org/2000/svg">
<g id="header">
<g id="blob" opacity="0.2">
<path d="M231.206 100.05C231.206 156.659 156.206 218.562 112.706 202.55C69.2062 186.538 23.7062 188.5 12.2062 146C0.706177 103.5 19.298 65.0502 81.7061 65.0502C144.114 65.0502 231.206 43.441 231.206 100.05Z" fill="#805E16" fill-opacity="0.38"/>
<path d="M231.206 100.05C231.206 156.659 156.206 218.562 112.706 202.55C69.2062 186.538 23.7062 188.5 12.2062 146C0.706177 103.5 19.298 65.0502 81.7061 65.0502C144.114 65.0502 231.206 43.441 231.206 100.05Z" fill="url(#paint0_linear)" fill-opacity="0.3"/>
</g>
<g id="blob_2" opacity="0.2">
<path d="M803.5 256C799 312 689.201 283.68 659.078 248.449C628.955 213.218 589.268 237.42 600.008 194.722C610.749 152.023 645.762 127.567 700.208 158.071C754.653 188.575 808 200 803.5 256Z" fill="#805E16" fill-opacity="0.38"/>
<path d="M803.5 256C799 312 689.201 283.68 659.078 248.449C628.955 213.218 589.268 237.42 600.008 194.722C610.749 152.023 645.762 127.567 700.208 158.071C754.653 188.575 808 200 803.5 256Z" fill="url(#paint1_linear)" fill-opacity="0.3"/>
</g>
<g id="blob_3" opacity="0.2">
<path d="M54 193.252C54 197.965 48.0238 206.833 44.5 205.5C40.9762 204.167 37.1913 200.616 36.2597 197.078C35.3282 193.539 36.8342 190.337 41.8896 190.337C46.945 190.337 54 188.538 54 193.252Z" fill="#805E16" fill-opacity="0.38"/>
<path d="M54 193.252C54 197.965 48.0238 206.833 44.5 205.5C40.9762 204.167 37.1913 200.616 36.2597 197.078C35.3282 193.539 36.8342 190.337 41.8896 190.337C46.945 190.337 54 188.538 54 193.252Z" fill="url(#paint2_linear)" fill-opacity="0.3"/>
</g>
<g id="blob_4" opacity="0.2">
<path d="M30.8524 188.391C29.5755 194.301 22.7964 188.809 21.4504 186.77C20.1044 184.732 20.2806 180.416 22.3244 179.378C24.3683 178.341 25.6015 178.367 28.2588 180.286C30.9161 182.205 32.1293 182.482 30.8524 188.391Z" fill="#805E16" fill-opacity="0.38"/>
<path d="M30.8524 188.391C29.5755 194.301 22.7964 188.809 21.4504 186.77C20.1044 184.732 20.2806 180.416 22.3244 179.378C24.3683 178.341 25.6015 178.367 28.2588 180.286C30.9161 182.205 32.1293 182.482 30.8524 188.391Z" fill="url(#paint3_linear)" fill-opacity="0.3"/>
</g>
<g id="header_2">
<g clip-path="url(#clip0)">
<path d="M45 18C45 8.05888 53.0589 0 63 0H775C784.941 0 793 8.05887 793 18V352C793 361.941 784.941 370 775 370H63C53.0589 370 45 361.941 45 352V18Z" fill="url(#paint4_linear)"/>
<g id="content" clip-path="url(#clip1)">
<rect width="1012" height="306" transform="translate(-87 -16)" fill="white"/>
<rect width="1012" height="306" transform="translate(-87 -16)" fill="url(#paint5_linear)"/>
<g id="blob_5" opacity="0.4">
<path d="M184.5 59.4325C184.5 116.042 147.5 191.933 66 161.932C-15.5 131.932 -46 151.542 -46 94.9325C-46 38.3233 -27.4082 24.4325 35 24.4325C97.4081 24.4325 184.5 2.82332 184.5 59.4325Z" fill="#C5A255" fill-opacity="0.38"/>
<path d="M184.5 59.4325C184.5 116.042 147.5 191.933 66 161.932C-15.5 131.932 -46 151.542 -46 94.9325C-46 38.3233 -27.4082 24.4325 35 24.4325C97.4081 24.4325 184.5 2.82332 184.5 59.4325Z" fill="url(#paint6_linear)" fill-opacity="0.3"/>
</g>
<g id="logo">
<path id="Vector 17" d="M391.768 -131V196.85H445.899V-131H391.768Z" stroke="#A2724E" stroke-width="3.492"/>
<g id="Frame 10">
<g id="Frame 7">
<rect x="354.848" y="67.4944" width="125.944" height="45.6871" rx="5.10669" transform="rotate(-3 354.848 67.4944)" fill="#482307"/>
<g id="Frame 46" clip-path="url(#clip2)">
<g id="REACT">
<path d="M387.27 98.1633C387.333 98.2746 387.368 98.3968 387.375 98.5301C387.382 98.6634 387.322 98.8001 387.196 98.9404C387.087 99.0606 386.948 99.1252 386.776 99.1342L380.922 99.441C380.332 99.4719 379.909 99.2364 379.653 98.7343L376.912 93.4084L375.741 93.4697L376.027 98.9244C376.038 99.1338 375.971 99.3186 375.827 99.4789C375.682 99.6392 375.505 99.7249 375.296 99.7358L369.698 100.029C369.489 100.04 369.304 99.9735 369.144 99.8292C368.984 99.6848 368.898 99.508 368.887 99.2985L367.92 80.8499C367.909 80.6404 367.976 80.4556 368.12 80.2953C368.264 80.135 368.441 80.0494 368.651 80.0384L377.104 79.5954C379.846 79.4517 382.02 79.9582 383.627 81.1149C385.233 82.2526 386.096 83.9733 386.217 86.277C386.337 88.5616 385.403 90.4147 383.416 91.8361L387.27 98.1633ZM375.298 85.0165L375.456 88.0436L377.541 87.9344C377.96 87.9124 378.277 87.7622 378.491 87.4837C378.705 87.1861 378.8 86.8279 378.778 86.4091C378.756 85.9902 378.623 85.6345 378.379 85.3418C378.152 85.0291 377.82 84.8843 377.382 84.9072L375.298 85.0165Z" fill="white"/>
<path d="M396.685 93.0307L405.481 92.5697C405.691 92.5588 405.875 92.6254 406.036 92.7698C406.196 92.9141 406.282 93.091 406.293 93.3004L406.504 97.3271C406.515 97.5366 406.448 97.7214 406.304 97.8817C406.159 98.042 405.982 98.1276 405.773 98.1386L390.894 98.9184C390.685 98.9294 390.5 98.8627 390.339 98.7183C390.179 98.574 390.094 98.3971 390.083 98.1877L389.116 79.7391C389.105 79.5296 389.171 79.3448 389.316 79.1845C389.46 79.0242 389.637 78.9385 389.846 78.9276L404.497 78.1598C404.706 78.1488 404.891 78.2155 405.051 78.3598C405.212 78.5041 405.297 78.681 405.308 78.8904L405.519 82.9172C405.53 83.1266 405.464 83.3114 405.319 83.4717C405.175 83.632 404.998 83.7177 404.789 83.7286L396.221 84.1776L396.315 85.9768L404.255 85.5607C404.464 85.5498 404.649 85.6164 404.809 85.7608C404.97 85.9051 405.055 86.082 405.066 86.2914L405.261 90.004C405.272 90.2134 405.205 90.3983 405.061 90.5586C404.916 90.7189 404.739 90.8045 404.53 90.8155L396.591 91.2315L396.685 93.0307Z" fill="white"/>
<path d="M415.187 77.5996L421.384 77.2748C422.069 77.2389 422.514 77.5305 422.718 78.1498L430.042 96.0363C430.064 96.0924 430.078 96.1871 430.085 96.3204C430.091 96.4346 430.031 96.5618 429.905 96.7021C429.796 96.8223 429.657 96.8869 429.485 96.8959L424.202 97.1728C423.631 97.2027 423.247 96.9842 423.051 96.5172L422.267 94.6683L416.127 94.9901L415.54 96.9108C415.394 97.3958 415.035 97.6532 414.464 97.6831L409.18 97.96C409.009 97.969 408.854 97.9199 408.714 97.8126C408.593 97.6853 408.53 97.5646 408.524 97.4504C408.517 97.3171 408.521 97.2214 408.537 97.1633L413.951 78.6093C414.089 77.9721 414.501 77.6355 415.187 77.5996ZM417.291 89.3449L420.518 89.1757L418.612 83.9492L417.291 89.3449Z" fill="white"/>
<path d="M438.607 83.9895L438.859 88.7873C438.939 90.3294 439.684 91.0636 441.093 90.9898C442.178 90.9329 442.865 90.3814 443.154 89.3354C443.232 89.0067 443.335 88.7818 443.462 88.6606C443.609 88.5383 443.844 88.4688 444.167 88.4518L449.993 88.1465C450.165 88.1375 450.311 88.1966 450.432 88.3239C450.571 88.4312 450.645 88.5705 450.654 88.7418C450.741 90.3982 450.338 91.813 449.445 92.9862C447.803 95.1722 445.126 96.3626 441.413 96.5571C438.501 96.7098 436.144 96.1937 434.345 95.0089C432.545 93.8051 431.575 91.8704 431.435 89.205L431.18 84.3501C431.044 81.7418 431.826 79.7344 433.528 78.3279C435.23 76.9214 437.499 76.1438 440.336 75.9952C444.048 75.8006 446.835 76.7045 448.697 78.707C449.708 79.7804 450.256 81.1453 450.343 82.8017C450.352 82.9731 450.293 83.1289 450.167 83.2691C450.059 83.3893 449.919 83.4539 449.748 83.4629L443.922 83.7682C443.617 83.7842 443.386 83.7391 443.228 83.6328C443.088 83.5256 442.953 83.3131 442.822 82.9954C442.406 81.9863 441.665 81.5096 440.599 81.5655C439.19 81.6394 438.526 82.4474 438.607 83.9895Z" fill="white"/>
<path d="M452.462 75.646L469.197 74.769C469.406 74.758 469.591 74.8247 469.751 74.969C469.912 75.1134 469.997 75.2902 470.008 75.4997L470.249 80.0975C470.26 80.307 470.193 80.4918 470.049 80.6521C469.905 80.8124 469.728 80.8981 469.519 80.909L464.778 81.1575L465.463 94.2372C465.474 94.4466 465.408 94.6315 465.263 94.7918C465.119 94.9521 464.942 95.0377 464.733 95.0487L459.021 95.348C458.812 95.359 458.627 95.2923 458.466 95.148C458.306 95.0036 458.22 94.8268 458.209 94.6173L457.524 81.5376L452.783 81.7861C452.574 81.7971 452.389 81.7304 452.229 81.5861C452.068 81.4417 451.983 81.2648 451.972 81.0554L451.731 76.4575C451.72 76.2481 451.787 76.0632 451.931 75.903C452.075 75.7427 452.252 75.657 452.462 75.646Z" fill="white"/>
</g>
</g>
</g>
<g id="Frame 10_2">
<rect x="377.211" y="118.736" width="85.1995" height="44.6424" rx="5.10669" transform="rotate(2.18561 377.211 118.736)" fill="#E15549"/>
<g id="Frame 46_2">
<g id="REACT_2">
<path d="M401.568 131.879L407.169 132.093C407.379 132.101 407.557 132.184 407.704 132.342C407.85 132.5 407.92 132.684 407.912 132.894L407.207 151.354C407.199 151.564 407.116 151.742 406.958 151.889C406.799 152.035 406.616 152.104 406.406 152.096L400.805 151.883C400.595 151.875 400.417 151.792 400.271 151.633C400.124 151.475 400.055 151.291 400.063 151.082L400.298 144.909L395.669 144.732L395.433 150.905C395.425 151.115 395.342 151.293 395.184 151.439C395.026 151.586 394.842 151.655 394.632 151.647L389.031 151.433C388.822 151.425 388.643 151.352 388.496 151.213C388.349 151.054 388.281 150.861 388.289 150.632L388.994 132.172C389.002 131.962 389.085 131.784 389.243 131.638C389.401 131.491 389.585 131.422 389.795 131.43L395.396 131.643C395.605 131.651 395.784 131.735 395.93 131.893C396.077 132.051 396.146 132.235 396.138 132.444L395.909 138.446L400.538 138.622L400.767 132.621C400.775 132.412 400.859 132.234 401.017 132.087C401.175 131.94 401.359 131.871 401.568 131.879Z" fill="white"/>
<path d="M413.615 134.17C415.421 132.827 417.763 132.211 420.64 132.321C423.516 132.431 425.794 133.233 427.474 134.728C429.172 136.205 429.973 138.229 429.875 140.801L429.705 145.259C429.605 147.869 428.662 149.826 426.876 151.132C425.11 152.419 422.769 153.007 419.855 152.896C416.94 152.785 414.641 152.02 412.959 150.601C411.297 149.164 410.516 147.14 410.615 144.53L410.785 140.072C410.884 137.481 411.827 135.514 413.615 134.17ZM418.546 146.693C418.912 147.089 419.419 147.299 420.067 147.323C420.715 147.348 421.237 147.177 421.632 146.811C422.028 146.444 422.24 145.871 422.27 145.089L422.453 140.289C422.483 139.527 422.314 138.948 421.947 138.552C421.582 138.138 421.075 137.918 420.427 137.893C419.779 137.868 419.257 138.049 418.861 138.434C418.465 138.801 418.253 139.365 418.224 140.127L418.041 144.928C418.011 145.709 418.179 146.297 418.546 146.693Z" fill="white"/>
<path d="M433.083 133.082L449.829 133.721C450.038 133.729 450.217 133.812 450.363 133.97C450.51 134.128 450.579 134.312 450.571 134.522L450.395 139.123C450.387 139.332 450.304 139.51 450.146 139.657C449.988 139.804 449.804 139.873 449.594 139.865L444.851 139.684L444.351 152.772C444.343 152.982 444.26 153.16 444.102 153.306C443.944 153.453 443.76 153.522 443.55 153.514L437.835 153.296C437.625 153.288 437.447 153.205 437.301 153.047C437.154 152.888 437.085 152.704 437.093 152.495L437.592 139.407L432.848 139.226C432.639 139.218 432.461 139.135 432.314 138.976C432.168 138.818 432.098 138.634 432.106 138.425L432.282 133.824C432.29 133.614 432.373 133.436 432.531 133.29C432.689 133.143 432.873 133.074 433.083 133.082Z" fill="white"/>
</g>
</g>
</g>
<g id="Frame 11">
<rect x="355.568" y="174.411" width="125.944" height="45.6871" rx="5.10669" transform="rotate(-1 355.568 174.411)" fill="#482307"/>
<g id="Frame 46_3">
<g id="REACT_3">
<path d="M368.008 187.445L384.763 187.152C384.973 187.149 385.155 187.222 385.311 187.372C385.466 187.521 385.545 187.701 385.549 187.911L385.629 192.514C385.633 192.724 385.56 192.906 385.41 193.062C385.26 193.217 385.08 193.296 384.871 193.3L380.124 193.383L380.353 206.478C380.356 206.688 380.283 206.87 380.133 207.026C379.984 207.181 379.804 207.26 379.594 207.264L373.876 207.364C373.666 207.367 373.483 207.294 373.328 207.144C373.173 206.995 373.094 206.815 373.09 206.605L372.861 193.509L368.115 193.592C367.905 193.596 367.723 193.523 367.568 193.373C367.413 193.223 367.333 193.043 367.33 192.834L367.249 188.23C367.246 188.021 367.319 187.838 367.468 187.683C367.618 187.528 367.798 187.448 368.008 187.445Z" fill="white"/>
<path d="M390.319 188.886C392.048 187.445 394.352 186.699 397.23 186.649C400.109 186.598 402.428 187.273 404.187 188.672C405.966 190.052 406.877 192.029 406.922 194.602L407 199.063C407.046 201.675 406.213 203.682 404.503 205.084C402.811 206.468 400.506 207.185 397.59 207.236C394.673 207.287 392.336 206.651 390.578 205.327C388.838 203.985 387.946 202.008 387.9 199.396L387.822 194.936C387.777 192.343 388.609 190.327 390.319 188.886ZM395.939 201.115C396.326 201.49 396.844 201.671 397.493 201.66C398.141 201.649 398.652 201.449 399.027 201.061C399.401 200.673 399.582 200.089 399.568 199.307L399.484 194.503C399.471 193.741 399.27 193.172 398.882 192.798C398.494 192.404 397.976 192.213 397.328 192.224C396.68 192.236 396.169 192.445 395.794 192.852C395.42 193.24 395.239 193.815 395.252 194.577L395.336 199.381C395.35 200.163 395.551 200.741 395.939 201.115Z" fill="white"/>
<path d="M416.187 186.604L422.392 186.496C423.078 186.484 423.513 186.791 423.695 187.417L430.39 205.548C430.41 205.605 430.421 205.7 430.423 205.833C430.425 205.948 430.361 206.073 430.23 206.208C430.117 206.325 429.975 206.384 429.804 206.387L424.514 206.48C423.942 206.49 423.566 206.258 423.387 205.784L422.667 203.909L416.52 204.017L415.867 205.916C415.703 206.395 415.336 206.64 414.764 206.65L409.474 206.742C409.303 206.745 409.149 206.691 409.014 206.579C408.897 206.447 408.838 206.324 408.836 206.21C408.833 206.077 408.841 205.981 408.859 205.924L414.917 187.57C415.078 186.938 415.501 186.616 416.187 186.604ZM417.881 198.415L421.112 198.359L419.389 193.069L417.881 198.415Z" fill="white"/>
<path d="M431.971 192.621C431.937 190.676 432.71 189.08 434.29 187.832C435.889 186.584 437.994 185.937 440.605 185.892C443.236 185.846 445.392 186.447 447.072 187.695C448.772 188.943 449.634 190.263 449.658 191.654C449.661 191.826 449.597 191.979 449.466 192.115C449.354 192.232 449.221 192.291 449.069 192.294L443.35 192.394C442.912 192.401 442.509 192.246 442.141 191.928C441.773 191.611 441.284 191.457 440.674 191.468C439.759 191.484 439.306 191.759 439.316 192.292C439.321 192.578 439.544 192.813 439.986 192.996C440.447 193.178 441.288 193.335 442.511 193.466C445.357 193.779 447.39 194.411 448.608 195.362C449.844 196.294 450.48 197.742 450.514 199.705C450.548 201.649 449.68 203.257 447.909 204.527C446.158 205.778 443.843 206.428 440.965 206.479C438.086 206.529 435.817 205.977 434.157 204.824C432.497 203.671 431.652 202.246 431.623 200.55C431.62 200.378 431.675 200.234 431.787 200.118C431.918 199.982 432.069 199.912 432.241 199.909L437.674 199.815C438.074 199.808 438.516 199.991 438.999 200.364C439.501 200.736 440.181 200.915 441.039 200.9C442.469 200.875 443.179 200.596 443.169 200.062C443.163 199.719 442.902 199.466 442.384 199.303C441.866 199.122 440.89 198.948 439.457 198.782C434.528 198.22 432.033 196.166 431.971 192.621Z" fill="white"/>
<path d="M452.754 185.966L469.51 185.673C469.719 185.669 469.902 185.743 470.057 185.892C470.212 186.042 470.291 186.222 470.295 186.432L470.375 191.035C470.379 191.245 470.306 191.427 470.156 191.582C470.006 191.738 469.827 191.817 469.617 191.821L464.87 191.903L465.099 204.999C465.103 205.209 465.03 205.391 464.88 205.546C464.73 205.702 464.55 205.781 464.34 205.785L458.622 205.884C458.412 205.888 458.23 205.815 458.075 205.665C457.919 205.515 457.84 205.336 457.836 205.126L457.608 192.03L452.861 192.113C452.652 192.117 452.469 192.044 452.314 191.894C452.159 191.744 452.079 191.564 452.076 191.355L451.995 186.751C451.992 186.541 452.065 186.359 452.215 186.204C452.365 186.049 452.544 185.969 452.754 185.966Z" fill="white"/>
</g>
</g>
</g>
</g>
</g>
<g id="butter-1-shadow" filter="url(#filter0_dddd)">
<path d="M63.4889 109.687L75.967 137.476C77.1911 140.203 81.061 140.204 82.2878 137.479C83.003 135.891 84.7863 135.08 86.4533 135.586L88.8794 136.322C90.6042 136.845 92.4659 136.15 93.4259 134.625L94.9464 132.208C95.7162 130.985 97.3087 130.578 98.5707 131.283L98.9379 131.488C100.474 132.345 102.386 131.346 102.558 129.595C102.696 128.194 103.986 127.199 105.376 127.423L108.43 127.913C110.117 128.184 111.761 127.231 112.363 125.632L113.428 122.804C113.941 121.444 115.74 121.159 116.647 122.295C117.564 123.443 119.384 123.139 119.878 121.756L120.274 120.646C120.665 119.552 121.75 118.864 122.906 118.978L124.773 119.161C126.281 119.309 127.743 118.593 128.55 117.311L129.97 115.054C130.809 113.72 132.409 113.073 133.94 113.449L135.669 113.872C136.857 114.164 138.036 113.361 138.2 112.148C138.349 111.05 139.34 110.267 140.443 110.375L142.593 110.587C143.945 110.72 145.272 110.157 146.116 109.094L146.202 108.986C147.117 107.834 147.326 106.273 146.746 104.921L129.678 65.1463L112.864 25.9611C112.206 24.4277 110.424 23.7259 108.897 24.3991L70.0324 41.5367L41.9973 53.3366C39.9226 54.2099 38.9767 56.6223 39.905 58.6729L42.2509 63.8553L63.4889 109.687Z" fill="#FFE7BD"/>
<path d="M63.4889 109.687L75.967 137.476C77.1911 140.203 81.061 140.204 82.2878 137.479C83.003 135.891 84.7863 135.08 86.4533 135.586L88.8794 136.322C90.6042 136.845 92.4659 136.15 93.4259 134.625L94.9464 132.208C95.7162 130.985 97.3087 130.578 98.5707 131.283L98.9379 131.488C100.474 132.345 102.386 131.346 102.558 129.595C102.696 128.194 103.986 127.199 105.376 127.423L108.43 127.913C110.117 128.184 111.761 127.231 112.363 125.632L113.428 122.804C113.941 121.444 115.74 121.159 116.647 122.295C117.564 123.443 119.384 123.139 119.878 121.756L120.274 120.646C120.665 119.552 121.75 118.864 122.906 118.978L124.773 119.161C126.281 119.309 127.743 118.593 128.55 117.311L129.97 115.054C130.809 113.72 132.409 113.073 133.94 113.449L135.669 113.872C136.857 114.164 138.036 113.361 138.2 112.148C138.349 111.05 139.34 110.267 140.443 110.375L142.593 110.587C143.945 110.72 145.272 110.157 146.116 109.094L146.202 108.986C147.117 107.834 147.326 106.273 146.746 104.921L129.678 65.1463L112.864 25.9611C112.206 24.4277 110.424 23.7259 108.897 24.3991L70.0324 41.5367L41.9973 53.3366C39.9226 54.2099 38.9767 56.6223 39.905 58.6729L42.2509 63.8553L63.4889 109.687Z" fill="url(#paint7_linear)"/>
<path d="M63.4889 109.687L75.967 137.476C77.1911 140.203 81.061 140.204 82.2878 137.479C83.003 135.891 84.7863 135.08 86.4533 135.586L88.8794 136.322C90.6042 136.845 92.4659 136.15 93.4259 134.625L94.9464 132.208C95.7162 130.985 97.3087 130.578 98.5707 131.283L98.9379 131.488C100.474 132.345 102.386 131.346 102.558 129.595C102.696 128.194 103.986 127.199 105.376 127.423L108.43 127.913C110.117 128.184 111.761 127.231 112.363 125.632L113.428 122.804C113.941 121.444 115.74 121.159 116.647 122.295C117.564 123.443 119.384 123.139 119.878 121.756L120.274 120.646C120.665 119.552 121.75 118.864 122.906 118.978L124.773 119.161C126.281 119.309 127.743 118.593 128.55 117.311L129.97 115.054C130.809 113.72 132.409 113.073 133.94 113.449L135.669 113.872C136.857 114.164 138.036 113.361 138.2 112.148C138.349 111.05 139.34 110.267 140.443 110.375L142.593 110.587C143.945 110.72 145.272 110.157 146.116 109.094L146.202 108.986C147.117 107.834 147.326 106.273 146.746 104.921L129.678 65.1463L112.864 25.9611C112.206 24.4277 110.424 23.7259 108.897 24.3991L70.0324 41.5367L41.9973 53.3366C39.9226 54.2099 38.9767 56.6223 39.905 58.6729L42.2509 63.8553L63.4889 109.687Z" fill="url(#paint8_radial)"/>
<path d="M63.4889 109.687L75.967 137.476C77.1911 140.203 81.061 140.204 82.2878 137.479C83.003 135.891 84.7863 135.08 86.4533 135.586L88.8794 136.322C90.6042 136.845 92.4659 136.15 93.4259 134.625L94.9464 132.208C95.7162 130.985 97.3087 130.578 98.5707 131.283L98.9379 131.488C100.474 132.345 102.386 131.346 102.558 129.595C102.696 128.194 103.986 127.199 105.376 127.423L108.43 127.913C110.117 128.184 111.761 127.231 112.363 125.632L113.428 122.804C113.941 121.444 115.74 121.159 116.647 122.295C117.564 123.443 119.384 123.139 119.878 121.756L120.274 120.646C120.665 119.552 121.75 118.864 122.906 118.978L124.773 119.161C126.281 119.309 127.743 118.593 128.55 117.311L129.97 115.054C130.809 113.72 132.409 113.073 133.94 113.449L135.669 113.872C136.857 114.164 138.036 113.361 138.2 112.148C138.349 111.05 139.34 110.267 140.443 110.375L142.593 110.587C143.945 110.72 145.272 110.157 146.116 109.094L146.202 108.986C147.117 107.834 147.326 106.273 146.746 104.921L129.678 65.1463L112.864 25.9611C112.206 24.4277 110.424 23.7259 108.897 24.3991L70.0324 41.5367L41.9973 53.3366C39.9226 54.2099 38.9767 56.6223 39.905 58.6729L42.2509 63.8553L63.4889 109.687Z" fill="url(#paint9_radial)"/>
</g>
</g>
<g id="butter-2">
<g id="Ellipse 6" opacity="0.3">
<path d="M660.966 100.732C711.653 75.526 814.116 68.0263 820.091 147.417C826.066 226.807 834.688 240.794 784 266C733.312 291.206 715.005 288.007 689.861 237.443C664.716 186.879 610.278 125.938 660.966 100.732Z" fill="#C5A255" fill-opacity="0.38"/>
<path d="M660.966 100.732C711.653 75.526 814.116 68.0263 820.091 147.417C826.066 226.807 834.688 240.794 784 266C733.312 291.206 715.005 288.007 689.861 237.443C664.716 186.879 610.278 125.938 660.966 100.732Z" fill="url(#paint10_linear)" fill-opacity="0.3"/>
</g>
</g>
<g id="toast-container" clip-path="url(#clip3)">
<g id="toast">
<g id="base" filter="url(#filter1_dd)">
<rect x="308" y="308" width="209" height="44" rx="8" fill="white"/>
</g>
<path id="loading-text" d="M384.062 335V323.727H381.734L378.281 332.328H378.219L374.766 323.727H372.43V335H374.25V327H374.305L377.562 335H378.938L382.195 327H382.25V335H384.062ZM388.094 335.133C389.156 335.133 390.195 334.578 390.672 333.68H390.711V335H392.586V329.297C392.586 327.633 391.25 326.547 389.195 326.547C387.086 326.547 385.766 327.656 385.68 329.203H387.484C387.609 328.516 388.195 328.07 389.117 328.07C390.078 328.07 390.664 328.57 390.664 329.438V330.031L388.477 330.156C386.461 330.281 385.328 331.164 385.328 332.633C385.328 334.125 386.492 335.133 388.094 335.133ZM388.68 333.664C387.836 333.664 387.273 333.234 387.273 332.555C387.273 331.898 387.812 331.477 388.75 331.414L390.664 331.297V331.93C390.664 332.93 389.781 333.664 388.68 333.664ZM396.18 330.172H396.156V323.727H394.211V335H396.156V332.125L396.812 331.461L399.43 335H401.68L398.227 330.281L401.539 326.719H399.297L396.18 330.172ZM403.469 325.469C404.062 325.469 404.531 324.992 404.531 324.414C404.531 323.828 404.062 323.359 403.469 323.359C402.875 323.359 402.398 323.828 402.398 324.414C402.398 324.992 402.875 325.469 403.469 325.469ZM402.5 335H404.445V326.719H402.5V335ZM406.078 335H408.023V330.203C408.023 329.016 408.734 328.211 409.852 328.211C410.961 328.211 411.508 328.867 411.508 330.039V335H413.453V329.648C413.453 327.734 412.414 326.562 410.586 326.562C409.312 326.562 408.43 327.156 407.984 328.141H407.945V326.719H406.078V335ZM418.664 338.125C421.078 338.125 422.664 336.844 422.664 334.867V326.719H420.758V328.141H420.727C420.25 327.188 419.297 326.578 418.117 326.578C416 326.578 414.672 328.211 414.672 330.828C414.672 333.406 416.031 335.008 418.078 335.008C419.266 335.008 420.242 334.414 420.672 333.523H420.719V334.922C420.719 335.977 419.992 336.688 418.727 336.688C417.805 336.688 417.094 336.258 416.883 335.625H414.953C415.148 337.078 416.617 338.125 418.664 338.125ZM418.672 333.461C417.445 333.461 416.664 332.477 416.664 330.836C416.664 329.211 417.445 328.18 418.672 328.18C419.914 328.18 420.719 329.227 420.719 330.836C420.719 332.453 419.914 333.461 418.672 333.461ZM427.992 324.781V326.719H426.805V328.219H427.992V332.797C427.992 334.406 428.695 335.039 430.484 335.039C430.898 335.039 431.281 335.008 431.492 334.961V333.477C431.367 333.5 431.117 333.516 430.938 333.516C430.25 333.516 429.938 333.203 429.938 332.523V328.219H431.5V326.719H429.938V324.781H427.992ZM436.336 335.164C438.766 335.164 440.344 333.547 440.344 330.859C440.344 328.18 438.75 326.547 436.336 326.547C433.922 326.547 432.328 328.188 432.328 330.859C432.328 333.547 433.906 335.164 436.336 335.164ZM436.336 333.625C435.102 333.625 434.305 332.625 434.305 330.859C434.305 329.102 435.109 328.094 436.336 328.094C437.57 328.094 438.367 329.102 438.367 330.859C438.367 332.625 437.57 333.625 436.336 333.625ZM444.031 335.133C445.094 335.133 446.133 334.578 446.609 333.68H446.648V335H448.523V329.297C448.523 327.633 447.188 326.547 445.133 326.547C443.023 326.547 441.703 327.656 441.617 329.203H443.422C443.547 328.516 444.133 328.07 445.055 328.07C446.016 328.07 446.602 328.57 446.602 329.438V330.031L444.414 330.156C442.398 330.281 441.266 331.164 441.266 332.633C441.266 334.125 442.43 335.133 444.031 335.133ZM444.617 333.664C443.773 333.664 443.211 333.234 443.211 332.555C443.211 331.898 443.75 331.477 444.688 331.414L446.602 331.297V331.93C446.602 332.93 445.719 333.664 444.617 333.664ZM449.945 329.094C449.945 330.32 450.742 331.102 452.328 331.453L453.703 331.758C454.57 331.953 454.867 332.234 454.867 332.734C454.867 333.352 454.281 333.742 453.336 333.742C452.352 333.742 451.797 333.336 451.648 332.531H449.734C449.891 334.133 451.172 335.164 453.336 335.164C455.367 335.164 456.805 334.109 456.805 332.547C456.805 331.344 456.141 330.68 454.422 330.297L453.047 329.992C452.18 329.797 451.836 329.469 451.836 328.992C451.836 328.383 452.406 327.977 453.266 327.977C454.164 327.977 454.719 328.453 454.797 329.203H456.609C456.562 327.633 455.281 326.547 453.266 326.547C451.266 326.547 449.945 327.578 449.945 329.094ZM458.586 324.781V326.719H457.398V328.219H458.586V332.797C458.586 334.406 459.289 335.039 461.078 335.039C461.492 335.039 461.875 335.008 462.086 334.961V333.477C461.961 333.5 461.711 333.516 461.531 333.516C460.844 333.516 460.531 333.203 460.531 332.523V328.219H462.094V326.719H460.531V324.781H458.586ZM464.781 335.086C465.406 335.086 465.898 334.594 465.898 333.961C465.898 333.336 465.406 332.836 464.781 332.836C464.148 332.836 463.656 333.336 463.656 333.961C463.656 334.594 464.148 335.086 464.781 335.086ZM469.094 335.086C469.719 335.086 470.211 334.594 470.211 333.961C470.211 333.336 469.719 332.836 469.094 332.836C468.461 332.836 467.969 333.336 467.969 333.961C467.969 334.594 468.461 335.086 469.094 335.086ZM473.406 335.086C474.031 335.086 474.523 334.594 474.523 333.961C474.523 333.336 474.031 332.836 473.406 332.836C472.773 332.836 472.281 333.336 472.281 333.961C472.281 334.594 472.773 335.086 473.406 335.086Z" fill="#363636"/>
<path id="success-text" d="M371.539 335V323.727H369.531V328.414H364.047V323.727H362.031V335H364.047V330.109H369.531V335H371.539ZM378.82 332.523C378.609 333.211 377.922 333.664 377.016 333.664C375.742 333.664 374.93 332.773 374.93 331.445V331.328H380.719V330.695C380.719 328.18 379.25 326.547 376.898 326.547C374.508 326.547 372.992 328.273 372.992 330.891C372.992 333.531 374.492 335.164 376.977 335.164C378.938 335.164 380.391 334.086 380.641 332.523H378.82ZM376.906 328.055C378.023 328.055 378.773 328.875 378.812 330.047H374.945C375.023 328.891 375.812 328.055 376.906 328.055ZM381.977 335H383.922V330.18C383.922 329.016 384.586 328.305 385.688 328.305C386.016 328.305 386.312 328.352 386.477 328.414V326.656C386.336 326.625 386.117 326.578 385.867 326.578C384.891 326.578 384.164 327.156 383.883 328.164H383.844V326.719H381.977V335ZM392.648 332.523C392.438 333.211 391.75 333.664 390.844 333.664C389.57 333.664 388.758 332.773 388.758 331.445V331.328H394.547V330.695C394.547 328.18 393.078 326.547 390.727 326.547C388.336 326.547 386.82 328.273 386.82 330.891C386.82 333.531 388.32 335.164 390.805 335.164C392.766 335.164 394.219 334.086 394.469 332.523H392.648ZM390.734 328.055C391.852 328.055 392.602 328.875 392.641 330.047H388.773C388.852 328.891 389.641 328.055 390.734 328.055ZM400.023 325.469C400.617 325.469 401.086 324.992 401.086 324.414C401.086 323.828 400.617 323.359 400.023 323.359C399.43 323.359 398.953 323.828 398.953 324.414C398.953 324.992 399.43 325.469 400.023 325.469ZM399.055 335H401V326.719H399.055V335ZM402.484 329.094C402.484 330.32 403.281 331.102 404.867 331.453L406.242 331.758C407.109 331.953 407.406 332.234 407.406 332.734C407.406 333.352 406.82 333.742 405.875 333.742C404.891 333.742 404.336 333.336 404.188 332.531H402.273C402.43 334.133 403.711 335.164 405.875 335.164C407.906 335.164 409.344 334.109 409.344 332.547C409.344 331.344 408.68 330.68 406.961 330.297L405.586 329.992C404.719 329.797 404.375 329.469 404.375 328.992C404.375 328.383 404.945 327.977 405.805 327.977C406.703 327.977 407.258 328.453 407.336 329.203H409.148C409.102 327.633 407.82 326.547 405.805 326.547C403.805 326.547 402.484 327.578 402.484 329.094ZM414.719 338.078C416.609 338.078 417.523 337.383 418.227 335.328L421.227 326.719H419.18L417.227 333.344H417.188L415.242 326.719H413.117L416.062 335.008C416.07 335.031 415.945 335.445 415.945 335.469C415.734 336.234 415.32 336.539 414.516 336.539C414.398 336.539 414.055 336.531 413.953 336.508V338.047C414.055 338.07 414.602 338.078 414.719 338.078ZM425.578 335.164C428.008 335.164 429.586 333.547 429.586 330.859C429.586 328.18 427.992 326.547 425.578 326.547C423.164 326.547 421.57 328.188 421.57 330.859C421.57 333.547 423.148 335.164 425.578 335.164ZM425.578 333.625C424.344 333.625 423.547 332.625 423.547 330.859C423.547 329.102 424.352 328.094 425.578 328.094C426.812 328.094 427.609 329.102 427.609 330.859C427.609 332.625 426.812 333.625 425.578 333.625ZM438.18 326.719H436.234V331.508C436.234 332.711 435.539 333.508 434.414 333.508C433.32 333.508 432.742 332.867 432.742 331.68V326.719H430.797V332.07C430.797 333.984 431.938 335.148 433.734 335.148C434.992 335.148 435.828 334.57 436.266 333.562H436.305V335H438.18V326.719ZM439.773 335H441.719V330.18C441.719 329.016 442.383 328.305 443.484 328.305C443.812 328.305 444.109 328.352 444.273 328.414V326.656C444.133 326.625 443.914 326.578 443.664 326.578C442.688 326.578 441.961 327.156 441.68 328.164H441.641V326.719H439.773V335ZM449.016 324.781V326.719H447.828V328.219H449.016V332.797C449.016 334.406 449.719 335.039 451.508 335.039C451.922 335.039 452.305 335.008 452.516 334.961V333.477C452.391 333.5 452.141 333.516 451.961 333.516C451.273 333.516 450.961 333.203 450.961 332.523V328.219H452.523V326.719H450.961V324.781H449.016ZM457.359 335.164C459.789 335.164 461.367 333.547 461.367 330.859C461.367 328.18 459.773 326.547 457.359 326.547C454.945 326.547 453.352 328.188 453.352 330.859C453.352 333.547 454.93 335.164 457.359 335.164ZM457.359 333.625C456.125 333.625 455.328 332.625 455.328 330.859C455.328 329.102 456.133 328.094 457.359 328.094C458.594 328.094 459.391 329.102 459.391 330.859C459.391 332.625 458.594 333.625 457.359 333.625ZM465.055 335.133C466.117 335.133 467.156 334.578 467.633 333.68H467.672V335H469.547V329.297C469.547 327.633 468.211 326.547 466.156 326.547C464.047 326.547 462.727 327.656 462.641 329.203H464.445C464.57 328.516 465.156 328.07 466.078 328.07C467.039 328.07 467.625 328.57 467.625 329.438V330.031L465.438 330.156C463.422 330.281 462.289 331.164 462.289 332.633C462.289 334.125 463.453 335.133 465.055 335.133ZM465.641 333.664C464.797 333.664 464.234 333.234 464.234 332.555C464.234 331.898 464.773 331.477 465.711 331.414L467.625 331.297V331.93C467.625 332.93 466.742 333.664 465.641 333.664ZM470.969 329.094C470.969 330.32 471.766 331.102 473.352 331.453L474.727 331.758C475.594 331.953 475.891 332.234 475.891 332.734C475.891 333.352 475.305 333.742 474.359 333.742C473.375 333.742 472.82 333.336 472.672 332.531H470.758C470.914 334.133 472.195 335.164 474.359 335.164C476.391 335.164 477.828 334.109 477.828 332.547C477.828 331.344 477.164 330.68 475.445 330.297L474.07 329.992C473.203 329.797 472.859 329.469 472.859 328.992C472.859 328.383 473.43 327.977 474.289 327.977C475.188 327.977 475.742 328.453 475.82 329.203H477.633C477.586 327.633 476.305 326.547 474.289 326.547C472.289 326.547 470.969 327.578 470.969 329.094ZM479.609 324.781V326.719H478.422V328.219H479.609V332.797C479.609 334.406 480.312 335.039 482.102 335.039C482.516 335.039 482.898 335.008 483.109 334.961V333.477C482.984 333.5 482.734 333.516 482.555 333.516C481.867 333.516 481.555 333.203 481.555 332.523V328.219H483.117V326.719H481.555V324.781H479.609ZM485.805 335.086C486.43 335.086 486.922 334.594 486.922 333.961C486.922 333.336 486.43 332.836 485.805 332.836C485.172 332.836 484.68 333.336 484.68 333.961C484.68 334.594 485.172 335.086 485.805 335.086Z" fill="#363636"/>
<g id="loader">
<rect id="circle" x="324" y="325" width="10" height="10" rx="5" stroke="#E0E0E0" stroke-width="2"/>
<path id="progress" d="M329 325C329.657 325 330.307 325.129 330.913 325.381C331.52 325.632 332.071 326 332.536 326.464C333 326.929 333.368 327.48 333.619 328.087C333.871 328.693 334 329.343 334 330" stroke="#616161" stroke-width="2"/>
</g>
<g id="checkmark-group">
<circle id="circle_2" cx="329" cy="330" r="10" fill="#79D050"/>
<g id="checkmark">
<rect id="line-1" x="323.5" y="330.071" width="2" height="6" transform="rotate(-45 323.5 330.071)" fill="white"/>
<rect id="line-2" x="333.571" y="326" width="2" height="10" transform="rotate(45 333.571 326)" fill="white"/>
</g>
</g>
</g>
</g>
<g id="try-out-button">
<rect x="647" y="313" width="124" height="33" rx="6" fill="#EBE6DF"/>
<g id="Try it out" filter="url(#filter2_d)">
<path d="M666.745 335V325.672H670.011V323.727H661.128V325.672H664.386V335H666.745ZM670.858 335H673.139V330.32C673.139 329.141 673.795 328.453 674.92 328.453C675.248 328.453 675.561 328.508 675.748 328.586V326.578C675.592 326.531 675.366 326.492 675.1 326.492C674.116 326.492 673.405 327.07 673.108 328.133H673.061V326.625H670.858V335ZM678.564 338.102C680.697 338.102 681.752 337.328 682.463 335.18L685.345 326.625H682.939L681.166 333.172H681.119L679.338 326.625H676.838L679.752 335C679.759 335.039 679.673 335.367 679.673 335.406C679.517 336.07 679.103 336.336 678.275 336.336C678.189 336.336 677.775 336.328 677.697 336.312V338.078C677.775 338.094 678.478 338.102 678.564 338.102ZM692.133 325.492C692.797 325.492 693.32 324.961 693.32 324.32C693.32 323.672 692.797 323.148 692.133 323.148C691.469 323.148 690.945 323.672 690.945 324.32C690.945 324.961 691.469 325.492 692.133 325.492ZM691 335H693.281V326.625H691V335ZM696.214 324.695V326.625H695.034V328.344H696.214V332.742C696.214 334.375 696.98 335.031 698.948 335.031C699.409 335.031 699.8 334.992 700.034 334.938V333.258C699.894 333.281 699.683 333.297 699.48 333.297C698.808 333.297 698.495 332.992 698.495 332.352V328.344H700.042V326.625H698.495V324.695H696.214ZM709.908 335.18C712.439 335.18 714.056 333.562 714.056 330.805C714.056 328.086 712.416 326.445 709.908 326.445C707.4 326.445 705.759 328.094 705.759 330.805C705.759 333.555 707.377 335.18 709.908 335.18ZM709.908 333.438C708.783 333.438 708.072 332.492 708.072 330.812C708.072 329.148 708.798 328.188 709.908 328.188C711.017 328.188 711.736 329.148 711.736 330.812C711.736 332.492 711.025 333.438 709.908 333.438ZM723.77 326.625H721.489V331.422C721.489 332.531 720.856 333.258 719.841 333.258C718.833 333.258 718.278 332.664 718.278 331.547V326.625H715.997V332.023C715.997 333.977 717.2 335.156 719.013 335.156C720.278 335.156 721.106 334.547 721.52 333.492H721.567V335H723.77V326.625ZM726.664 324.695V326.625H725.484V328.344H726.664V332.742C726.664 334.375 727.43 335.031 729.398 335.031C729.859 335.031 730.25 334.992 730.484 334.938V333.258C730.344 333.281 730.133 333.297 729.93 333.297C729.258 333.297 728.945 332.992 728.945 332.352V328.344H730.492V326.625H728.945V324.695H726.664Z" fill="#482307"/>
</g>
<path id="Vector 20" d="M755.783 330.477C755.783 330.062 755.447 329.727 755.033 329.727C754.619 329.727 754.283 330.062 754.283 330.477H755.783ZM749.017 325.242C749.431 325.242 749.767 324.906 749.767 324.492C749.767 324.078 749.431 323.742 749.017 323.742V325.242ZM742.25 327.251V333.339H743.75V327.251H742.25ZM745.759 336.848H752.274V335.348H745.759V336.848ZM755.783 333.339V330.477H754.283V333.339H755.783ZM745.759 325.242H749.017V323.742H745.759V325.242ZM752.274 336.848C754.212 336.848 755.783 335.277 755.783 333.339H754.283C754.283 334.449 753.384 335.348 752.274 335.348V336.848ZM742.25 333.339C742.25 335.277 743.821 336.848 745.759 336.848V335.348C744.649 335.348 743.75 334.449 743.75 333.339H742.25ZM743.75 327.251C743.75 326.142 744.649 325.242 745.759 325.242V323.742C743.821 323.742 742.25 325.313 742.25 327.251H743.75Z" fill="#A2724E"/>
<path id="Vector 21" d="M748.869 329.929L756.569 322.228M756.569 322.228V327.091M756.569 322.228H752.112" stroke="#A2724E" stroke-width="1.5" stroke-linecap="round"/>
</g>
<line id="Line 1" x1="-87" y1="289.5" x2="923" y2="289.5" stroke="#482307" stroke-opacity="0.1"/>
<g id="butter-2-shadow" filter="url(#filter3_dddd)">
<path d="M671.121 179.851L667.812 188.299C667.136 190.025 667.734 191.99 669.258 193.046L744.179 244.978C745.888 246.162 748.219 245.84 749.543 244.237L763.214 227.677C763.42 227.429 763.594 227.156 763.734 226.865L774.452 204.587C774.631 204.215 774.867 203.873 775.15 203.573L789.87 188.004C790.063 187.799 790.235 187.575 790.381 187.334L801.012 169.849C802.136 168 801.587 165.593 799.772 164.415L782.2 153.01L765.4 139.213C765.206 139.054 764.999 138.914 764.779 138.794L747.623 129.423L727.186 114.201C724.927 112.519 721.683 113.636 720.939 116.352L718.546 125.088C718.194 126.371 717.227 127.396 715.966 127.821L713.391 128.689C711.611 129.289 710.489 131.046 710.693 132.914L710.793 133.835C711.043 136.121 709.318 138.147 707.021 138.264L706.621 138.284C704.574 138.389 702.937 140.024 702.83 142.071L702.6 146.473C702.518 148.047 701.519 149.426 700.049 149.995L694.043 152.32C692.763 152.815 691.826 153.932 691.561 155.279L690.767 159.321C690.505 160.652 689.587 161.76 688.327 162.264L682.967 164.406C681.707 164.91 680.788 166.018 680.527 167.349L679.353 173.323C679.085 174.686 678.129 175.813 676.828 176.299L673.445 177.563C672.381 177.961 671.535 178.793 671.121 179.851Z" fill="#FFE7BD"/>
<path d="M671.121 179.851L667.812 188.299C667.136 190.025 667.734 191.99 669.258 193.046L744.179 244.978C745.888 246.162 748.219 245.84 749.543 244.237L763.214 227.677C763.42 227.429 763.594 227.156 763.734 226.865L774.452 204.587C774.631 204.215 774.867 203.873 775.15 203.573L789.87 188.004C790.063 187.799 790.235 187.575 790.381 187.334L801.012 169.849C802.136 168 801.587 165.593 799.772 164.415L782.2 153.01L765.4 139.213C765.206 139.054 764.999 138.914 764.779 138.794L747.623 129.423L727.186 114.201C724.927 112.519 721.683 113.636 720.939 116.352L718.546 125.088C718.194 126.371 717.227 127.396 715.966 127.821L713.391 128.689C711.611 129.289 710.489 131.046 710.693 132.914L710.793 133.835C711.043 136.121 709.318 138.147 707.021 138.264L706.621 138.284C704.574 138.389 702.937 140.024 702.83 142.071L702.6 146.473C702.518 148.047 701.519 149.426 700.049 149.995L694.043 152.32C692.763 152.815 691.826 153.932 691.561 155.279L690.767 159.321C690.505 160.652 689.587 161.76 688.327 162.264L682.967 164.406C681.707 164.91 680.788 166.018 680.527 167.349L679.353 173.323C679.085 174.686 678.129 175.813 676.828 176.299L673.445 177.563C672.381 177.961 671.535 178.793 671.121 179.851Z" fill="url(#paint11_linear)"/>
<path d="M671.121 179.851L667.812 188.299C667.136 190.025 667.734 191.99 669.258 193.046L744.179 244.978C745.888 246.162 748.219 245.84 749.543 244.237L763.214 227.677C763.42 227.429 763.594 227.156 763.734 226.865L774.452 204.587C774.631 204.215 774.867 203.873 775.15 203.573L789.87 188.004C790.063 187.799 790.235 187.575 790.381 187.334L801.012 169.849C802.136 168 801.587 165.593 799.772 164.415L782.2 153.01L765.4 139.213C765.206 139.054 764.999 138.914 764.779 138.794L747.623 129.423L727.186 114.201C724.927 112.519 721.683 113.636 720.939 116.352L718.546 125.088C718.194 126.371 717.227 127.396 715.966 127.821L713.391 128.689C711.611 129.289 710.489 131.046 710.693 132.914L710.793 133.835C711.043 136.121 709.318 138.147 707.021 138.264L706.621 138.284C704.574 138.389 702.937 140.024 702.83 142.071L702.6 146.473C702.518 148.047 701.519 149.426 700.049 149.995L694.043 152.32C692.763 152.815 691.826 153.932 691.561 155.279L690.767 159.321C690.505 160.652 689.587 161.76 688.327 162.264L682.967 164.406C681.707 164.91 680.788 166.018 680.527 167.349L679.353 173.323C679.085 174.686 678.129 175.813 676.828 176.299L673.445 177.563C672.381 177.961 671.535 178.793 671.121 179.851Z" fill="url(#paint12_radial)"/>
<path d="M671.121 179.851L667.812 188.299C667.136 190.025 667.734 191.99 669.258 193.046L744.179 244.978C745.888 246.162 748.219 245.84 749.543 244.237L763.214 227.677C763.42 227.429 763.594 227.156 763.734 226.865L774.452 204.587C774.631 204.215 774.867 203.873 775.15 203.573L789.87 188.004C790.063 187.799 790.235 187.575 790.381 187.334L801.012 169.849C802.136 168 801.587 165.593 799.772 164.415L782.2 153.01L765.4 139.213C765.206 139.054 764.999 138.914 764.779 138.794L747.623 129.423L727.186 114.201C724.927 112.519 721.683 113.636 720.939 116.352L718.546 125.088C718.194 126.371 717.227 127.396 715.966 127.821L713.391 128.689C711.611 129.289 710.489 131.046 710.693 132.914L710.793 133.835C711.043 136.121 709.318 138.147 707.021 138.264L706.621 138.284C704.574 138.389 702.937 140.024 702.83 142.071L702.6 146.473C702.518 148.047 701.519 149.426 700.049 149.995L694.043 152.32C692.763 152.815 691.826 153.932 691.561 155.279L690.767 159.321C690.505 160.652 689.587 161.76 688.327 162.264L682.967 164.406C681.707 164.91 680.788 166.018 680.527 167.349L679.353 173.323C679.085 174.686 678.129 175.813 676.828 176.299L673.445 177.563C672.381 177.961 671.535 178.793 671.121 179.851Z" fill="url(#paint13_radial)"/>
</g>
</g>
<path d="M63 0.5H775C784.665 0.5 792.5 8.33502 792.5 18V352C792.5 361.665 784.665 369.5 775 369.5H63C53.335 369.5 45.5 361.665 45.5 352V18C45.5 8.33502 53.335 0.5 63 0.5Z" stroke="#482307" stroke-opacity="0.1"/>
</g>
<g id="Group 51">
<g id="base_2" filter="url(#filter4_iiiii)">
<path d="M63.4889 109.687L75.9671 137.476C77.1912 140.203 81.061 140.204 82.2879 137.479C83.003 135.891 84.7863 135.08 86.4534 135.586L88.8794 136.322C90.6043 136.845 92.4659 136.15 93.4259 134.625L94.9465 132.208C95.7162 130.985 97.3088 130.578 98.5707 131.283L98.9379 131.488C100.474 132.345 102.386 131.346 102.558 129.595C102.696 128.194 103.986 127.199 105.376 127.423L108.43 127.913C110.117 128.184 111.761 127.231 112.363 125.632L113.428 122.804C113.941 121.444 115.74 121.159 116.647 122.295C117.564 123.443 119.384 123.139 119.878 121.756L120.274 120.646C120.665 119.552 121.75 118.864 122.906 118.978L124.773 119.161C126.281 119.309 127.743 118.593 128.55 117.311L129.97 115.054C130.809 113.72 132.409 113.073 133.94 113.449L135.669 113.872C136.857 114.164 138.036 113.361 138.2 112.149C138.349 111.05 139.34 110.267 140.443 110.375L142.593 110.587C143.945 110.72 145.272 110.157 146.117 109.094L146.202 108.986C147.117 107.834 147.326 106.273 146.746 104.921L129.678 65.1463L112.864 25.9611C112.206 24.4278 110.424 23.7259 108.897 24.3991L70.0325 41.5367L41.9974 53.3366C39.9227 54.2099 38.9768 56.6223 39.9051 58.6729L42.251 63.8553L63.4889 109.687Z" fill="#FFE7BD"/>
<path d="M63.4889 109.687L75.9671 137.476C77.1912 140.203 81.061 140.204 82.2879 137.479C83.003 135.891 84.7863 135.08 86.4534 135.586L88.8794 136.322C90.6043 136.845 92.4659 136.15 93.4259 134.625L94.9465 132.208C95.7162 130.985 97.3088 130.578 98.5707 131.283L98.9379 131.488C100.474 132.345 102.386 131.346 102.558 129.595C102.696 128.194 103.986 127.199 105.376 127.423L108.43 127.913C110.117 128.184 111.761 127.231 112.363 125.632L113.428 122.804C113.941 121.444 115.74 121.159 116.647 122.295C117.564 123.443 119.384 123.139 119.878 121.756L120.274 120.646C120.665 119.552 121.75 118.864 122.906 118.978L124.773 119.161C126.281 119.309 127.743 118.593 128.55 117.311L129.97 115.054C130.809 113.72 132.409 113.073 133.94 113.449L135.669 113.872C136.857 114.164 138.036 113.361 138.2 112.149C138.349 111.05 139.34 110.267 140.443 110.375L142.593 110.587C143.945 110.72 145.272 110.157 146.117 109.094L146.202 108.986C147.117 107.834 147.326 106.273 146.746 104.921L129.678 65.1463L112.864 25.9611C112.206 24.4278 110.424 23.7259 108.897 24.3991L70.0325 41.5367L41.9974 53.3366C39.9227 54.2099 38.9768 56.6223 39.9051 58.6729L42.251 63.8553L63.4889 109.687Z" fill="url(#paint14_linear)"/>
<path d="M63.4889 109.687L75.9671 137.476C77.1912 140.203 81.061 140.204 82.2879 137.479C83.003 135.891 84.7863 135.08 86.4534 135.586L88.8794 136.322C90.6043 136.845 92.4659 136.15 93.4259 134.625L94.9465 132.208C95.7162 130.985 97.3088 130.578 98.5707 131.283L98.9379 131.488C100.474 132.345 102.386 131.346 102.558 129.595C102.696 128.194 103.986 127.199 105.376 127.423L108.43 127.913C110.117 128.184 111.761 127.231 112.363 125.632L113.428 122.804C113.941 121.444 115.74 121.159 116.647 122.295C117.564 123.443 119.384 123.139 119.878 121.756L120.274 120.646C120.665 119.552 121.75 118.864 122.906 118.978L124.773 119.161C126.281 119.309 127.743 118.593 128.55 117.311L129.97 115.054C130.809 113.72 132.409 113.073 133.94 113.449L135.669 113.872C136.857 114.164 138.036 113.361 138.2 112.149C138.349 111.05 139.34 110.267 140.443 110.375L142.593 110.587C143.945 110.72 145.272 110.157 146.117 109.094L146.202 108.986C147.117 107.834 147.326 106.273 146.746 104.921L129.678 65.1463L112.864 25.9611C112.206 24.4278 110.424 23.7259 108.897 24.3991L70.0325 41.5367L41.9974 53.3366C39.9227 54.2099 38.9768 56.6223 39.9051 58.6729L42.251 63.8553L63.4889 109.687Z" fill="url(#paint15_radial)"/>
<path d="M63.4889 109.687L75.9671 137.476C77.1912 140.203 81.061 140.204 82.2879 137.479C83.003 135.891 84.7863 135.08 86.4534 135.586L88.8794 136.322C90.6043 136.845 92.4659 136.15 93.4259 134.625L94.9465 132.208C95.7162 130.985 97.3088 130.578 98.5707 131.283L98.9379 131.488C100.474 132.345 102.386 131.346 102.558 129.595C102.696 128.194 103.986 127.199 105.376 127.423L108.43 127.913C110.117 128.184 111.761 127.231 112.363 125.632L113.428 122.804C113.941 121.444 115.74 121.159 116.647 122.295C117.564 123.443 119.384 123.139 119.878 121.756L120.274 120.646C120.665 119.552 121.75 118.864 122.906 118.978L124.773 119.161C126.281 119.309 127.743 118.593 128.55 117.311L129.97 115.054C130.809 113.72 132.409 113.073 133.94 113.449L135.669 113.872C136.857 114.164 138.036 113.361 138.2 112.149C138.349 111.05 139.34 110.267 140.443 110.375L142.593 110.587C143.945 110.72 145.272 110.157 146.117 109.094L146.202 108.986C147.117 107.834 147.326 106.273 146.746 104.921L129.678 65.1463L112.864 25.9611C112.206 24.4278 110.424 23.7259 108.897 24.3991L70.0325 41.5367L41.9974 53.3366C39.9227 54.2099 38.9768 56.6223 39.9051 58.6729L42.251 63.8553L63.4889 109.687Z" fill="url(#paint16_radial)"/>
</g>
<g id="rip" filter="url(#filter5_ii)">
<path d="M81.2628 140.36L81.3367 130.313L95.8507 122.481L113.044 117.061L128.445 108.659L144.742 101.748C146.454 104.365 146.897 107.613 145.949 110.593L145.696 111.389C145.639 111.567 145.565 111.738 145.474 111.9L144.473 113.685C143.437 115.532 141.56 116.754 139.452 116.954L138.733 117.022C137.182 117.17 135.788 118.033 134.964 119.355L134.563 119.998C133.615 121.521 131.768 122.226 130.046 121.722L129.096 121.444C127.656 121.022 126.132 121.765 125.576 123.158C125.112 124.322 123.955 125.058 122.705 124.985L121.447 124.912C119.83 124.819 118.299 125.647 117.492 127.051C116.608 128.59 114.848 129.42 113.095 129.141C111.815 128.938 110.5 129.318 109.532 130.18L109.37 130.324C108.424 131.166 107.182 131.599 105.917 131.525L104.173 131.424C102.748 131.342 101.371 131.953 100.476 133.064C99.6685 134.066 98.4647 134.667 97.1787 134.709L95.6899 134.758C94.4333 134.799 93.276 135.452 92.5901 136.505C91.8987 137.568 90.7286 138.221 89.4615 138.254L87.3119 138.308C86.098 138.339 84.9073 138.647 83.8315 139.211L81.4354 140.465C81.3565 140.506 81.2622 140.449 81.2628 140.36Z" fill="#CFB895"/>
<path d="M81.2628 140.36L81.3367 130.313L95.8507 122.481L113.044 117.061L128.445 108.659L144.742 101.748C146.454 104.365 146.897 107.613 145.949 110.593L145.696 111.389C145.639 111.567 145.565 111.738 145.474 111.9L144.473 113.685C143.437 115.532 141.56 116.754 139.452 116.954L138.733 117.022C137.182 117.17 135.788 118.033 134.964 119.355L134.563 119.998C133.615 121.521 131.768 122.226 130.046 121.722L129.096 121.444C127.656 121.022 126.132 121.765 125.576 123.158C125.112 124.322 123.955 125.058 122.705 124.985L121.447 124.912C119.83 124.819 118.299 125.647 117.492 127.051C116.608 128.59 114.848 129.42 113.095 129.141C111.815 128.938 110.5 129.318 109.532 130.18L109.37 130.324C108.424 131.166 107.182 131.599 105.917 131.525L104.173 131.424C102.748 131.342 101.371 131.953 100.476 133.064C99.6685 134.066 98.4647 134.667 97.1787 134.709L95.6899 134.758C94.4333 134.799 93.276 135.452 92.5901 136.505C91.8987 137.568 90.7286 138.221 89.4615 138.254L87.3119 138.308C86.098 138.339 84.9073 138.647 83.8315 139.211L81.4354 140.465C81.3565 140.506 81.2622 140.449 81.2628 140.36Z" fill="url(#paint17_linear)" fill-opacity="0.6"/>
</g>
</g>
<g id="butter" filter="url(#filter6_iiiii)">
<path d="M671.121 179.851L667.812 188.299C667.136 190.025 667.734 191.99 669.258 193.046L744.179 244.978C745.888 246.162 748.219 245.84 749.543 244.237L763.214 227.677C763.42 227.429 763.594 227.156 763.734 226.865L774.452 204.587C774.631 204.215 774.867 203.873 775.15 203.573L789.87 188.004C790.063 187.799 790.235 187.575 790.381 187.334L801.012 169.849C802.136 168 801.587 165.593 799.772 164.415L782.2 153.01L765.4 139.213C765.206 139.054 764.999 138.914 764.779 138.794L747.623 129.423L727.186 114.201C724.927 112.519 721.683 113.636 720.939 116.352L718.546 125.088C718.194 126.371 717.227 127.396 715.966 127.821L713.391 128.689C711.611 129.289 710.489 131.046 710.693 132.914L710.793 133.835C711.043 136.121 709.318 138.147 707.021 138.264L706.621 138.284C704.574 138.389 702.937 140.024 702.83 142.071L702.6 146.473C702.518 148.047 701.519 149.426 700.049 149.995L694.043 152.32C692.763 152.815 691.826 153.932 691.561 155.279L690.767 159.321C690.505 160.652 689.587 161.76 688.327 162.264L682.967 164.406C681.707 164.91 680.788 166.018 680.527 167.349L679.353 173.323C679.085 174.686 678.129 175.813 676.828 176.299L673.445 177.563C672.381 177.961 671.535 178.793 671.121 179.851Z" fill="#FFE7BD"/>
<path d="M671.121 179.851L667.812 188.299C667.136 190.025 667.734 191.99 669.258 193.046L744.179 244.978C745.888 246.162 748.219 245.84 749.543 244.237L763.214 227.677C763.42 227.429 763.594 227.156 763.734 226.865L774.452 204.587C774.631 204.215 774.867 203.873 775.15 203.573L789.87 188.004C790.063 187.799 790.235 187.575 790.381 187.334L801.012 169.849C802.136 168 801.587 165.593 799.772 164.415L782.2 153.01L765.4 139.213C765.206 139.054 764.999 138.914 764.779 138.794L747.623 129.423L727.186 114.201C724.927 112.519 721.683 113.636 720.939 116.352L718.546 125.088C718.194 126.371 717.227 127.396 715.966 127.821L713.391 128.689C711.611 129.289 710.489 131.046 710.693 132.914L710.793 133.835C711.043 136.121 709.318 138.147 707.021 138.264L706.621 138.284C704.574 138.389 702.937 140.024 702.83 142.071L702.6 146.473C702.518 148.047 701.519 149.426 700.049 149.995L694.043 152.32C692.763 152.815 691.826 153.932 691.561 155.279L690.767 159.321C690.505 160.652 689.587 161.76 688.327 162.264L682.967 164.406C681.707 164.91 680.788 166.018 680.527 167.349L679.353 173.323C679.085 174.686 678.129 175.813 676.828 176.299L673.445 177.563C672.381 177.961 671.535 178.793 671.121 179.851Z" fill="url(#paint18_linear)"/>
<path d="M671.121 179.851L667.812 188.299C667.136 190.025 667.734 191.99 669.258 193.046L744.179 244.978C745.888 246.162 748.219 245.84 749.543 244.237L763.214 227.677C763.42 227.429 763.594 227.156 763.734 226.865L774.452 204.587C774.631 204.215 774.867 203.873 775.15 203.573L789.87 188.004C790.063 187.799 790.235 187.575 790.381 187.334L801.012 169.849C802.136 168 801.587 165.593 799.772 164.415L782.2 153.01L765.4 139.213C765.206 139.054 764.999 138.914 764.779 138.794L747.623 129.423L727.186 114.201C724.927 112.519 721.683 113.636 720.939 116.352L718.546 125.088C718.194 126.371 717.227 127.396 715.966 127.821L713.391 128.689C711.611 129.289 710.489 131.046 710.693 132.914L710.793 133.835C711.043 136.121 709.318 138.147 707.021 138.264L706.621 138.284C704.574 138.389 702.937 140.024 702.83 142.071L702.6 146.473C702.518 148.047 701.519 149.426 700.049 149.995L694.043 152.32C692.763 152.815 691.826 153.932 691.561 155.279L690.767 159.321C690.505 160.652 689.587 161.76 688.327 162.264L682.967 164.406C681.707 164.91 680.788 166.018 680.527 167.349L679.353 173.323C679.085 174.686 678.129 175.813 676.828 176.299L673.445 177.563C672.381 177.961 671.535 178.793 671.121 179.851Z" fill="url(#paint19_radial)"/>
<path d="M671.121 179.851L667.812 188.299C667.136 190.025 667.734 191.99 669.258 193.046L744.179 244.978C745.888 246.162 748.219 245.84 749.543 244.237L763.214 227.677C763.42 227.429 763.594 227.156 763.734 226.865L774.452 204.587C774.631 204.215 774.867 203.873 775.15 203.573L789.87 188.004C790.063 187.799 790.235 187.575 790.381 187.334L801.012 169.849C802.136 168 801.587 165.593 799.772 164.415L782.2 153.01L765.4 139.213C765.206 139.054 764.999 138.914 764.779 138.794L747.623 129.423L727.186 114.201C724.927 112.519 721.683 113.636 720.939 116.352L718.546 125.088C718.194 126.371 717.227 127.396 715.966 127.821L713.391 128.689C711.611 129.289 710.489 131.046 710.693 132.914L710.793 133.835C711.043 136.121 709.318 138.147 707.021 138.264L706.621 138.284C704.574 138.389 702.937 140.024 702.83 142.071L702.6 146.473C702.518 148.047 701.519 149.426 700.049 149.995L694.043 152.32C692.763 152.815 691.826 153.932 691.561 155.279L690.767 159.321C690.505 160.652 689.587 161.76 688.327 162.264L682.967 164.406C681.707 164.91 680.788 166.018 680.527 167.349L679.353 173.323C679.085 174.686 678.129 175.813 676.828 176.299L673.445 177.563C672.381 177.961 671.535 178.793 671.121 179.851Z" fill="url(#paint20_radial)"/>
</g>
</g>
<defs>
<filter id="filter0_dddd" x="-6.12793" y="4.14404" width="174.669" height="175.351" filterUnits="userSpaceOnUse" color-interpolation-filters="sRGB">
<feFlood flood-opacity="0" result="BackgroundImageFix"/>
<feColorMatrix in="SourceAlpha" type="matrix" values="0 0 0 0 0 0 0 0 0 0 0 0 0 0 0 0 0 0 127 0"/>
<feOffset dx="-23" dy="18"/>
<feGaussianBlur stdDeviation="8.5"/>
<feColorMatrix type="matrix" values="0 0 0 0 0.114236 0 0 0 0 0.291792 0 0 0 0 0.391667 0 0 0 0.3 0"/>
<feBlend mode="normal" in2="BackgroundImageFix" result="effect1_dropShadow"/>
<feColorMatrix in="SourceAlpha" type="matrix" values="0 0 0 0 0 0 0 0 0 0 0 0 0 0 0 0 0 0 127 0"/>
<feOffset dx="-20" dy="20"/>
<feGaussianBlur stdDeviation="4"/>
<feColorMatrix type="matrix" values="0 0 0 0 0.654167 0 0 0 0 0.323922 0 0 0 0 0.0190799 0 0 0 0.21 0"/>
<feBlend mode="normal" in2="effect1_dropShadow" result="effect2_dropShadow"/>
<feColorMatrix in="SourceAlpha" type="matrix" values="0 0 0 0 0 0 0 0 0 0 0 0 0 0 0 0 0 0 127 0"/>
<feOffset/>
<feGaussianBlur stdDeviation="7"/>
<feColorMatrix type="matrix" values="0 0 0 0 0.666667 0 0 0 0 0.352941 0 0 0 0 0.101961 0 0 0 0.2 0"/>
<feBlend mode="normal" in2="effect2_dropShadow" result="effect3_dropShadow"/>
<feColorMatrix in="SourceAlpha" type="matrix" values="0 0 0 0 0 0 0 0 0 0 0 0 0 0 0 0 0 0 127 0"/>
<feOffset dx="6" dy="23"/>
<feGaussianBlur stdDeviation="3.5"/>
<feColorMatrix type="matrix" values="0 0 0 0 0.575 0 0 0 0 0.27419 0 0 0 0 0.0335417 0 0 0 0.1 0"/>
<feBlend mode="normal" in2="effect3_dropShadow" result="effect4_dropShadow"/>
<feBlend mode="normal" in="SourceGraphic" in2="effect4_dropShadow" result="shape"/>
</filter>
<filter id="filter1_dd" x="298" y="301" width="229" height="64" filterUnits="userSpaceOnUse" color-interpolation-filters="sRGB">
<feFlood flood-opacity="0" result="BackgroundImageFix"/>
<feColorMatrix in="SourceAlpha" type="matrix" values="0 0 0 0 0 0 0 0 0 0 0 0 0 0 0 0 0 0 127 0"/>
<feOffset dy="3"/>
<feGaussianBlur stdDeviation="5"/>
<feColorMatrix type="matrix" values="0 0 0 0 0 0 0 0 0 0 0 0 0 0 0 0 0 0 0.1 0"/>
<feBlend mode="normal" in2="BackgroundImageFix" result="effect1_dropShadow"/>
<feColorMatrix in="SourceAlpha" type="matrix" values="0 0 0 0 0 0 0 0 0 0 0 0 0 0 0 0 0 0 127 0"/>
<feOffset dy="3"/>
<feGaussianBlur stdDeviation="1.5"/>
<feColorMatrix type="matrix" values="0 0 0 0 0 0 0 0 0 0 0 0 0 0 0 0 0 0 0.05 0"/>
<feBlend mode="normal" in2="effect1_dropShadow" result="effect2_dropShadow"/>
<feBlend mode="normal" in="SourceGraphic" in2="effect2_dropShadow" result="shape"/>
</filter>
<filter id="filter2_d" x="661.128" y="323.148" width="73.3641" height="18.9531" filterUnits="userSpaceOnUse" color-interpolation-filters="sRGB">
<feFlood flood-opacity="0" result="BackgroundImageFix"/>
<feColorMatrix in="SourceAlpha" type="matrix" values="0 0 0 0 0 0 0 0 0 0 0 0 0 0 0 0 0 0 127 0"/>
<feOffset dx="2" dy="2"/>
<feGaussianBlur stdDeviation="1"/>
<feColorMatrix type="matrix" values="0 0 0 0 1 0 0 0 0 1 0 0 0 0 1 0 0 0 0.25 0"/>
<feBlend mode="normal" in2="BackgroundImageFix" result="effect1_dropShadow"/>
<feBlend mode="normal" in="SourceGraphic" in2="effect1_dropShadow" result="shape"/>
</filter>
<filter id="filter3_dddd" x="624.25" y="94.1875" width="195.112" height="189.096" filterUnits="userSpaceOnUse" color-interpolation-filters="sRGB">
<feFlood flood-opacity="0" result="BackgroundImageFix"/>
<feColorMatrix in="SourceAlpha" type="matrix" values="0 0 0 0 0 0 0 0 0 0 0 0 0 0 0 0 0 0 127 0"/>
<feOffset dx="-23" dy="18"/>
<feGaussianBlur stdDeviation="8.5"/>
<feColorMatrix type="matrix" values="0 0 0 0 0.114236 0 0 0 0 0.291792 0 0 0 0 0.391667 0 0 0 0.3 0"/>
<feBlend mode="normal" in2="BackgroundImageFix" result="effect1_dropShadow"/>
<feColorMatrix in="SourceAlpha" type="matrix" values="0 0 0 0 0 0 0 0 0 0 0 0 0 0 0 0 0 0 127 0"/>
<feOffset dx="-20" dy="20"/>
<feGaussianBlur stdDeviation="4"/>
<feColorMatrix type="matrix" values="0 0 0 0 0.654167 0 0 0 0 0.323922 0 0 0 0 0.0190799 0 0 0 0.21 0"/>
<feBlend mode="normal" in2="effect1_dropShadow" result="effect2_dropShadow"/>
<feColorMatrix in="SourceAlpha" type="matrix" values="0 0 0 0 0 0 0 0 0 0 0 0 0 0 0 0 0 0 127 0"/>
<feOffset/>
<feGaussianBlur stdDeviation="7"/>
<feColorMatrix type="matrix" values="0 0 0 0 0.666667 0 0 0 0 0.352941 0 0 0 0 0.101961 0 0 0 0.2 0"/>
<feBlend mode="normal" in2="effect2_dropShadow" result="effect3_dropShadow"/>
<feColorMatrix in="SourceAlpha" type="matrix" values="0 0 0 0 0 0 0 0 0 0 0 0 0 0 0 0 0 0 127 0"/>
<feOffset dx="3" dy="20"/>
<feGaussianBlur stdDeviation="3.5"/>
<feColorMatrix type="matrix" values="0 0 0 0 0.575 0 0 0 0 0.27419 0 0 0 0 0.0335417 0 0 0 0.1 0"/>
<feBlend mode="normal" in2="effect3_dropShadow" result="effect4_dropShadow"/>
<feBlend mode="normal" in="SourceGraphic" in2="effect4_dropShadow" result="shape"/>
</filter>
<filter id="filter4_iiiii" x="29.8721" y="15.144" width="128.669" height="134.351" filterUnits="userSpaceOnUse" color-interpolation-filters="sRGB">
<feFlood flood-opacity="0" result="BackgroundImageFix"/>
<feBlend mode="normal" in="SourceGraphic" in2="BackgroundImageFix" result="shape"/>
<feColorMatrix in="SourceAlpha" type="matrix" values="0 0 0 0 0 0 0 0 0 0 0 0 0 0 0 0 0 0 127 0" result="hardAlpha"/>
<feOffset dx="-4" dy="4"/>
<feGaussianBlur stdDeviation="5"/>
<feComposite in2="hardAlpha" operator="arithmetic" k2="-1" k3="1"/>
<feColorMatrix type="matrix" values="0 0 0 0 1 0 0 0 0 0.931481 0 0 0 0 0.845833 0 0 0 1 0"/>
<feBlend mode="normal" in2="shape" result="effect1_innerShadow"/>
<feColorMatrix in="SourceAlpha" type="matrix" values="0 0 0 0 0 0 0 0 0 0 0 0 0 0 0 0 0 0 127 0" result="hardAlpha"/>
<feOffset dx="-3" dy="5"/>
<feGaussianBlur stdDeviation="5.5"/>
<feComposite in2="hardAlpha" operator="arithmetic" k2="-1" k3="1"/>
<feColorMatrix type="matrix" values="0 0 0 0 1 0 0 0 0 1 0 0 0 0 1 0 0 0 0.3 0"/>
<feBlend mode="normal" in2="effect1_innerShadow" result="effect2_innerShadow"/>
<feColorMatrix in="SourceAlpha" type="matrix" values="0 0 0 0 0 0 0 0 0 0 0 0 0 0 0 0 0 0 127 0" result="hardAlpha"/>
<feOffset dx="7" dy="-12"/>
<feGaussianBlur stdDeviation="1.5"/>
<feComposite in2="hardAlpha" operator="arithmetic" k2="-1" k3="1"/>
<feColorMatrix type="matrix" values="0 0 0 0 1 0 0 0 0 1 0 0 0 0 1 0 0 0 0.5 0"/>
<feBlend mode="normal" in2="effect2_innerShadow" result="effect3_innerShadow"/>
<feColorMatrix in="SourceAlpha" type="matrix" values="0 0 0 0 0 0 0 0 0 0 0 0 0 0 0 0 0 0 127 0" result="hardAlpha"/>
<feOffset dx="8" dy="-4"/>
<feGaussianBlur stdDeviation="1.5"/>
<feComposite in2="hardAlpha" operator="arithmetic" k2="-1" k3="1"/>
<feColorMatrix type="matrix" values="0 0 0 0 0.925 0 0 0 0 0.749421 0 0 0 0 0.608958 0 0 0 1 0"/>
<feBlend mode="normal" in2="effect3_innerShadow" result="effect4_innerShadow"/>
<feColorMatrix in="SourceAlpha" type="matrix" values="0 0 0 0 0 0 0 0 0 0 0 0 0 0 0 0 0 0 127 0" result="hardAlpha"/>
<feOffset dx="4" dy="-1"/>
<feGaussianBlur stdDeviation="2.5"/>
<feComposite in2="hardAlpha" operator="arithmetic" k2="-1" k3="1"/>
<feColorMatrix type="matrix" values="0 0 0 0 0 0 0 0 0 0 0 0 0 0 0 0 0 0 0.2 0"/>
<feBlend mode="normal" in2="effect4_innerShadow" result="effect5_innerShadow"/>
</filter>
<filter id="filter5_ii" x="75.8891" y="99.6094" width="74.8013" height="42.8948" filterUnits="userSpaceOnUse" color-interpolation-filters="sRGB">
<feFlood flood-opacity="0" result="BackgroundImageFix"/>
<feBlend mode="normal" in="SourceGraphic" in2="BackgroundImageFix" result="shape"/>
<feColorMatrix in="SourceAlpha" type="matrix" values="0 0 0 0 0 0 0 0 0 0 0 0 0 0 0 0 0 0 127 0" result="hardAlpha"/>
<feOffset dy="2"/>
<feGaussianBlur stdDeviation="1"/>
<feComposite in2="hardAlpha" operator="arithmetic" k2="-1" k3="1"/>
<feColorMatrix type="matrix" values="0 0 0 0 1 0 0 0 0 0.921569 0 0 0 0 0.721569 0 0 0 1 0"/>
<feBlend mode="normal" in2="shape" result="effect1_innerShadow"/>
<feColorMatrix in="SourceAlpha" type="matrix" values="0 0 0 0 0 0 0 0 0 0 0 0 0 0 0 0 0 0 127 0" result="hardAlpha"/>
<feOffset dy="-2"/>
<feGaussianBlur stdDeviation="2.5"/>
<feComposite in2="hardAlpha" operator="arithmetic" k2="-1" k3="1"/>
<feColorMatrix type="matrix" values="0 0 0 0 0.756863 0 0 0 0 0.611765 0 0 0 0 0.494118 0 0 0 1 0"/>
<feBlend mode="normal" in2="effect1_innerShadow" result="effect2_innerShadow"/>
</filter>
<filter id="filter6_iiiii" x="660.25" y="105.188" width="149.112" height="148.096" filterUnits="userSpaceOnUse" color-interpolation-filters="sRGB">
<feFlood flood-opacity="0" result="BackgroundImageFix"/>
<feBlend mode="normal" in="SourceGraphic" in2="BackgroundImageFix" result="shape"/>
<feColorMatrix in="SourceAlpha" type="matrix" values="0 0 0 0 0 0 0 0 0 0 0 0 0 0 0 0 0 0 127 0" result="hardAlpha"/>
<feOffset dx="-4" dy="4"/>
<feGaussianBlur stdDeviation="5"/>
<feComposite in2="hardAlpha" operator="arithmetic" k2="-1" k3="1"/>
<feColorMatrix type="matrix" values="0 0 0 0 1 0 0 0 0 0.931481 0 0 0 0 0.845833 0 0 0 1 0"/>
<feBlend mode="normal" in2="shape" result="effect1_innerShadow"/>
<feColorMatrix in="SourceAlpha" type="matrix" values="0 0 0 0 0 0 0 0 0 0 0 0 0 0 0 0 0 0 127 0" result="hardAlpha"/>
<feOffset dx="-3" dy="5"/>
<feGaussianBlur stdDeviation="5.5"/>
<feComposite in2="hardAlpha" operator="arithmetic" k2="-1" k3="1"/>
<feColorMatrix type="matrix" values="0 0 0 0 1 0 0 0 0 1 0 0 0 0 1 0 0 0 0.2 0"/>
<feBlend mode="normal" in2="effect1_innerShadow" result="effect2_innerShadow"/>
<feColorMatrix in="SourceAlpha" type="matrix" values="0 0 0 0 0 0 0 0 0 0 0 0 0 0 0 0 0 0 127 0" result="hardAlpha"/>
<feOffset dx="2" dy="-6"/>
<feGaussianBlur stdDeviation="1.5"/>
<feComposite in2="hardAlpha" operator="arithmetic" k2="-1" k3="1"/>
<feColorMatrix type="matrix" values="0 0 0 0 1 0 0 0 0 1 0 0 0 0 1 0 0 0 0.4 0"/>
<feBlend mode="normal" in2="effect2_innerShadow" result="effect3_innerShadow"/>
<feColorMatrix in="SourceAlpha" type="matrix" values="0 0 0 0 0 0 0 0 0 0 0 0 0 0 0 0 0 0 127 0" result="hardAlpha"/>
<feOffset dx="8" dy="-4"/>
<feGaussianBlur stdDeviation="1.5"/>
<feComposite in2="hardAlpha" operator="arithmetic" k2="-1" k3="1"/>
<feColorMatrix type="matrix" values="0 0 0 0 0.925 0 0 0 0 0.749421 0 0 0 0 0.608958 0 0 0 1 0"/>
<feBlend mode="normal" in2="effect3_innerShadow" result="effect4_innerShadow"/>
<feColorMatrix in="SourceAlpha" type="matrix" values="0 0 0 0 0 0 0 0 0 0 0 0 0 0 0 0 0 0 127 0" result="hardAlpha"/>
<feOffset dx="4" dy="-1"/>
<feGaussianBlur stdDeviation="2.5"/>
<feComposite in2="hardAlpha" operator="arithmetic" k2="-1" k3="1"/>
<feColorMatrix type="matrix" values="0 0 0 0 0 0 0 0 0 0 0 0 0 0 0 0 0 0 0.2 0"/>
<feBlend mode="normal" in2="effect4_innerShadow" result="effect5_innerShadow"/>
</filter>
<linearGradient id="paint0_linear" x1="228.206" y1="69.9999" x2="115.956" y2="209.334" gradientUnits="userSpaceOnUse">
<stop stop-color="white"/>
<stop offset="1" stop-color="white" stop-opacity="0"/>
</linearGradient>
<linearGradient id="paint1_linear" x1="825.596" y1="233.996" x2="659.564" y2="300.686" gradientUnits="userSpaceOnUse">
<stop stop-color="white"/>
<stop offset="1" stop-color="white" stop-opacity="0"/>
</linearGradient>
<linearGradient id="paint2_linear" x1="53.757" y1="190.749" x2="44.3589" y2="202.098" gradientUnits="userSpaceOnUse">
<stop stop-color="white"/>
<stop offset="1" stop-color="white" stop-opacity="0"/>
</linearGradient>
<linearGradient id="paint3_linear" x1="33.9242" y1="182.695" x2="24.6754" y2="185.092" gradientUnits="userSpaceOnUse">
<stop stop-color="white"/>
<stop offset="1" stop-color="white" stop-opacity="0"/>
</linearGradient>
<linearGradient id="paint4_linear" x1="419" y1="0" x2="419" y2="992.415" gradientUnits="userSpaceOnUse">
<stop stop-color="#A97C24" stop-opacity="0.15"/>
<stop offset="1" stop-color="white" stop-opacity="0"/>
</linearGradient>
<linearGradient id="paint5_linear" x1="506" y1="0" x2="506" y2="820.754" gradientUnits="userSpaceOnUse">
<stop stop-color="#FFDA92" stop-opacity="0.33"/>
<stop offset="1" stop-color="white" stop-opacity="0"/>
</linearGradient>
<linearGradient id="paint6_linear" x1="181.5" y1="29.3823" x2="69.25" y2="168.717" gradientUnits="userSpaceOnUse">
<stop stop-color="white"/>
<stop offset="1" stop-color="white" stop-opacity="0"/>
</linearGradient>
<linearGradient id="paint7_linear" x1="149.281" y1="96.2314" x2="47.7272" y2="53.5359" gradientUnits="userSpaceOnUse">
<stop stop-color="white"/>
<stop offset="1" stop-color="white" stop-opacity="0"/>
</linearGradient>
<radialGradient id="paint8_radial" cx="0" cy="0" r="1" gradientUnits="userSpaceOnUse" gradientTransform="translate(113.596 90.4562) rotate(-121.458) scale(144.329 280.672)">
<stop stop-color="#FFEDC0"/>
<stop offset="1" stop-color="white" stop-opacity="0"/>
</radialGradient>
<radialGradient id="paint9_radial" cx="0" cy="0" r="1" gradientUnits="userSpaceOnUse" gradientTransform="translate(89.1982 53.7004) rotate(-119.694) scale(52.7376 102.557)">
<stop stop-color="#FFAE11" stop-opacity="0.03"/>
<stop offset="1" stop-color="white" stop-opacity="0"/>
</radialGradient>
<linearGradient id="paint10_linear" x1="635.268" y1="116.543" x2="800.84" y2="161.649" gradientUnits="userSpaceOnUse">
<stop stop-color="white"/>
<stop offset="1" stop-color="white" stop-opacity="0"/>
</linearGradient>
<linearGradient id="paint11_linear" x1="682.532" y1="185.908" x2="792.327" y2="176.912" gradientUnits="userSpaceOnUse">
<stop stop-color="white"/>
<stop offset="1" stop-color="white" stop-opacity="0"/>
</linearGradient>
<radialGradient id="paint12_radial" cx="0" cy="0" r="1" gradientUnits="userSpaceOnUse" gradientTransform="translate(716.854 174.561) rotate(31.0508) scale(96.7988 188.241)">
<stop stop-color="#FFEFC6"/>
<stop offset="1" stop-color="white" stop-opacity="0"/>
</radialGradient>
<radialGradient id="paint13_radial" cx="0" cy="0" r="1" gradientUnits="userSpaceOnUse" gradientTransform="translate(755.462 195.907) rotate(32.8188) scale(52.7376 102.557)">
<stop stop-color="#FFAE11" stop-opacity="0.03"/>
<stop offset="1" stop-color="white" stop-opacity="0"/>
</radialGradient>
<linearGradient id="paint14_linear" x1="149.281" y1="96.2314" x2="47.7273" y2="53.5359" gradientUnits="userSpaceOnUse">
<stop stop-color="white"/>
<stop offset="1" stop-color="white" stop-opacity="0"/>
</linearGradient>
<radialGradient id="paint15_radial" cx="0" cy="0" r="1" gradientUnits="userSpaceOnUse" gradientTransform="translate(113.596 90.4562) rotate(-121.458) scale(144.329 280.672)">
<stop stop-color="#FFEDC0"/>
<stop offset="1" stop-color="white" stop-opacity="0"/>
</radialGradient>
<radialGradient id="paint16_radial" cx="0" cy="0" r="1" gradientUnits="userSpaceOnUse" gradientTransform="translate(89.1982 53.7004) rotate(-119.694) scale(52.7376 102.557)">
<stop stop-color="#FFAE11" stop-opacity="0.03"/>
<stop offset="1" stop-color="white" stop-opacity="0"/>
</radialGradient>
<linearGradient id="paint17_linear" x1="83.1443" y1="117.92" x2="144.948" y2="115.976" gradientUnits="userSpaceOnUse">
<stop stop-color="#D9AF8E"/>
<stop offset="0.046875" stop-color="#FFEDC2"/>
<stop offset="0.0989583" stop-color="#D9AF8E"/>
<stop offset="0.182292" stop-color="#FFEDC0"/>
<stop offset="0.244792" stop-color="#D9AF8E"/>
<stop offset="0.317708" stop-color="#FFEDC0"/>
<stop offset="0.390625" stop-color="#D9AF8E"/>
<stop offset="0.46875" stop-color="#FFEDC0"/>
<stop offset="0.541667" stop-color="#D9AF8E"/>
<stop offset="0.609375" stop-color="#FFEDC0"/>
<stop offset="0.666667" stop-color="#D9AF8E"/>
<stop offset="0.739583" stop-color="#FFEDC0"/>
<stop offset="0.828125" stop-color="#D9AF8E"/>
<stop offset="0.911458" stop-color="#FFEDC0"/>
<stop offset="1" stop-color="#D9AF8E"/>
</linearGradient>
<linearGradient id="paint18_linear" x1="682.532" y1="185.908" x2="792.327" y2="176.912" gradientUnits="userSpaceOnUse">
<stop stop-color="white"/>
<stop offset="1" stop-color="white" stop-opacity="0"/>
</linearGradient>
<radialGradient id="paint19_radial" cx="0" cy="0" r="1" gradientUnits="userSpaceOnUse" gradientTransform="translate(716.854 174.561) rotate(31.0508) scale(96.7988 188.241)">
<stop stop-color="#FFEFC6"/>
<stop offset="1" stop-color="white" stop-opacity="0"/>
</radialGradient>
<radialGradient id="paint20_radial" cx="0" cy="0" r="1" gradientUnits="userSpaceOnUse" gradientTransform="translate(755.462 195.907) rotate(32.8188) scale(52.7376 102.557)">
<stop stop-color="#FFAE11" stop-opacity="0.03"/>
<stop offset="1" stop-color="white" stop-opacity="0"/>
</radialGradient>
<clipPath id="clip0">
<path d="M45 18C45 8.05888 53.0589 0 63 0H775C784.941 0 793 8.05887 793 18V352C793 361.941 784.941 370 775 370H63C53.0589 370 45 361.941 45 352V18Z" fill="white"/>
</clipPath>
<clipPath id="clip1">
<rect width="1012" height="306" fill="white" transform="translate(-87 -16)"/>
</clipPath>
<clipPath id="clip2">
<rect width="105.517" height="33.4311" fill="white" transform="translate(365.421 74.0994) rotate(-3)"/>
</clipPath>
<clipPath id="clip3">
<rect width="224" height="80" fill="white" transform="translate(301 291)"/>
</clipPath>
</defs>
<style type="text/css">

@keyframes enter {
0% {transform: translate3d(0,80px,0) scale(.6); opacity:.5;}
100% {transform: translate3d(0,0,0) scale(1); opacity:1;}
}
@keyframes indicator {
  from {
    transform: scale(0) ;
  }

  to {
    transform: scale(1) ;
	 opacity: 1;
  }
}

@keyframes pulse {
  0%, 100% {
    color: #EBE6DF;
  }

  50% {
    color: #F8F2EA;
  }
}



@keyframes text-in {
0% {opacity:0;}
100% {opacity:1;}
}

@keyframes text-out {
0% {opacity:1;}
100% {opacity:0;}
}

@keyframes spin {
  from {
    transform: rotate(0deg);
  }
  to {
    transform: rotate(360deg);
  }
}


#checkmark-group, #checkmark, #toast, #progress, #try-out-button  { 
  transform-box: fill-box;
  transform-origin: center center;
}

#checkmark-group {
   opacity: 0;
   animation: indicator 0.35s 2.5s cubic-bezier(.21,1.02,.73,1) forwards; 
}
#checkmark {
   opacity: 0;
    animation: indicator 0.2s 2.62s cubic-bezier(.21,1.02,.73,1) forwards; 
}


#success-text {
   opacity: 0;
    animation: text-in 0s 2.5s ease-out forwards; 
}
#loading-text {
   opacity: 1;
   animation: text-out 0s 2.5s ease-out forwards; 
}


#progress {
   transform-origin: 0px 5px;
   animation: spin 1s linear infinite;
}

#toast {
   opacity: 0;
  animation: enter 0.35s 1s cubic-bezier(.21,1.02,.73,1) forwards;
}

#try-out-button {
  color: #EBE6DF;
   cursor: pointer;
   animation: pulse 1s 4s ease-in-out;
}     
</style>
</svg>
